<?xml version="1.0" standalone="no"?>
<!DOCTYPE svg PUBLIC "-//W3C//DTD SVG 1.1//EN" "http://www.w3.org/Graphics/SVG/1.1/DTD/svg11.dtd" >
<svg xmlns="http://www.w3.org/2000/svg" xmlns:xlink="http://www.w3.org/1999/xlink" version="1.1">
<metadata>
Created by FontForge 20201107 at Wed Jul 17 13:05:35 2024
 By 
Copyright (c) 2010 by Emmanuel Rey, distributed by B&#38;P Foundry Srl, Switzerland, http://www.bpfoundry.com. All rights reserved.
</metadata>
<defs>
<font id="SimplonBPMono-Regular" horiz-adv-x="1245" >
  <font-face 
    font-family="Simplon BP Mono Regular"
    font-weight="400"
    font-stretch="normal"
    units-per-em="2048"
    panose-1="2 0 0 9 0 0 0 0 0 0"
    ascent="1536"
    descent="-512"
    x-height="1057"
    cap-height="1434"
    bbox="-141 -430 1266 2050"
    underline-thickness="102"
    underline-position="-204"
    unicode-range="U+0020-FB02"
  />
<missing-glyph 
 />
    <glyph glyph-name="fi" unicode="fi" 
d="M662 1286h-162q-55 0 -77 -20.5t-22 -71.5v-137h674v-1057h-153v909h-521v-909h-153v909h-150v148h150v125q0 138 54 195t198 57h162v-148zM870 1208v226h226v-226h-226z" />
    <glyph glyph-name="fl" unicode="fl" 
d="M500 1434h575v-1434h-153v1286h-422q-55 0 -77 -20.5t-22 -71.5v-137h261v-148h-261v-909h-153v909h-150v148h150v125q0 138 54 195t198 57z" />
    <glyph glyph-name=".notdef" 
 />
    <glyph glyph-name=".null" horiz-adv-x="0" 
 />
    <glyph glyph-name="nonmarkingreturn" 
 />
    <glyph glyph-name="space" unicode=" " 
 />
    <glyph glyph-name="exclam" unicode="!" 
d="M700 1434v-963h-153v963h153zM516 0v215h215v-215h-215z" />
    <glyph glyph-name="quotedbl" unicode="&#x22;" 
d="M926 975h-109v459h109v-459zM428 975h-109v459h109v-459z" />
    <glyph glyph-name="numbersign" unicode="#" 
d="M1057 442h-191l-108 -442h-96l108 442h-432l-109 -442h-96l109 442h-146v93h168l90 364h-166v92h189l110 443h97l-111 -443h432l111 443h96l-111 -443h148v-92h-170l-90 -364h168v-93zM451 899l-91 -364h433l90 364h-432z" />
    <glyph glyph-name="dollar" unicode="$" 
d="M578 -205v187q-168 14 -276.5 132.5t-121.5 309.5h154q19 -139 94.5 -218t194.5 -79q123 0 189.5 57.5t66.5 169.5q0 82 -41.5 151t-128.5 101l-220 82q-284 107 -284 387q0 95 39 175.5t125.5 136.5t208.5 65v186h88v-186q145 -14 243 -115.5t105 -265.5h-152
q-13 112 -77.5 174t-161.5 62q-135 0 -200 -64t-65 -166q0 -172 168 -235l228 -84q135 -50 206.5 -156.5t71.5 -247.5q0 -157 -91.5 -259t-274.5 -113v-187h-88z" />
    <glyph glyph-name="percent" unicode="%" 
d="M111 1161q0 117 81.5 200t198.5 83t200 -83t83 -200t-83 -198.5t-200 -81.5t-198.5 81.5t-81.5 198.5zM238 1161q0 -65 44 -110t109 -45q66 0 111 45t45 110t-45.5 111.5t-110.5 46.5t-109 -46.5t-44 -111.5zM571 270q0 117 82 200t199 83t200 -83t83 -200t-83 -198.5
t-200 -81.5t-199 81.5t-82 198.5zM698 270q0 -65 44 -110t110 -45t111 45t45 110t-45.5 111.5t-110.5 46.5t-109.5 -46.5t-44.5 -111.5zM145 307l889 891l66 -65l-889 -891z" />
    <glyph glyph-name="ampersand" unicode="&#x26;" 
d="M246 1434h692v-148h-520l456 -811l158 279l129 -74l-200 -358l143 -256l-129 -76l-105 184q-58 -90 -151.5 -142t-204.5 -52q-175 0 -299.5 124t-124.5 299q0 128 69 233t183 155q70 33 162 36l-258 459v148zM244 403q0 -116 78 -196t192 -80q96 0 165.5 54.5
t108.5 140.5l-194 346q-37 12 -80 12q-114 0 -192 -80.5t-78 -196.5z" />
    <glyph glyph-name="quotesingle" unicode="'" 
d="M676 975h-109v459h109v-459z" />
    <glyph glyph-name="parenleft" unicode="(" 
d="M512 23v1200q0 108 47 159.5t172 51.5h242v-86h-242q-78 0 -104.5 -29t-26.5 -96v-1200q0 -67 26.5 -96t104.5 -29h242v-86h-242q-125 0 -172 51.5t-47 159.5z" />
    <glyph glyph-name="parenright" unicode=")" 
d="M733 1223v-1200q0 -108 -47 -159.5t-172 -51.5h-242v86h242q78 0 104.5 29t26.5 96v1200q0 67 -26.5 96t-104.5 29h-242v86h242q125 0 172 -51.5t47 -159.5z" />
    <glyph glyph-name="asterisk" unicode="*" 
d="M623 963l-195 -269l-76 51l197 269l-316 102l27 88l315 -102v332h93v-332l315 102l27 -88l-316 -102l197 -269l-76 -51z" />
    <glyph glyph-name="plus" unicode="+" 
d="M578 168v360h-361v93h361v358h92v-358h358v-93h-358v-360h-92z" />
    <glyph glyph-name="comma" unicode="," 
d="M389 -340l-113 113l418 415l113 -112z" />
    <glyph glyph-name="hyphen" unicode="-" 
d="M920 528h-594v93h594v-93z" />
    <glyph glyph-name="period" unicode="." 
d="M516 0v215h215v-215h-215z" />
    <glyph glyph-name="slash" unicode="/" 
d="M1069 1444l76 -53l-967 -1401l-76 53z" />
    <glyph glyph-name="zero" unicode="0" 
d="M1036 1040v-647q0 -170 -121.5 -291.5t-291.5 -121.5t-292 121.5t-122 291.5v647q0 170 122 292t292 122t291.5 -122t121.5 -292zM883 393v520l-521 -522q0 -108 76.5 -186t184.5 -78t184 79t76 187zM362 1040v-518l521 522q-2 107 -78 185t-182 78q-108 0 -184.5 -79.5
t-76.5 -187.5z" />
    <glyph glyph-name="one" unicode="1" 
d="M207 147h373v1076l-226 -226l-104 107l330 330h153v-1287h373v-147h-899v147z" />
    <glyph glyph-name="two" unicode="2" 
d="M469 831l-100 -114q-72 58 -114 142.5t-42 180.5q0 170 122 292t292 122t291.5 -122t121.5 -292q0 -76 -21 -139t-54 -111.5t-95 -119.5l-458 -523h628v-147h-827v147l549 625q60 67 92.5 130t32.5 138q0 108 -76 187.5t-184 79.5t-184 -79.5t-76 -187.5
q0 -62 27.5 -116.5t74.5 -92.5z" />
    <glyph glyph-name="three" unicode="3" 
d="M604 657v148q102 0 174 74t72 176t-72 177t-174 75t-173 -75t-71 -177h-153q0 166 115.5 282.5t281.5 116.5t283 -116.5t117 -282.5q0 -99 -44.5 -184t-121.5 -140q83 -58 131.5 -147t48.5 -191q0 -170 -122 -291.5t-292 -121.5t-292 121.5t-122 291.5h154
q0 -108 76 -187t184 -79t184 79t76 187q0 105 -72.5 182.5t-177.5 81.5h-10z" />
    <glyph glyph-name="four" unicode="4" 
d="M901 1356l-602 -821h475v323h154v-323h149v-148h-149v-387h-154v387h-657v148l665 909z" />
    <glyph glyph-name="five" unicode="5" 
d="M381 608l-160 94l160 732h569v-148h-442l-98 -446q76 69 217 69q164 0 283.5 -122t119.5 -291v-103q0 -170 -122 -291.5t-292 -121.5t-291.5 121.5t-121.5 291.5h153q0 -108 76 -187t184 -79t184.5 79t76.5 187v103q0 108 -76.5 187t-184.5 79q-76 0 -139.5 -43
t-95.5 -111z" />
    <glyph glyph-name="six" unicode="6" 
d="M1010 496v-103q0 -170 -122 -291.5t-292 -121.5t-292 121.5t-122 291.5v103q0 134 82 247l514 701l119 -88l-328 -449q8 2 27 2q170 0 292 -121.5t122 -291.5zM856 393v103q0 108 -76 187t-184 79t-184 -79t-76 -187v-103q0 -108 76 -187t184 -79t184 79t76 187z" />
    <glyph glyph-name="seven" unicode="7" 
d="M215 1434h815v-148l-457 -1296l-139 49l438 1247h-503v-237h-154v385z" />
    <glyph glyph-name="eight" unicode="8" 
d="M225 1055q0 166 116 282.5t282 116.5t282.5 -116.5t116.5 -282.5q0 -99 -45 -184t-123 -140q84 -57 133 -145.5t49 -192.5q0 -170 -121.5 -291.5t-291.5 -121.5t-292 121.5t-122 291.5q0 104 48.5 194t131.5 146q-77 55 -120.5 139t-43.5 183zM362 393q0 -108 76.5 -187
t184.5 -79t184 79t76 187t-76 187t-184 79t-184.5 -79t-76.5 -187zM868 1055q0 102 -71.5 177t-173.5 75t-173 -75t-71 -177t71 -176t173 -74t173.5 74t71.5 176z" />
    <glyph glyph-name="nine" unicode="9" 
d="M236 938v102q0 170 121.5 292t291.5 122t292 -122t122 -292v-102q0 -135 -82 -248l-514 -700l-119 88l328 448q-8 -2 -27 -2q-170 0 -291.5 122t-121.5 292zM389 1040v-102q0 -108 76 -187t184 -79t184 79t76 187v102q0 108 -76 187.5t-184 79.5t-184 -79.5t-76 -187.5z
" />
    <glyph glyph-name="colon" unicode=":" 
d="M516 686v215h215v-215h-215zM516 0v215h215v-215h-215z" />
    <glyph glyph-name="semicolon" unicode=";" 
d="M313 -340l-112 113l417 415l113 -112zM516 686v215h215v-215h-215z" />
    <glyph glyph-name="less" unicode="&#x3c;" 
d="M920 1022l-490 -490l490 -489l-66 -63l-553 552l553 553z" />
    <glyph glyph-name="equal" unicode="=" 
d="M1028 317h-811v93h811v-93zM1028 717h-811v92h811v-92z" />
    <glyph glyph-name="greater" unicode="&#x3e;" 
d="M815 532l-489 490l65 63l553 -553l-553 -552l-65 63z" />
    <glyph glyph-name="question" unicode="?" 
d="M526 776h78q108 0 184 77.5t76 186.5t-76 187t-184 78t-184 -78t-76 -187h-154q0 170 122 292t292 122t292 -122t122 -292q0 -150 -97 -264.5t-241 -142.5v-162h-154v305zM498 0v215h215v-215h-215z" />
    <glyph glyph-name="at" unicode="@" 
d="M838 82q-72 -102 -220 -102q-138 0 -217 79t-79 217v62q0 138 79 217.5t217 79.5h144v153q0 70 -38 110t-106 40t-105.5 -40t-37.5 -110v-55h-153v55q0 138 79 217.5t217 79.5t217.5 -79.5t79.5 -217.5v-638q0 -37 22 -60.5t58 -23.5t58 23.5t22 60.5v774
q0 202 -119.5 323t-332.5 121t-333 -121t-120 -323v-781q0 -202 120 -323t333 -121v-86q-254 0 -397.5 144.5t-143.5 385.5v781q0 241 143.5 385.5t397.5 144.5t397 -144t143 -386v-774q0 -81 -46.5 -125.5t-121.5 -44.5q-65 0 -104.5 29t-52.5 73zM475 338v-62
q0 -70 37.5 -109.5t105.5 -39.5t106 39.5t38 109.5v211h-144q-68 0 -105.5 -39.5t-37.5 -109.5z" />
    <glyph glyph-name="A" unicode="A" 
d="M1014 0l-131 403h-521l-131 -403h-159l460 1434h181l461 -1434h-160zM836 549l-213 665l-213 -665h426z" />
    <glyph glyph-name="B" unicode="B" 
d="M184 0v1434h478q88 0 159.5 -23t118 -61t77.5 -89.5t44.5 -106.5t13.5 -114q0 -101 -43 -182t-114 -125q94 -47 143 -137.5t49 -194.5q0 -79 -22.5 -147.5t-69 -127t-129 -92.5t-193.5 -34h-512zM696 647h-354v-491h354q118 0 186 65t68 180t-68 180.5t-186 65.5z
M915 1040q0 106 -67 172t-186 66h-320v-475h320q119 0 186 66t67 171z" />
    <glyph glyph-name="C" unicode="C" 
d="M631 1454q198 0 323.5 -119.5t137.5 -324.5h-158q-12 138 -95.5 213t-207.5 75q-133 0 -219 -86t-86 -243v-504q0 -157 86 -243.5t219 -86.5q124 0 207.5 75.5t95.5 213.5h158q-12 -205 -137.5 -324.5t-323.5 -119.5q-208 0 -335.5 131t-127.5 354v504q0 223 127.5 354
t335.5 131z" />
    <glyph glyph-name="D" unicode="D" 
d="M168 1434h463q208 0 335.5 -131.5t127.5 -354.5v-463q0 -223 -127.5 -354t-335.5 -131h-463v1434zM631 1278h-305v-1122h305q133 0 219 86t86 243v463q0 157 -85.5 242.5t-219.5 87.5z" />
    <glyph glyph-name="E" unicode="E" 
d="M393 647v-491h658v-156h-815v1434h815v-156h-658v-475h514v-156h-514z" />
    <glyph glyph-name="F" unicode="F" 
d="M430 647v-647h-158v1434h815v-156h-657v-475h514v-156h-514z" />
    <glyph glyph-name="G" unicode="G" 
d="M627 1454q198 0 323 -119t137 -325h-157q-12 138 -95.5 213t-207.5 75q-133 0 -219 -86t-86 -243v-504q0 -157 86 -243.5t219 -86.5t219 86.5t86 243.5v141h-305v156h463v-297q0 -223 -127.5 -354t-335.5 -131t-335.5 131t-127.5 354v504q0 223 127.5 354t335.5 131z" />
    <glyph glyph-name="H" unicode="H" 
d="M928 803v631h157v-1434h-157v647h-611v-647h-157v1434h157v-631h611z" />
    <glyph glyph-name="I" unicode="I" 
d="M1032 1278h-330v-1122h330v-156h-817v156h330v1122h-330v156h817v-156z" />
    <glyph glyph-name="J" unicode="J" 
d="M139 410h160q15 -131 97.5 -203t203.5 -72q133 0 219 86.5t86 243.5v813h-659v156h817v-969q0 -223 -127.5 -354t-335.5 -131q-195 0 -319.5 115t-141.5 315z" />
    <glyph glyph-name="K" unicode="K" 
d="M305 422v-422h-158v1434h158v-779l662 779h200l-503 -590l557 -844h-187l-475 721z" />
    <glyph glyph-name="L" unicode="L" 
d="M250 0v1434h158v-1278h657v-156h-815z" />
    <glyph glyph-name="M" unicode="M" 
d="M623 561l301 873h161v-1434h-151v1067l-232 -682h-159l-232 682v-1067h-151v1434h162z" />
    <glyph glyph-name="N" unicode="N" 
d="M1085 1434v-1434h-157l-611 1128v-1128h-157v1434h157l611 -1129v1129h157z" />
    <glyph glyph-name="O" unicode="O" 
d="M928 465v504q0 157 -86 243t-219 86t-219.5 -86t-86.5 -243v-504q0 -157 86.5 -243.5t219.5 -86.5t219 86.5t86 243.5zM1085 969v-504q0 -223 -127 -354t-335 -131t-335.5 131t-127.5 354v504q0 223 127.5 354t335.5 131t335 -131t127 -354z" />
    <glyph glyph-name="P" unicode="P" 
d="M1135 995q0 -98 -26 -176t-80.5 -137.5t-145 -92t-211.5 -32.5h-305v-557h-158v1434h463q121 0 211.5 -32.5t145 -92t80.5 -138t26 -176.5zM973 995q0 127 -72.5 205t-228.5 78h-305v-565h305q156 0 228.5 77.5t72.5 204.5z" />
    <glyph glyph-name="Q" unicode="Q" 
d="M1085 969v-504q0 -172 -79 -293l159 -162l-104 -102l-154 158q-115 -86 -284 -86q-208 0 -335.5 131t-127.5 354v504q0 223 127.5 354t335.5 131t335 -131t127 -354zM317 969v-92l574 -586q37 76 37 174v504q0 157 -86 243t-219 86t-219.5 -86t-86.5 -243zM793 182
l-476 486v-203q0 -157 86.5 -243.5t219.5 -86.5q99 0 170 47z" />
    <glyph glyph-name="R" unicode="R" 
d="M586 649h-228v-649h-157v1434h487q88 0 159.5 -23t118 -61t78 -89.5t45 -106.5t13.5 -114q0 -68 -18.5 -129.5t-56.5 -116t-105 -92t-156 -49.5l383 -653h-182zM942 1040q0 105 -67.5 171.5t-186.5 66.5h-330v-477h330q119 0 186.5 66.5t67.5 172.5z" />
    <glyph glyph-name="S" unicode="S" 
d="M625 -20q-196 0 -323 120t-142 324h162q18 -135 101.5 -212t201.5 -77q126 0 200 58t74 169q0 97 -55 157.5t-176 94.5l-183 52q-151 42 -226 154t-75 253q0 119 59 207t153.5 131t211.5 43q185 0 297 -99.5t135 -283.5h-161q-24 107 -91.5 167t-179.5 60
q-125 0 -194.5 -63.5t-69.5 -161.5q0 -99 51.5 -161t161.5 -93l168 -47q334 -94 334 -410q0 -176 -112 -279t-322 -103z" />
    <glyph glyph-name="T" unicode="T" 
d="M543 1278h-383v156h923v-156h-383v-1278h-157v1278z" />
    <glyph glyph-name="U" unicode="U" 
d="M160 465v969h157v-969q0 -157 86.5 -243.5t219.5 -86.5t219 86.5t86 243.5v969h157v-969q0 -223 -127 -354t-335 -131t-335.5 131t-127.5 354z" />
    <glyph glyph-name="V" unicode="V" 
d="M623 219l391 1215h160l-461 -1434h-181l-460 1434h159z" />
    <glyph glyph-name="W" unicode="W" 
d="M686 1229l201 -893l143 1098h154l-205 -1434h-141l-215 926l-215 -926h-142l-205 1434h154l143 -1098l201 893h127z" />
    <glyph glyph-name="X" unicode="X" 
d="M623 854l335 580h175l-404 -693l434 -741h-180l-360 623l-361 -623h-180l434 741l-403 693h174z" />
    <glyph glyph-name="Y" unicode="Y" 
d="M702 569v-569h-157v571l-473 863h172l381 -695l379 695h172z" />
    <glyph glyph-name="Z" unicode="Z" 
d="M1081 0h-936v156l742 1122h-731v156h915v-156l-741 -1122h751v-156z" />
    <glyph glyph-name="bracketleft" unicode="[" 
d="M512 -188v1622h461v-86h-373v-1450h373v-86h-461z" />
    <glyph glyph-name="backslash" unicode="\" 
d="M100 1391l76 53l967 -1401l-76 -53z" />
    <glyph glyph-name="bracketright" unicode="]" 
d="M733 1434v-1622h-461v86h373v1450h-373v86h461z" />
    <glyph glyph-name="asciicircum" unicode="^" 
d="M1112 825l-489 490l-490 -490l-63 66l553 553l553 -553z" />
    <glyph glyph-name="underscore" unicode="_" 
d="M1028 -233h-811v92h811v-92z" />
    <glyph glyph-name="grave" unicode="`" 
d="M883 1196l-547 150l26 98l547 -150z" />
    <glyph glyph-name="a" unicode="a" 
d="M612 938q-95 0 -165.5 -53t-88.5 -152h-157q10 95 49 165.5t98 110t125 58t139 18.5q62 0 119 -12.5t111.5 -43.5t94.5 -77t64.5 -118t24.5 -162v-672h-154v109q-100 -129 -329 -129q-69 0 -130.5 19t-111.5 56t-79 98t-29 140q0 44 10.5 85.5t34.5 85t71 78.5t113 54
q82 24 185 36t265 23v19q0 126 -75 195t-185 69zM872 381v137q-190 -13 -286.5 -27.5t-147.5 -41.5q-54 -30 -73 -65.5t-19 -86.5q0 -76 58.5 -123t170.5 -47q130 0 213.5 67t83.5 187z" />
    <glyph glyph-name="b" unicode="b" 
d="M631 -20q-77 0 -149.5 33.5t-110.5 95.5v-109h-154v1434h154v-478q38 62 110.5 95.5t149.5 33.5q62 0 119 -12.5t111.5 -43.5t94 -77t64 -118t24.5 -162v-279q0 -90 -24.5 -162t-64 -118t-94 -77t-111.5 -43.5t-119 -12.5zM891 391v283q0 126 -75 195t-185 69t-185 -69
t-75 -195v-283q0 -126 75 -195t185 -69t185 69t75 195z" />
    <glyph glyph-name="c" unicode="c" 
d="M629 1085q74 0 140.5 -19t125.5 -59.5t98 -113t47 -170.5h-155q-14 103 -86.5 159t-169.5 56q-110 0 -185 -69t-75 -195v-283q0 -126 75 -195t185 -69q97 0 169.5 56t86.5 159h155q-8 -98 -47 -170.5t-98 -113t-125.5 -59.5t-140.5 -19q-62 0 -119 12.5t-111.5 43
t-94.5 76.5t-64.5 118t-24.5 163v279q0 90 24.5 162t64.5 118t94.5 77t111.5 43.5t119 12.5z" />
    <glyph glyph-name="d" unicode="d" 
d="M614 -20q-62 0 -119 12.5t-111.5 43.5t-94 77t-64 118t-24.5 162v279q0 90 24.5 162t64 118t94 77t111.5 43.5t119 12.5q77 0 149.5 -33.5t110.5 -95.5v478h154v-1434h-154v109q-38 -62 -110.5 -95.5t-149.5 -33.5zM354 674v-283q0 -126 75 -195t185 -69t185 69t75 195
v283q0 126 -75 195t-185 69t-185 -69t-75 -195z" />
    <glyph glyph-name="e" unicode="e" 
d="M625 127q95 0 165.5 53t88.5 152h157q-10 -95 -49 -165.5t-98 -110t-125 -58t-139 -18.5q-62 0 -119 12.5t-111.5 43.5t-94.5 77t-64.5 118t-24.5 162v279q0 90 24.5 162t64.5 118t94.5 77t111.5 43.5t119 12.5t119 -12.5t111.5 -43.5t94 -77t64 -118t24.5 -162v-178
h-673v-103q0 -126 75 -195t185 -69zM885 635v39q0 126 -75 195t-185 69t-185 -69t-75 -195v-39h520z" />
    <glyph glyph-name="f" unicode="f" 
d="M1057 1286h-346q-55 0 -77 -20.5t-22 -71.5v-137h445v-148h-445v-909h-153v909h-301v148h301v125q0 138 54 195t198 57h346v-148z" />
    <glyph glyph-name="g" unicode="g" 
d="M614 -250q110 0 185 69t75 195v136q-38 -62 -111 -96t-149 -34q-62 0 -119 13t-111.5 43.5t-94 77t-64 118.5t-24.5 162v238q0 90 24.5 162t64 118t94 77t111.5 43.5t119 12.5q77 0 149.5 -33.5t110.5 -95.5v101h154v-1041q0 -91 -24.5 -163t-64.5 -118t-94.5 -76.5
t-111.5 -43t-119 -12.5q-74 0 -140.5 19t-125.5 59.5t-98 113t-47 170.5h155q14 -103 86.5 -159t169.5 -56zM354 674v-242q0 -126 75 -195t185 -69t185 69t75 195v242q0 126 -75 195t-185 69t-185 -69t-75 -195z" />
    <glyph glyph-name="h" unicode="h" 
d="M627 1085q62 0 119 -12.5t111.5 -43.5t94 -77t64 -118t24.5 -162v-672h-153v674q0 126 -75 195t-185 69t-185 -69t-75 -195v-674h-154v1434h154v-478q38 62 110.5 95.5t149.5 33.5z" />
    <glyph glyph-name="i" unicode="i" 
d="M283 909v148h424v-910h372v-147h-899v147h373v762h-270zM502 1208v226h225v-226h-225z" />
    <glyph glyph-name="j" unicode="j" 
d="M686 -137v1046h-444v148h598v-1182q0 -138 -54 -195t-198 -57h-449v148h449q55 0 76.5 20.5t21.5 71.5zM635 1208v226h225v-226h-225z" />
    <glyph glyph-name="k" unicode="k" 
d="M403 1434v-877l461 500h191l-381 -414l436 -643h-180l-361 530l-166 -180v-350h-153v1434h153z" />
    <glyph glyph-name="l" unicode="l" 
d="M276 1286v148h424v-1287h373v-147h-899v147h373v1139h-271z" />
    <glyph glyph-name="m" unicode="m" 
d="M549 0v793q0 66 -32.5 105.5t-96.5 39.5t-97.5 -39.5t-33.5 -105.5v-793h-154v1057h154v-58q22 40 62 63t91 23q121 0 183 -96q80 96 206 96q136 0 210.5 -81t74.5 -211v-793h-153v793q0 66 -32.5 105.5t-96.5 39.5t-98 -40t-34 -105v-793h-153z" />
    <glyph glyph-name="n" unicode="n" 
d="M627 1085q62 0 119 -12.5t111.5 -43.5t94 -77t64 -118t24.5 -162v-672h-153v674q0 126 -75 195t-185 69t-185 -69t-75 -195v-674h-154v1057h154v-101q38 62 110.5 95.5t149.5 33.5z" />
    <glyph glyph-name="o" unicode="o" 
d="M883 391v283q0 126 -75 195t-185 69t-185.5 -69t-75.5 -195v-283q0 -126 75.5 -195t185.5 -69t185 69t75 195zM1036 672v-279q0 -90 -24.5 -162t-64 -118t-94 -77t-111.5 -43.5t-119 -12.5t-119 12.5t-111.5 43.5t-94.5 77t-64.5 118t-24.5 162v279q0 90 24.5 162
t64.5 118t94.5 77t111.5 43.5t119 12.5t119 -12.5t111.5 -43.5t94 -77t64 -118t24.5 -162z" />
    <glyph glyph-name="p" unicode="p" 
d="M631 -20q-77 0 -149.5 33.5t-110.5 95.5v-486h-154v1434h154v-101q38 62 110.5 95.5t149.5 33.5q62 0 119 -12.5t111.5 -43.5t94 -77t64 -118t24.5 -162v-279q0 -90 -24.5 -162t-64 -118t-94 -77t-111.5 -43.5t-119 -12.5zM891 391v283q0 126 -75 195t-185 69t-185 -69
t-75 -195v-283q0 -126 75 -195t185 -69t185 69t75 195z" />
    <glyph glyph-name="q" unicode="q" 
d="M614 -20q-62 0 -119 12.5t-111.5 43.5t-94 77t-64 118t-24.5 162v279q0 90 24.5 162t64 118t94 77t111.5 43.5t119 12.5q77 0 149.5 -33.5t110.5 -95.5v101h154v-1434h-154v486q-38 -62 -110.5 -95.5t-149.5 -33.5zM354 674v-283q0 -126 75 -195t185 -69t185 69t75 195
v283q0 126 -75 195t-185 69t-185 -69t-75 -195z" />
    <glyph glyph-name="r" unicode="r" 
d="M227 909v148h385v-111q38 62 110.5 95.5t149.5 33.5h254v-147h-254q-110 0 -185 -69t-75 -195v-517h412v-147h-899v147h334v762h-232z" />
    <glyph glyph-name="s" unicode="s" 
d="M997 748h-157q-13 92 -73.5 141t-158.5 49q-88 0 -143 -41.5t-55 -112.5q0 -62 37.5 -96.5t107.5 -50.5l199 -49q131 -32 200.5 -104t69.5 -210q0 -150 -101 -222t-272 -72q-85 0 -157.5 20.5t-131 62t-94 112t-41.5 163.5h158q10 -107 82 -159t184 -52q107 0 161 40.5
t56 111.5q0 56 -32.5 95.5t-114.5 59.5l-207 51q-48 11 -90 31.5t-82.5 54t-64 87t-23.5 120.5q0 142 102 224.5t254 82.5q168 0 271.5 -83.5t115.5 -253.5z" />
    <glyph glyph-name="t" unicode="t" 
d="M600 909v-669q0 -51 21.5 -72t76.5 -21h346v-147h-346q-144 0 -198 57t-54 195v657h-301v148h301v239h154v-239h444v-148h-444z" />
    <glyph glyph-name="u" unicode="u" 
d="M618 -20q-56 0 -109.5 12t-108.5 41.5t-96 74.5t-67 117t-26 162v670h154v-660q0 -68 21.5 -121t58 -85t81 -48t92.5 -16q104 0 179 70t75 194v666h154v-1057h-154v109q-38 -60 -110 -94.5t-144 -34.5z" />
    <glyph glyph-name="v" unicode="v" 
d="M1090 1057l-381 -1057h-172l-381 1057h163l304 -858l303 858h164z" />
    <glyph glyph-name="w" unicode="w" 
d="M696 893l181 -602l114 766h152l-170 -1057h-137l-213 692l-213 -692h-138l-170 1057h152l115 -766l180 602h147z" />
    <glyph glyph-name="x" unicode="x" 
d="M903 0l-280 428l-281 -428h-174l358 543l-342 514h178l261 -391l260 391h178l-342 -514l358 -543h-174z" />
    <glyph glyph-name="y" unicode="y" 
d="M1090 1057l-480 -1325q-21 -60 -75.5 -83.5t-157.5 -25.5h-92v148h110q46 0 64 14.5t28 46.5l56 152l-387 1073h163l304 -858l303 858h164z" />
    <glyph glyph-name="z" unicode="z" 
d="M1001 909l-595 -762h610v-147h-797v147l596 762h-582v148h768v-148z" />
    <glyph glyph-name="braceleft" unicode="{" 
d="M381 580h-21v86h21q78 0 104.5 29t26.5 96v432q0 108 47 159.5t172 51.5h242v-86h-242q-78 0 -104.5 -29t-26.5 -96v-432q0 -125 -70 -168q70 -45 70 -168v-432q0 -67 26.5 -96t104.5 -29h242v-86h-242q-125 0 -172 51.5t-47 159.5v432q0 67 -26.5 96t-104.5 29z" />
    <glyph glyph-name="bar" unicode="|" 
d="M578 -205v1639h88v-1639h-88z" />
    <glyph glyph-name="braceright" unicode="}" 
d="M885 580h-21q-78 0 -104.5 -29t-26.5 -96v-432q0 -108 -47 -159.5t-172 -51.5h-242v86h242q78 0 104.5 29t26.5 96v432q0 123 70 168q-70 43 -70 168v432q0 67 -26.5 96t-104.5 29h-242v86h242q125 0 172 -51.5t47 -159.5v-432q0 -67 26.5 -96t104.5 -29h21v-86z" />
    <glyph glyph-name="asciitilde" unicode="~" 
d="M1051 623l-326 -177l-209 150l-276 -150l-43 78l325 176l209 -149l277 149z" />
    <glyph glyph-name="exclamdown" unicode="&#xa1;" 
d="M700 586v-963h-153v963h153zM516 842v215h215v-215h-215z" />
    <glyph glyph-name="cent" unicode="&#xa2;" 
d="M584 -205v187q-58 4 -109.5 19.5t-100 47.5t-83 77.5t-55.5 114t-21 152.5v279q0 103 31 182t85 126t117 72t136 31v187h88v-187q68 -6 128 -27.5t112.5 -62.5t86.5 -110t41 -160h-155q-14 103 -86.5 159t-169.5 56q-110 0 -185 -69t-75 -195v-283q0 -126 75 -195
t185 -69q97 0 169.5 56t86.5 159h155q-7 -91 -41 -160t-86.5 -110t-112.5 -62.5t-128 -27.5v-187h-88z" />
    <glyph glyph-name="sterling" unicode="&#xa3;" 
d="M152 762h131v278q0 90 24.5 162t64 118.5t94 77t111.5 43.5t119 13t119 -13t111.5 -43.5t94.5 -77t64.5 -118.5t24.5 -162h-154v2q0 126 -75.5 195.5t-184.5 69.5t-184.5 -69.5t-75.5 -195.5v-280h520v-88h-520v-527h674v-147h-958v147h131v527h-131v88z" />
    <glyph glyph-name="currency" unicode="&#xa4;" 
d="M1153 102l-172 172q-153 -131 -358 -131q-206 0 -359 131l-172 -172l-63 62l172 174q-131 153 -131 358q0 206 131 359l-172 174l63 61l172 -174q152 133 359 133q206 0 358 -133l172 174l64 -61l-175 -174q134 -153 134 -359q0 -205 -134 -358l175 -174zM217 696
q0 -167 119.5 -286t286.5 -119t286 119t119 286t-119 286.5t-286 119.5t-286.5 -119.5t-119.5 -286.5z" />
    <glyph glyph-name="yen" unicode="&#xa5;" 
d="M748 659h280v-88h-328v-192h328v-88h-328v-291h-153v291h-328v88h328v192h-328v88h279l-426 775h170l383 -699l381 699h170z" />
    <glyph glyph-name="brokenbar" unicode="&#xa6;" 
d="M580 -205v694h88v-694h-88zM580 739v695h88v-695h-88z" />
    <glyph glyph-name="section" unicode="&#xa7;" 
d="M475 250q-32 12 -49.5 19.5t-51.5 24.5t-54.5 33t-47 42t-41.5 54t-25.5 67.5t-10.5 84.5q0 104 54.5 176t151.5 105q-139 94 -139 272q0 143 102.5 234.5t256.5 91.5q148 0 249.5 -88.5t122.5 -243.5h-92q-18 111 -92.5 178.5t-187.5 67.5q-107 0 -186.5 -66t-80.5 -174
q0 -87 48 -147.5t130 -87.5l238 -82q41 -14 72.5 -27.5t74 -41.5t70.5 -60.5t48 -84.5t20 -114q0 -105 -57 -176.5t-156 -105.5q143 -102 143 -287q0 -65 -19 -119t-58.5 -98t-110 -69t-166.5 -25q-168 0 -266.5 97t-114.5 255h92q12 -119 92 -192.5t197 -73.5q132 0 197 63
t65 162q0 91 -48.5 159t-129.5 95zM752 723l-215 72q-48 -3 -89 -15.5t-78.5 -36.5t-59.5 -67t-23 -101q0 -94 56 -149t155 -88l211 -74q48 3 89.5 15t80.5 36t61.5 67t22.5 101q0 170 -211 240z" />
    <glyph glyph-name="dieresis" unicode="&#xa8;" 
d="M303 1243v156h156v-156h-156zM786 1243v156h156v-156h-156z" />
    <glyph glyph-name="copyright" unicode="&#xa9;" 
d="M1075 510v414q0 202 -119.5 323t-332.5 121t-333 -121t-120 -323v-414q0 -202 120 -323t333 -121t332.5 121t119.5 323zM1163 924v-414q0 -242 -143 -386t-397 -144t-397.5 144.5t-143.5 385.5v414q0 241 143.5 385.5t397.5 144.5t397 -144t143 -386zM623 276
q-142 0 -228 83.5t-86 222.5v270q0 138 86.5 221.5t227.5 83.5q134 0 220 -76t93 -204h-139q-8 70 -59 105.5t-115 35.5q-69 0 -121.5 -42.5t-52.5 -123.5v-270q0 -83 52.5 -125.5t121.5 -42.5q63 0 114.5 36.5t59.5 106.5h139q-9 -129 -94 -205t-219 -76z" />
    <glyph glyph-name="ordfeminine" unicode="&#xaa;" 
d="M557 602q-114 0 -193 62t-79 180q0 48 14 91t55.5 85t106.5 61q95 29 346 47q0 17 -2 21q-4 85 -57.5 131.5t-131.5 46.5q-71 0 -122 -37t-64 -106h-137q8 74 40 129t79 85t97.5 44t106.5 14q47 0 90.5 -9.5t87.5 -33.5t76 -60t52 -93.5t20 -129.5v-512h-133v82
q-76 -98 -252 -98zM584 731q96 0 160.5 48t64.5 143v88q-142 -10 -216 -21.5t-114 -34.5q-34 -20 -47.5 -44t-13.5 -60q0 -55 42.5 -87t123.5 -32zM942 424h-657v92h657v-92z" />
    <glyph glyph-name="guillemotleft" unicode="&#xab;" 
d="M541 94l-430 430l430 430l65 -63l-366 -367l366 -366zM1001 94l-430 430l430 430l66 -63l-367 -367l367 -366z" />
    <glyph glyph-name="logicalnot" unicode="&#xac;" 
d="M217 528v93h811v-453h-92v360h-719z" />
    <glyph glyph-name="registered" unicode="&#xae;" 
d="M1163 924v-414q0 -242 -143 -386t-397 -144t-397.5 144.5t-143.5 385.5v414q0 241 143.5 385.5t397.5 144.5t397 -144t143 -386zM1075 510v414q0 202 -119.5 323t-332.5 121t-333 -121t-120 -323v-414q0 -202 120 -323t333 -121t332.5 121t119.5 323zM979 289h-156
l-213 362h-133v-362h-139v856h348q125 0 195.5 -65.5t70.5 -182.5q0 -98 -49.5 -159.5t-140.5 -80.5zM477 1006v-220h209q57 0 90 28t33 81q0 54 -33 82.5t-90 28.5h-209z" />
    <glyph glyph-name="macron" unicode="&#xaf;" 
d="M942 1270h-639v102h639v-102z" />
    <glyph glyph-name="degree" unicode="&#xb0;" 
d="M303 1124q0 132 94 226t226 94t225.5 -94t93.5 -226t-93.5 -225.5t-225.5 -93.5t-226 93.5t-94 225.5zM391 1124q0 -97 67.5 -165t164.5 -68t164 68t67 165t-67.5 165.5t-163.5 68.5q-97 0 -164.5 -68.5t-67.5 -165.5z" />
    <glyph glyph-name="plusminus" unicode="&#xb1;" 
d="M578 469v248h-361v92h361v248h92v-248h358v-92h-358v-248h-92zM1028 317h-811v93h811v-93z" />
    <glyph glyph-name="two.superior" unicode="&#xb2;" 
d="M539 1311l-93 -92q-79 76 -79 186q0 107 75.5 183.5t182.5 76.5q108 0 184 -76t76 -184q0 -63 -25 -112t-88 -115l-223 -228h336v-129h-518v129l303 312q46 47 64 78t18 65q0 55 -35.5 93t-91.5 38q-55 0 -90 -38t-35 -93t39 -94z" />
    <glyph glyph-name="three.superior" unicode="&#xb3;" 
d="M612 809q-107 0 -182.5 76.5t-75.5 183.5h133q0 -55 34.5 -93t90.5 -38t91.5 38t35.5 93t-35.5 93t-91.5 38v123h9q42 3 68 34t26 73q0 45 -29 75.5t-74 30.5q-44 0 -72 -30.5t-28 -75.5h-133q0 98 68 166.5t165 68.5t166.5 -68.5t69.5 -166.5q0 -95 -72 -164
q96 -76 96 -197q0 -107 -76.5 -183.5t-183.5 -76.5z" />
    <glyph glyph-name="acute" unicode="&#xb4;" 
d="M909 1346l-547 -150l-26 98l547 150z" />
    <glyph glyph-name="mu" unicode="&#xb5;" 
d="M623 84q123 0 205.5 85t82.5 224v664h109v-1057h-109v129q-45 -71 -125.5 -110t-162.5 -39t-163 39.5t-126 109.5v-506h-109v1434h109v-664q0 -139 83 -224t206 -85z" />
    <glyph glyph-name="mu" unicode="&#x3bc;" 
d="M623 84q123 0 205.5 85t82.5 224v664h109v-1057h-109v129q-45 -71 -125.5 -110t-162.5 -39t-163 39.5t-126 109.5v-506h-109v1434h109v-664q0 -139 83 -224t206 -85z" />
    <glyph glyph-name="paragraph" unicode="&#xb6;" 
d="M1055 1434v-1612h-88v1526h-318v-1526h-88v792h-20q-169 0 -288.5 120.5t-119.5 289.5q0 168 120 289t288 121h514z" />
    <glyph glyph-name="periodcentered" unicode="&#xb7;" 
d="M516 487v215h215v-215h-215z" />
    <glyph glyph-name="cedilla" unicode="&#xb8;" 
d="M440 -274h172v172h103v-275h-275v103z" />
    <glyph glyph-name="one.superior" unicode="&#xb9;" 
d="M463 1356l-92 90l204 207h134v-703h217v-129h-566v129h215v518z" />
    <glyph glyph-name="ordmasculine" unicode="&#xba;" 
d="M623 731q84 0 138 50.5t54 146.5v202q0 94 -54 145.5t-138 51.5q-82 0 -136.5 -51.5t-54.5 -145.5v-202q0 -95 54 -146t137 -51zM623 602q-59 0 -113 16.5t-103 52t-78.5 102t-29.5 155.5v202q0 89 29.5 155.5t78.5 102t103 52t113 16.5q60 0 114.5 -16.5t103.5 -52
t78 -102t29 -155.5v-202q0 -89 -29 -155.5t-78 -102t-103.5 -52t-114.5 -16.5zM948 424h-649v92h649v-92z" />
    <glyph glyph-name="guillemotright" unicode="&#xbb;" 
d="M674 524l-430 -430l-66 64l367 366l-367 367l66 63zM1135 524l-430 -430l-66 64l367 366l-367 367l66 63z" />
    <glyph glyph-name="onequarter" unicode="&#xbc;" 
d="M145 307l889 891l66 -65l-889 -891zM944 0h86v129h55v82h-55v108h-86v-108h-133l203 278l-68 50l-237 -328v-82h235v-129zM231 1241l-59 59l133 134h86v-453h137v-82h-362v82h139v336z" />
    <glyph glyph-name="onehalf" unicode="&#xbd;" 
d="M145 307l889 891l66 -65l-889 -891zM782 256l60 59q-25 25 -25 62q0 34 22.5 58t57.5 24q36 0 58 -23.5t22 -58.5q0 -43 -49 -92l-197 -203v-82h332v82h-215l143 147q41 42 56.5 73.5t15.5 74.5q0 69 -48.5 117.5t-117.5 48.5t-117.5 -48.5t-48.5 -117.5q0 -73 51 -121z
M231 1241l-59 59l133 134h86v-453h137v-82h-362v82h139v336z" />
    <glyph glyph-name="threequarters" unicode="&#xbe;" 
d="M145 307l889 891l66 -65l-889 -891zM346 1143v78h6q26 1 43 21.5t17 47.5q0 28 -18.5 48t-47.5 20t-47 -20t-18 -48h-86q0 63 44 107.5t107 44.5t107.5 -44.5t44.5 -107.5q0 -61 -45 -106q59 -49 59 -127q0 -69 -48.5 -117.5t-117.5 -48.5t-117.5 48.5t-48.5 117.5h86
q0 -34 22.5 -58t57.5 -24t57.5 24t22.5 58t-21 58.5t-53 27.5h-6zM944 0h86v129h55v82h-55v108h-86v-108h-133l203 278l-68 50l-237 -328v-82h235v-129z" />
    <glyph glyph-name="questiondown" unicode="&#xbf;" 
d="M719 281h-78q-108 0 -184 -78t-76 -187t76 -186.5t184 -77.5t184 77.5t76 186.5h154q0 -170 -122 -291.5t-292 -121.5t-292 121.5t-122 291.5q0 150 96.5 265t241.5 141v164h154v-305zM535 842v215h215v-215h-215z" />
    <glyph glyph-name="Agrave" unicode="&#xc0;" 
d="M1014 0l-131 403h-521l-131 -403h-159l460 1434h181l461 -1434h-160zM836 549l-213 665l-213 -665h426zM883 1511l-547 150l26 98l547 -149z" />
    <glyph glyph-name="Aacute" unicode="&#xc1;" 
d="M1014 0l-131 403h-521l-131 -403h-159l460 1434h181l461 -1434h-160zM836 549l-213 665l-213 -665h426zM909 1661l-547 -150l-26 99l547 149z" />
    <glyph glyph-name="Acircumflex" unicode="&#xc2;" 
d="M1014 0l-131 403h-521l-131 -403h-159l460 1434h181l461 -1434h-160zM836 549l-213 665l-213 -665h426zM911 1511l-288 138l-289 -138l-43 91l332 157l331 -157z" />
    <glyph glyph-name="Atilde" unicode="&#xc3;" 
d="M1014 0l-131 403h-521l-131 -403h-159l460 1434h181l461 -1434h-160zM836 549l-213 665l-213 -665h426zM973 1665l-273 -145l-161 116l-220 -116l-47 88l273 145l162 -117l219 117z" />
    <glyph glyph-name="Adieresis" unicode="&#xc4;" 
d="M1014 0l-131 403h-521l-131 -403h-159l460 1434h181l461 -1434h-160zM836 549l-213 665l-213 -665h426zM303 1559v155h156v-155h-156zM786 1559v155h156v-155h-156z" />
    <glyph glyph-name="Aring" unicode="&#xc5;" 
d="M389 1567q0 97 68.5 166t165.5 69t166 -69t69 -166q0 -65 -34 -120t-89 -85l439 -1362h-160l-131 403h-521l-131 -403h-159l438 1362q-55 30 -88 85t-33 120zM836 549l-213 665l-213 -665h426zM489 1567q0 -55 39 -94t95 -39t95.5 39t39.5 94t-40 95t-95 40t-94.5 -39.5
t-39.5 -95.5z" />
    <glyph glyph-name="AE" unicode="&#xc6;" 
d="M748 647v-491h337v-156h-495v403h-228l-131 -403h-159l460 1434h553v-156h-337v-475h194v-156h-194zM410 549h180v563z" />
    <glyph glyph-name="Ccedilla" unicode="&#xc7;" 
d="M631 1454q198 0 323.5 -119.5t137.5 -324.5h-158q-12 138 -95.5 213t-207.5 75q-133 0 -219 -86t-86 -243v-504q0 -157 86 -243.5t219 -86.5q124 0 207.5 75.5t95.5 213.5h158q-12 -205 -137.5 -324.5t-323.5 -119.5q-208 0 -335.5 131t-127.5 354v504q0 223 127.5 354
t335.5 131zM406 -274h172v172h102v-275h-274v103z" />
    <glyph glyph-name="Egrave" unicode="&#xc8;" 
d="M393 647v-491h658v-156h-815v1434h815v-156h-658v-475h514v-156h-514zM903 1511l-547 150l27 98l547 -149z" />
    <glyph glyph-name="Eacute" unicode="&#xc9;" 
d="M393 647v-491h658v-156h-815v1434h815v-156h-658v-475h514v-156h-514zM930 1661l-547 -150l-27 99l547 149z" />
    <glyph glyph-name="Ecircumflex" unicode="&#xca;" 
d="M393 647v-491h658v-156h-815v1434h815v-156h-658v-475h514v-156h-514zM932 1511l-289 138l-289 -138l-43 91l332 157l332 -157z" />
    <glyph glyph-name="Edieresis" unicode="&#xcb;" 
d="M393 647v-491h658v-156h-815v1434h815v-156h-658v-475h514v-156h-514zM324 1559v155h155v-155h-155zM807 1559v155h156v-155h-156z" />
    <glyph glyph-name="Igrave" unicode="&#xcc;" 
d="M1032 1278h-330v-1122h330v-156h-817v156h330v1122h-330v156h817v-156zM883 1511l-547 150l26 98l547 -149z" />
    <glyph glyph-name="Iacute" unicode="&#xcd;" 
d="M1032 1278h-330v-1122h330v-156h-817v156h330v1122h-330v156h817v-156zM909 1661l-547 -150l-26 99l547 149z" />
    <glyph glyph-name="Icircumflex" unicode="&#xce;" 
d="M1032 1278h-330v-1122h330v-156h-817v156h330v1122h-330v156h817v-156zM911 1511l-288 138l-289 -138l-43 91l332 157l331 -157z" />
    <glyph glyph-name="Idieresis" unicode="&#xcf;" 
d="M1032 1278h-330v-1122h330v-156h-817v156h330v1122h-330v156h817v-156zM303 1559v155h156v-155h-156zM786 1559v155h156v-155h-156z" />
    <glyph glyph-name="Eth" unicode="&#xd0;" 
d="M190 1434h463q208 0 335.5 -131.5t127.5 -354.5v-463q0 -223 -127.5 -354t-335.5 -131h-463v672h-143v92h143v670zM653 1278h-305v-514h305v-92h-305v-516h305q133 0 219 86t86 243v463q0 157 -85.5 242.5t-219.5 87.5z" />
    <glyph glyph-name="Ntilde" unicode="&#xd1;" 
d="M1085 1434v-1434h-157l-611 1128v-1128h-157v1434h157l611 -1129v1129h157zM973 1665l-273 -145l-161 116l-220 -116l-47 88l273 145l162 -117l219 117z" />
    <glyph glyph-name="Ograve" unicode="&#xd2;" 
d="M928 465v504q0 157 -86 243t-219 86t-219.5 -86t-86.5 -243v-504q0 -157 86.5 -243.5t219.5 -86.5t219 86.5t86 243.5zM1085 969v-504q0 -223 -127 -354t-335 -131t-335.5 131t-127.5 354v504q0 223 127.5 354t335.5 131t335 -131t127 -354zM883 1511l-547 150l26 98
l547 -149z" />
    <glyph glyph-name="Oacute" unicode="&#xd3;" 
d="M928 465v504q0 157 -86 243t-219 86t-219.5 -86t-86.5 -243v-504q0 -157 86.5 -243.5t219.5 -86.5t219 86.5t86 243.5zM1085 969v-504q0 -223 -127 -354t-335 -131t-335.5 131t-127.5 354v504q0 223 127.5 354t335.5 131t335 -131t127 -354zM909 1661l-547 -150l-26 99
l547 149z" />
    <glyph glyph-name="Ocircumflex" unicode="&#xd4;" 
d="M928 465v504q0 157 -86 243t-219 86t-219.5 -86t-86.5 -243v-504q0 -157 86.5 -243.5t219.5 -86.5t219 86.5t86 243.5zM1085 969v-504q0 -223 -127 -354t-335 -131t-335.5 131t-127.5 354v504q0 223 127.5 354t335.5 131t335 -131t127 -354zM911 1511l-288 138l-289 -138
l-43 91l332 157l331 -157z" />
    <glyph glyph-name="Otilde" unicode="&#xd5;" 
d="M928 465v504q0 157 -86 243t-219 86t-219.5 -86t-86.5 -243v-504q0 -157 86.5 -243.5t219.5 -86.5t219 86.5t86 243.5zM1085 969v-504q0 -223 -127 -354t-335 -131t-335.5 131t-127.5 354v504q0 223 127.5 354t335.5 131t335 -131t127 -354zM973 1665l-273 -145l-161 116
l-220 -116l-47 88l273 145l162 -117l219 117z" />
    <glyph glyph-name="Odieresis" unicode="&#xd6;" 
d="M928 465v504q0 157 -86 243t-219 86t-219.5 -86t-86.5 -243v-504q0 -157 86.5 -243.5t219.5 -86.5t219 86.5t86 243.5zM1085 969v-504q0 -223 -127 -354t-335 -131t-335.5 131t-127.5 354v504q0 223 127.5 354t335.5 131t335 -131t127 -354zM303 1559v155h156v-155h-156z
M786 1559v155h156v-155h-156z" />
    <glyph glyph-name="multiply" unicode="&#xd7;" 
d="M975 858l-287 -285l287 -284l-66 -66l-286 285l-285 -285l-66 66l285 284l-285 285l66 66l285 -285l286 285z" />
    <glyph glyph-name="Oslash" unicode="&#xd8;" 
d="M1085 969v-504q0 -223 -127 -354t-335 -131q-197 0 -322 116l-96 -164l-76 48l113 188q-82 121 -82 297v504q0 223 127.5 354t335.5 131q195 0 319 -115l96 162l76 -47l-113 -186q84 -127 84 -299zM928 465v504q0 70 -23 137l-518 -868q83 -103 236 -103q133 0 219 86.5
t86 243.5zM317 465q0 -77 21 -135l518 866q-83 102 -233 102q-133 0 -219.5 -86t-86.5 -243v-504z" />
    <glyph glyph-name="Ugrave" unicode="&#xd9;" 
d="M160 465v969h157v-969q0 -157 86.5 -243.5t219.5 -86.5t219 86.5t86 243.5v969h157v-969q0 -223 -127 -354t-335 -131t-335.5 131t-127.5 354zM883 1511l-547 150l26 98l547 -149z" />
    <glyph glyph-name="Uacute" unicode="&#xda;" 
d="M160 465v969h157v-969q0 -157 86.5 -243.5t219.5 -86.5t219 86.5t86 243.5v969h157v-969q0 -223 -127 -354t-335 -131t-335.5 131t-127.5 354zM909 1661l-547 -150l-26 99l547 149z" />
    <glyph glyph-name="Ucircumflex" unicode="&#xdb;" 
d="M160 465v969h157v-969q0 -157 86.5 -243.5t219.5 -86.5t219 86.5t86 243.5v969h157v-969q0 -223 -127 -354t-335 -131t-335.5 131t-127.5 354zM911 1511l-288 138l-289 -138l-43 91l332 157l331 -157z" />
    <glyph glyph-name="Udieresis" unicode="&#xdc;" 
d="M160 465v969h157v-969q0 -157 86.5 -243.5t219.5 -86.5t219 86.5t86 243.5v969h157v-969q0 -223 -127 -354t-335 -131t-335.5 131t-127.5 354zM303 1559v155h156v-155h-156zM786 1559v155h156v-155h-156z" />
    <glyph glyph-name="Yacute" unicode="&#xdd;" 
d="M702 0v569l474 865h-172l-379 -695l-381 695h-172l473 -863v-571h157zM909 1661l-547 -150l-26 99l547 149z" />
    <glyph glyph-name="Thorn" unicode="&#xde;" 
d="M1135 717q0 -98 -26 -176t-80.5 -137.5t-145 -92t-211.5 -32.5h-305v-279h-158v1434h158v-279h305q121 0 211.5 -32.5t145 -92t80.5 -137.5t26 -176zM973 717q0 127 -72.5 204.5t-228.5 77.5h-305v-565h305q156 0 228.5 78t72.5 205z" />
    <glyph glyph-name="germandbls" unicode="&#xdf;" 
d="M940 911l-240 -311q154 -50 251.5 -182.5t97.5 -298.5q0 -209 -148.5 -357.5t-357.5 -148.5v147q146 0 249 106t103 253t-103 252.5t-249 105.5v148l221 284h-352v-909h-154v1182q0 138 54 195t198 57h33v-148h-33q-55 0 -76.5 -20.5t-21.5 -71.5v-137h528v-146z" />
    <glyph glyph-name="agrave" unicode="&#xe0;" 
d="M612 938q-95 0 -165.5 -53t-88.5 -152h-157q10 95 49 165.5t98 110t125 58t139 18.5q62 0 119 -12.5t111.5 -43.5t94.5 -77t64.5 -118t24.5 -162v-672h-154v109q-100 -129 -329 -129q-69 0 -130.5 19t-111.5 56t-79 98t-29 140q0 44 10.5 85.5t34.5 85t71 78.5t113 54
q82 24 185 36t265 23v19q0 126 -75 195t-185 69zM872 381v137q-190 -13 -286.5 -27.5t-147.5 -41.5q-54 -30 -73 -65.5t-19 -86.5q0 -76 58.5 -123t170.5 -47q130 0 213.5 67t83.5 187zM879 1196l-547 150l26 98l547 -150z" />
    <glyph glyph-name="aacute" unicode="&#xe1;" 
d="M612 938q-95 0 -165.5 -53t-88.5 -152h-157q10 95 49 165.5t98 110t125 58t139 18.5q62 0 119 -12.5t111.5 -43.5t94.5 -77t64.5 -118t24.5 -162v-672h-154v109q-100 -129 -329 -129q-69 0 -130.5 19t-111.5 56t-79 98t-29 140q0 44 10.5 85.5t34.5 85t71 78.5t113 54
q82 24 185 36t265 23v19q0 126 -75 195t-185 69zM872 381v137q-190 -13 -286.5 -27.5t-147.5 -41.5q-54 -30 -73 -65.5t-19 -86.5q0 -76 58.5 -123t170.5 -47q130 0 213.5 67t83.5 187zM905 1346l-547 -150l-26 98l547 150z" />
    <glyph glyph-name="acircumflex" unicode="&#xe2;" 
d="M612 938q-95 0 -165.5 -53t-88.5 -152h-157q10 95 49 165.5t98 110t125 58t139 18.5q62 0 119 -12.5t111.5 -43.5t94.5 -77t64.5 -118t24.5 -162v-672h-154v109q-100 -129 -329 -129q-69 0 -130.5 19t-111.5 56t-79 98t-29 140q0 44 10.5 85.5t34.5 85t71 78.5t113 54
q82 24 185 36t265 23v19q0 126 -75 195t-185 69zM872 381v137q-190 -13 -286.5 -27.5t-147.5 -41.5q-54 -30 -73 -65.5t-19 -86.5q0 -76 58.5 -123t170.5 -47q130 0 213.5 67t83.5 187zM907 1196l-289 137l-288 -137l-43 90l331 158l332 -158z" />
    <glyph glyph-name="atilde" unicode="&#xe3;" 
d="M612 938q-95 0 -165.5 -53t-88.5 -152h-157q10 95 49 165.5t98 110t125 58t139 18.5q62 0 119 -12.5t111.5 -43.5t94.5 -77t64.5 -118t24.5 -162v-672h-154v109q-100 -129 -329 -129q-69 0 -130.5 19t-111.5 56t-79 98t-29 140q0 44 10.5 85.5t34.5 85t71 78.5t113 54
q82 24 185 36t265 23v19q0 126 -75 195t-185 69zM872 381v137q-190 -13 -286.5 -27.5t-147.5 -41.5q-54 -30 -73 -65.5t-19 -86.5q0 -76 58.5 -123t170.5 -47q130 0 213.5 67t83.5 187zM969 1350l-273 -146l-161 117l-220 -117l-47 88l273 146l161 -117l220 117z" />
    <glyph glyph-name="adieresis" unicode="&#xe4;" 
d="M612 938q-95 0 -165.5 -53t-88.5 -152h-157q10 95 49 165.5t98 110t125 58t139 18.5q62 0 119 -12.5t111.5 -43.5t94.5 -77t64.5 -118t24.5 -162v-672h-154v109q-100 -129 -329 -129q-69 0 -130.5 19t-111.5 56t-79 98t-29 140q0 44 10.5 85.5t34.5 85t71 78.5t113 54
q82 24 185 36t265 23v19q0 126 -75 195t-185 69zM872 381v137q-190 -13 -286.5 -27.5t-147.5 -41.5q-54 -30 -73 -65.5t-19 -86.5q0 -76 58.5 -123t170.5 -47q130 0 213.5 67t83.5 187zM299 1243v156h156v-156h-156zM782 1243v156h156v-156h-156z" />
    <glyph glyph-name="aring" unicode="&#xe5;" 
d="M379 1219q0 97 68 166t165 69t166.5 -69t69.5 -166q0 -94 -68 -162q111 -40 178.5 -134.5t67.5 -250.5v-672h-154v109q-100 -129 -329 -129q-69 0 -130.5 19t-111.5 56t-79 98t-29 140q0 44 10.5 85.5t34.5 85t71 78.5t113 54q82 24 185 36t265 23v19q0 126 -75 195
t-185 69q-95 0 -165.5 -53t-88.5 -152h-157q13 129 78 209t163 115q-63 69 -63 162zM872 381v137q-190 -13 -286.5 -27.5t-147.5 -41.5q-54 -30 -73 -65.5t-19 -86.5q0 -76 58.5 -123t170.5 -47q130 0 213.5 67t83.5 187zM479 1219q0 -56 39 -95t94 -39q56 0 96 39.5
t40 94.5t-40 95t-96 40q-55 0 -94 -39.5t-39 -95.5z" />
    <glyph glyph-name="ae" unicode="&#xe6;" 
d="M545 635v153q0 70 -38 110t-106 40t-105.5 -40t-37.5 -110v-55h-154v55q0 138 79.5 217.5t217.5 79.5q148 0 220 -102q75 102 221 102q138 0 217.5 -79.5t79.5 -217.5v-294h-441v-218q0 -70 38 -109.5t106 -39.5t105.5 39.5t37.5 109.5v56h154v-56q0 -138 -79.5 -217
t-217.5 -79q-146 0 -221 102q-72 -102 -220 -102q-138 0 -217.5 79t-79.5 217v62q0 138 79.5 217.5t217.5 79.5h144zM545 494h-144q-68 0 -105.5 -42.5t-37.5 -113.5v-62q0 -70 37.5 -109.5t105.5 -39.5t106 39.5t38 109.5v218zM985 635v153q0 70 -37.5 110t-105.5 40
t-106 -40t-38 -110v-153h287z" />
    <glyph glyph-name="ccedilla" unicode="&#xe7;" 
d="M629 1085q74 0 140.5 -19t125.5 -59.5t98 -113t47 -170.5h-155q-14 103 -86.5 159t-169.5 56q-110 0 -185 -69t-75 -195v-283q0 -126 75 -195t185 -69q97 0 169.5 56t86.5 159h155q-8 -98 -47 -170.5t-98 -113t-125.5 -59.5t-140.5 -19q-62 0 -119 12.5t-111.5 43
t-94.5 76.5t-64.5 118t-24.5 163v279q0 90 24.5 162t64.5 118t94.5 77t111.5 43.5t119 12.5zM403 -274h172v172h103v-275h-275v103z" />
    <glyph glyph-name="egrave" unicode="&#xe8;" 
d="M625 127q95 0 165.5 53t88.5 152h157q-10 -95 -49 -165.5t-98 -110t-125 -58t-139 -18.5q-62 0 -119 12.5t-111.5 43.5t-94.5 77t-64.5 118t-24.5 162v279q0 90 24.5 162t64.5 118t94.5 77t111.5 43.5t119 12.5t119 -12.5t111.5 -43.5t94 -77t64 -118t24.5 -162v-178
h-673v-103q0 -126 75 -195t185 -69zM885 635v39q0 126 -75 195t-185 69t-185 -69t-75 -195v-39h520zM885 1196l-547 150l27 98l546 -150z" />
    <glyph glyph-name="eacute" unicode="&#xe9;" 
d="M625 127q95 0 165.5 53t88.5 152h157q-10 -95 -49 -165.5t-98 -110t-125 -58t-139 -18.5q-62 0 -119 12.5t-111.5 43.5t-94.5 77t-64.5 118t-24.5 162v279q0 90 24.5 162t64.5 118t94.5 77t111.5 43.5t119 12.5t119 -12.5t111.5 -43.5t94 -77t64 -118t24.5 -162v-178
h-673v-103q0 -126 75 -195t185 -69zM885 635v39q0 126 -75 195t-185 69t-185 -69t-75 -195v-39h520zM911 1346l-546 -150l-27 98l547 150z" />
    <glyph glyph-name="ecircumflex" unicode="&#xea;" 
d="M625 127q95 0 165.5 53t88.5 152h157q-10 -95 -49 -165.5t-98 -110t-125 -58t-139 -18.5q-62 0 -119 12.5t-111.5 43.5t-94.5 77t-64.5 118t-24.5 162v279q0 90 24.5 162t64.5 118t94.5 77t111.5 43.5t119 12.5t119 -12.5t111.5 -43.5t94 -77t64 -118t24.5 -162v-178
h-673v-103q0 -126 75 -195t185 -69zM885 635v39q0 126 -75 195t-185 69t-185 -69t-75 -195v-39h520zM913 1196l-288 137l-289 -137l-43 90l332 158l331 -158z" />
    <glyph glyph-name="edieresis" unicode="&#xeb;" 
d="M625 127q95 0 165.5 53t88.5 152h157q-10 -95 -49 -165.5t-98 -110t-125 -58t-139 -18.5q-62 0 -119 12.5t-111.5 43.5t-94.5 77t-64.5 118t-24.5 162v279q0 90 24.5 162t64.5 118t94.5 77t111.5 43.5t119 12.5t119 -12.5t111.5 -43.5t94 -77t64 -118t24.5 -162v-178
h-673v-103q0 -126 75 -195t185 -69zM885 635v39q0 126 -75 195t-185 69t-185 -69t-75 -195v-39h520zM305 1243v156h156v-156h-156zM788 1243v156h156v-156h-156z" />
    <glyph glyph-name="igrave" unicode="&#xec;" 
d="M283 909v148h424v-910h372v-147h-899v147h373v762h-270zM889 1196l-547 150l27 98l546 -150z" />
    <glyph glyph-name="iacute" unicode="&#xed;" 
d="M283 909v148h424v-910h372v-147h-899v147h373v762h-270zM915 1346l-546 -150l-27 98l547 150z" />
    <glyph glyph-name="icircumflex" unicode="&#xee;" 
d="M283 909v148h424v-910h372v-147h-899v147h373v762h-270zM918 1196l-289 137l-289 -137l-43 90l332 158l332 -158z" />
    <glyph glyph-name="idieresis" unicode="&#xef;" 
d="M283 909v148h424v-910h372v-147h-899v147h373v762h-270zM309 1243v156h156v-156h-156zM793 1243v156h155v-156h-155z" />
    <glyph glyph-name="eth" unicode="&#xf0;" 
d="M868 1198h-100l197 -268q71 -96 71 -258v-279q0 -90 -24.5 -162t-64 -118t-94 -77t-111.5 -43.5t-119 -12.5t-119 12.5t-111.5 43.5t-94.5 77t-64.5 118t-24.5 162v279q0 90 24.5 162t64.5 118t94.5 77t111.5 43.5t119 12.5q7 0 22.5 -1t22.5 -1l-84 115h-258v88h194
l-106 148h182l106 -148h166v-88zM883 391v283q0 126 -75 195t-185 69t-185.5 -69t-75.5 -195v-283q0 -126 75.5 -195t185.5 -69t185 69t75 195z" />
    <glyph glyph-name="ntilde" unicode="&#xf1;" 
d="M627 1085q62 0 119 -12.5t111.5 -43.5t94 -77t64 -118t24.5 -162v-672h-153v674q0 126 -75 195t-185 69t-185 -69t-75 -195v-674h-154v1057h154v-101q38 62 110.5 95.5t149.5 33.5zM977 1350l-272 -146l-162 117l-219 -117l-48 88l273 146l162 -117l219 117z" />
    <glyph glyph-name="ograve" unicode="&#xf2;" 
d="M883 391v283q0 126 -75 195t-185 69t-185.5 -69t-75.5 -195v-283q0 -126 75.5 -195t185.5 -69t185 69t75 195zM1036 672v-279q0 -90 -24.5 -162t-64 -118t-94 -77t-111.5 -43.5t-119 -12.5t-119 12.5t-111.5 43.5t-94.5 77t-64.5 118t-24.5 162v279q0 90 24.5 162
t64.5 118t94.5 77t111.5 43.5t119 12.5t119 -12.5t111.5 -43.5t94 -77t64 -118t24.5 -162zM883 1196l-547 150l26 98l547 -150z" />
    <glyph glyph-name="oacute" unicode="&#xf3;" 
d="M883 391v283q0 126 -75 195t-185 69t-185.5 -69t-75.5 -195v-283q0 -126 75.5 -195t185.5 -69t185 69t75 195zM1036 672v-279q0 -90 -24.5 -162t-64 -118t-94 -77t-111.5 -43.5t-119 -12.5t-119 12.5t-111.5 43.5t-94.5 77t-64.5 118t-24.5 162v279q0 90 24.5 162
t64.5 118t94.5 77t111.5 43.5t119 12.5t119 -12.5t111.5 -43.5t94 -77t64 -118t24.5 -162zM909 1346l-547 -150l-26 98l547 150z" />
    <glyph glyph-name="ocircumflex" unicode="&#xf4;" 
d="M1036 672v-279q0 -90 -24.5 -162t-64 -118t-94 -77t-111.5 -43.5t-119 -12.5t-119 12.5t-111.5 43.5t-94.5 77t-64.5 118t-24.5 162v279q0 90 24.5 162t64.5 118t94.5 77t111.5 43.5t119 12.5t119 -12.5t111.5 -43.5t94 -77t64 -118t24.5 -162zM883 391v283
q0 126 -75 195t-185 69t-185.5 -69t-75.5 -195v-283q0 -126 75.5 -195t185.5 -69t185 69t75 195zM911 1196l-288 137l-289 -137l-43 90l332 158l331 -158z" />
    <glyph glyph-name="otilde" unicode="&#xf5;" 
d="M1036 672v-279q0 -90 -24.5 -162t-64 -118t-94 -77t-111.5 -43.5t-119 -12.5t-119 12.5t-111.5 43.5t-94.5 77t-64.5 118t-24.5 162v279q0 90 24.5 162t64.5 118t94.5 77t111.5 43.5t119 12.5t119 -12.5t111.5 -43.5t94 -77t64 -118t24.5 -162zM883 391v283
q0 126 -75 195t-185 69t-185.5 -69t-75.5 -195v-283q0 -126 75.5 -195t185.5 -69t185 69t75 195zM973 1350l-273 -146l-161 117l-220 -117l-47 88l273 146l162 -117l219 117z" />
    <glyph glyph-name="odieresis" unicode="&#xf6;" 
d="M883 391v283q0 126 -75 195t-185 69t-185.5 -69t-75.5 -195v-283q0 -126 75.5 -195t185.5 -69t185 69t75 195zM1036 672v-279q0 -90 -24.5 -162t-64 -118t-94 -77t-111.5 -43.5t-119 -12.5t-119 12.5t-111.5 43.5t-94.5 77t-64.5 118t-24.5 162v279q0 90 24.5 162
t64.5 118t94.5 77t111.5 43.5t119 12.5t119 -12.5t111.5 -43.5t94 -77t64 -118t24.5 -162zM303 1243v156h156v-156h-156zM786 1243v156h156v-156h-156z" />
    <glyph glyph-name="divide" unicode="&#xf7;" 
d="M537 981q0 35 25.5 60.5t60.5 25.5t60.5 -25.5t25.5 -60.5t-25.5 -60.5t-60.5 -25.5t-60.5 25.5t-25.5 60.5zM537 168q0 35 25.5 60.5t60.5 25.5t60.5 -25.5t25.5 -60.5t-25.5 -60.5t-60.5 -25.5t-60.5 25.5t-25.5 60.5zM1028 528h-811v93h811v-93z" />
    <glyph glyph-name="oslash" unicode="&#xf8;" 
d="M1036 672v-279q0 -90 -24.5 -162t-64 -118t-94 -77t-111.5 -43.5t-119 -12.5q-140 0 -242 61l-66 -109l-75 48l71 118q-102 110 -102 295v279q0 90 24.5 162t64.5 118t94.5 77t111.5 43.5t119 12.5q137 0 239 -61l66 109l76 -48l-72 -118q104 -109 104 -295zM883 391v283
q0 84 -37 147l-385 -645q67 -49 162 -49q110 0 185 69t75 195zM362 391q0 -87 37 -145l383 643q-67 49 -159 49q-110 0 -185.5 -69t-75.5 -195v-283z" />
    <glyph glyph-name="ugrave" unicode="&#xf9;" 
d="M618 -20q-56 0 -109.5 12t-108.5 41.5t-96 74.5t-67 117t-26 162v670h154v-660q0 -68 21.5 -121t58 -85t81 -48t92.5 -16q104 0 179 70t75 194v666h154v-1057h-154v109q-38 -60 -110 -94.5t-144 -34.5zM879 1196l-547 150l26 98l547 -150z" />
    <glyph glyph-name="uacute" unicode="&#xfa;" 
d="M618 -20q-56 0 -109.5 12t-108.5 41.5t-96 74.5t-67 117t-26 162v670h154v-660q0 -68 21.5 -121t58 -85t81 -48t92.5 -16q104 0 179 70t75 194v666h154v-1057h-154v109q-38 -60 -110 -94.5t-144 -34.5zM905 1346l-547 -150l-26 98l547 150z" />
    <glyph glyph-name="ucircumflex" unicode="&#xfb;" 
d="M618 -20q-56 0 -109.5 12t-108.5 41.5t-96 74.5t-67 117t-26 162v670h154v-660q0 -68 21.5 -121t58 -85t81 -48t92.5 -16q104 0 179 70t75 194v666h154v-1057h-154v109q-38 -60 -110 -94.5t-144 -34.5zM907 1196l-289 137l-288 -137l-43 90l331 158l332 -158z" />
    <glyph glyph-name="udieresis" unicode="&#xfc;" 
d="M618 -20q-56 0 -109.5 12t-108.5 41.5t-96 74.5t-67 117t-26 162v670h154v-660q0 -68 21.5 -121t58 -85t81 -48t92.5 -16q104 0 179 70t75 194v666h154v-1057h-154v109q-38 -60 -110 -94.5t-144 -34.5zM299 1243v156h156v-156h-156zM782 1243v156h156v-156h-156z" />
    <glyph glyph-name="yacute" unicode="&#xfd;" 
d="M1090 1057l-480 -1325q-21 -60 -75.5 -83.5t-157.5 -25.5h-92v148h110q46 0 64 14.5t28 46.5l56 152l-387 1073h163l304 -858l303 858h164zM909 1346l-547 -150l-26 98l547 150z" />
    <glyph glyph-name="thorn" unicode="&#xfe;" 
d="M631 -20q-77 0 -149.5 33.5t-110.5 95.5v-486h-154v1811h154v-478q38 62 110.5 95.5t149.5 33.5q62 0 119 -12.5t111.5 -43.5t94 -77t64 -118t24.5 -162v-279q0 -90 -24.5 -162t-64 -118t-94 -77t-111.5 -43.5t-119 -12.5zM891 391v283q0 126 -75 195t-185 69t-185 -69
t-75 -195v-283q0 -126 75 -195t185 -69t185 69t75 195z" />
    <glyph glyph-name="ydieresis" unicode="&#xff;" 
d="M1090 1057l-480 -1325q-21 -60 -75.5 -83.5t-157.5 -25.5h-92v148h110q46 0 64 14.5t28 46.5l56 152l-387 1073h163l304 -858l303 858h164zM303 1243v156h156v-156h-156zM786 1243v156h156v-156h-156z" />
    <glyph glyph-name="Amacron" unicode="&#x100;" 
d="M1014 0l-131 403h-521l-131 -403h-159l460 1434h181l461 -1434h-160zM836 549l-213 665l-213 -665h426zM942 1585h-639v103h639v-103z" />
    <glyph glyph-name="amacron" unicode="&#x101;" 
d="M612 938q-95 0 -165.5 -53t-88.5 -152h-157q10 95 49 165.5t98 110t125 58t139 18.5q62 0 119 -12.5t111.5 -43.5t94.5 -77t64.5 -118t24.5 -162v-672h-154v109q-100 -129 -329 -129q-69 0 -130.5 19t-111.5 56t-79 98t-29 140q0 44 10.5 85.5t34.5 85t71 78.5t113 54
q82 24 185 36t265 23v19q0 126 -75 195t-185 69zM872 381v137q-190 -13 -286.5 -27.5t-147.5 -41.5q-54 -30 -73 -65.5t-19 -86.5q0 -76 58.5 -123t170.5 -47q130 0 213.5 67t83.5 187zM938 1270h-639v102h639v-102z" />
    <glyph glyph-name="Abreve" unicode="&#x102;" 
d="M1014 0l-131 403h-521l-131 -403h-159l460 1434h181l461 -1434h-160zM836 549l-213 665l-213 -665h426zM684 1522h-123q-94 0 -160.5 66.5t-66.5 160.5h100q0 -54 36.5 -90.5t90.5 -36.5h123q54 0 90.5 36.5t36.5 90.5h100q0 -94 -66.5 -160.5t-160.5 -66.5z" />
    <glyph glyph-name="abreve" unicode="&#x103;" 
d="M612 938q-95 0 -165.5 -53t-88.5 -152h-157q10 95 49 165.5t98 110t125 58t139 18.5q62 0 119 -12.5t111.5 -43.5t94.5 -77t64.5 -118t24.5 -162v-672h-154v109q-100 -129 -329 -129q-69 0 -130.5 19t-111.5 56t-79 98t-29 140q0 44 10.5 85.5t34.5 85t71 78.5t113 54
q82 24 185 36t265 23v19q0 126 -75 195t-185 69zM872 381v137q-190 -13 -286.5 -27.5t-147.5 -41.5q-54 -30 -73 -65.5t-19 -86.5q0 -76 58.5 -123t170.5 -47q130 0 213.5 67t83.5 187zM680 1206h-123q-94 0 -160.5 67t-66.5 161h100q0 -54 36.5 -90.5t90.5 -36.5h123
q54 0 90.5 36.5t36.5 90.5h100q0 -94 -66.5 -161t-160.5 -67z" />
    <glyph glyph-name="Aogonek" unicode="&#x104;" 
d="M1014 0l-131 403h-521l-131 -403h-159l460 1434h181l461 -1434q-72 -28 -118 -78t-46 -104q0 -47 28.5 -76t85.5 -29q26 0 50 6v-102q-20 -4 -62 -4q-95 0 -149 58.5t-54 133.5q0 135 105 195zM836 549l-213 665l-213 -665h426z" />
    <glyph glyph-name="aogonek" unicode="&#x105;" 
d="M1026 672v-672q-72 -28 -118 -78t-46 -104q0 -47 29 -76t86 -29q25 0 49 6v-102q-20 -4 -61 -4q-95 0 -149 58.5t-54 133.5q0 138 110 195v109q-100 -129 -329 -129q-69 0 -130.5 19t-111.5 56t-79 98t-29 140q0 44 10.5 85.5t34.5 85t71 78.5t113 54q82 24 185 36
t265 23v19q0 126 -75 195t-185 69q-95 0 -165.5 -53t-88.5 -152h-157q10 95 49 165.5t98 110t125 58t139 18.5q62 0 119 -12.5t111.5 -43.5t94.5 -77t64.5 -118t24.5 -162zM872 381v137q-190 -13 -286.5 -27.5t-147.5 -41.5q-54 -30 -73 -65.5t-19 -86.5q0 -76 58.5 -123
t170.5 -47q130 0 213.5 67t83.5 187z" />
    <glyph glyph-name="Cacute" unicode="&#x106;" 
d="M631 1454q198 0 323.5 -119.5t137.5 -324.5h-158q-12 138 -95.5 213t-207.5 75q-133 0 -219 -86t-86 -243v-504q0 -157 86 -243.5t219 -86.5q124 0 207.5 75.5t95.5 213.5h158q-12 -205 -137.5 -324.5t-323.5 -119.5q-208 0 -335.5 131t-127.5 354v504q0 223 127.5 354
t335.5 131zM915 1661l-546 -150l-27 99l547 149z" />
    <glyph glyph-name="cacute" unicode="&#x107;" 
d="M629 1085q74 0 140.5 -19t125.5 -59.5t98 -113t47 -170.5h-155q-14 103 -86.5 159t-169.5 56q-110 0 -185 -69t-75 -195v-283q0 -126 75 -195t185 -69q97 0 169.5 56t86.5 159h155q-8 -98 -47 -170.5t-98 -113t-125.5 -59.5t-140.5 -19q-62 0 -119 12.5t-111.5 43
t-94.5 76.5t-64.5 118t-24.5 163v279q0 90 24.5 162t64.5 118t94.5 77t111.5 43.5t119 12.5zM913 1346l-546 -150l-27 98l547 150z" />
    <glyph glyph-name="Ccircumflex" unicode="&#x108;" 
d="M631 1454q198 0 323.5 -119.5t137.5 -324.5h-158q-12 138 -95.5 213t-207.5 75q-133 0 -219 -86t-86 -243v-504q0 -157 86 -243.5t219 -86.5q124 0 207.5 75.5t95.5 213.5h158q-12 -205 -137.5 -324.5t-323.5 -119.5q-208 0 -335.5 131t-127.5 354v504q0 223 127.5 354
t335.5 131zM918 1511l-289 138l-289 -138l-43 91l332 157l332 -157z" />
    <glyph glyph-name="ccircumflex" unicode="&#x109;" 
d="M629 1085q74 0 140.5 -19t125.5 -59.5t98 -113t47 -170.5h-155q-14 103 -86.5 159t-169.5 56q-110 0 -185 -69t-75 -195v-283q0 -126 75 -195t185 -69q97 0 169.5 56t86.5 159h155q-8 -98 -47 -170.5t-98 -113t-125.5 -59.5t-140.5 -19q-62 0 -119 12.5t-111.5 43
t-94.5 76.5t-64.5 118t-24.5 163v279q0 90 24.5 162t64.5 118t94.5 77t111.5 43.5t119 12.5zM915 1196l-288 137l-289 -137l-43 90l332 158l331 -158z" />
    <glyph glyph-name="Cdotaccent" unicode="&#x10a;" 
d="M631 1454q198 0 323.5 -119.5t137.5 -324.5h-158q-12 138 -95.5 213t-207.5 75q-133 0 -219 -86t-86 -243v-504q0 -157 86 -243.5t219 -86.5q124 0 207.5 75.5t95.5 213.5h158q-12 -205 -137.5 -324.5t-323.5 -119.5q-208 0 -335.5 131t-127.5 354v504q0 223 127.5 354
t335.5 131zM551 1559v155h156v-155h-156z" />
    <glyph glyph-name="cdotaccent" unicode="&#x10b;" 
d="M629 1085q74 0 140.5 -19t125.5 -59.5t98 -113t47 -170.5h-155q-14 103 -86.5 159t-169.5 56q-110 0 -185 -69t-75 -195v-283q0 -126 75 -195t185 -69q97 0 169.5 56t86.5 159h155q-8 -98 -47 -170.5t-98 -113t-125.5 -59.5t-140.5 -19q-62 0 -119 12.5t-111.5 43
t-94.5 76.5t-64.5 118t-24.5 163v279q0 90 24.5 162t64.5 118t94.5 77t111.5 43.5t119 12.5zM549 1243v156h156v-156h-156z" />
    <glyph glyph-name="Ccaron" unicode="&#x10c;" 
d="M631 1454q198 0 323.5 -119.5t137.5 -324.5h-158q-12 138 -95.5 213t-207.5 75q-133 0 -219 -86t-86 -243v-504q0 -157 86 -243.5t219 -86.5q124 0 207.5 75.5t95.5 213.5h158q-12 -205 -137.5 -324.5t-323.5 -119.5q-208 0 -335.5 131t-127.5 354v504q0 223 127.5 354
t335.5 131zM629 1622l289 137l43 -90l-332 -158l-332 158l43 90z" />
    <glyph glyph-name="ccaron" unicode="&#x10d;" 
d="M629 1085q74 0 140.5 -19t125.5 -59.5t98 -113t47 -170.5h-155q-14 103 -86.5 159t-169.5 56q-110 0 -185 -69t-75 -195v-283q0 -126 75 -195t185 -69q97 0 169.5 56t86.5 159h155q-8 -98 -47 -170.5t-98 -113t-125.5 -59.5t-140.5 -19q-62 0 -119 12.5t-111.5 43
t-94.5 76.5t-64.5 118t-24.5 163v279q0 90 24.5 162t64.5 118t94.5 77t111.5 43.5t119 12.5zM627 1307l288 137l43 -90l-331 -158l-332 158l43 90z" />
    <glyph glyph-name="Dcaron" unicode="&#x10e;" 
d="M168 1434h463q208 0 335.5 -131.5t127.5 -354.5v-463q0 -223 -127.5 -354t-335.5 -131h-463v1434zM631 1278h-305v-1122h305q133 0 219 86t86 243v463q0 157 -85.5 242.5t-219.5 87.5zM590 1622l289 137l43 -90l-332 -158l-332 158l43 90z" />
    <glyph glyph-name="dcaron" unicode="&#x10f;" 
d="M1219 1434v-258l-129 -238l-91 47l117 215v234h103zM524 -20q77 0 149.5 33.5t110.5 95.5v-109h154v1434h-154v-478q-38 62 -110.5 95.5t-149.5 33.5q-62 0 -119 -12.5t-111.5 -43.5t-94 -77t-64 -118t-24.5 -162v-279q0 -90 24.5 -162t64 -118t94 -77t111.5 -43.5
t119 -12.5zM264 391v283q0 126 75 195t185 69t185 -69t75 -195v-283q0 -126 -75 -195t-185 -69t-185 69t-75 195z" />
    <glyph glyph-name="Dcroat" unicode="&#x110;" 
d="M190 1434h463q208 0 335.5 -131.5t127.5 -354.5v-463q0 -223 -127.5 -354t-335.5 -131h-463v672h-143v92h143v670zM653 1278h-305v-514h305v-92h-305v-516h305q133 0 219 86t86 243v463q0 157 -85.5 242.5t-219.5 87.5z" />
    <glyph glyph-name="dcroat" unicode="&#x111;" 
d="M614 -20q-62 0 -119 12.5t-111.5 43.5t-94 77t-64 118t-24.5 162v279q0 90 24.5 162t64 118t94 77t111.5 43.5t119 12.5q77 0 149.5 -33.5t110.5 -95.5v254h-260v88h260v136h154v-136h143v-88h-143v-1210h-154v109q-38 -62 -110.5 -95.5t-149.5 -33.5zM354 674v-283
q0 -126 75 -195t185 -69t185 69t75 195v283q0 126 -75 195t-185 69t-185 -69t-75 -195z" />
    <glyph glyph-name="Emacron" unicode="&#x112;" 
d="M393 647v-491h658v-156h-815v1434h815v-156h-658v-475h514v-156h-514zM963 1585h-639v103h639v-103z" />
    <glyph glyph-name="emacron" unicode="&#x113;" 
d="M625 127q95 0 165.5 53t88.5 152h157q-10 -95 -49 -165.5t-98 -110t-125 -58t-139 -18.5q-62 0 -119 12.5t-111.5 43.5t-94.5 77t-64.5 118t-24.5 162v279q0 90 24.5 162t64.5 118t94.5 77t111.5 43.5t119 12.5t119 -12.5t111.5 -43.5t94 -77t64 -118t24.5 -162v-178
h-673v-103q0 -126 75 -195t185 -69zM885 635v39q0 126 -75 195t-185 69t-185 -69t-75 -195v-39h520zM944 1270h-639v102h639v-102z" />
    <glyph glyph-name="Ebreve" unicode="&#x114;" 
d="M393 647v-491h658v-156h-815v1434h815v-156h-658v-475h514v-156h-514zM705 1522h-123q-94 0 -161 66.5t-67 160.5h101q0 -54 36.5 -90.5t90.5 -36.5h123q54 0 90 36.5t36 90.5h101q0 -94 -66.5 -160.5t-160.5 -66.5z" />
    <glyph glyph-name="ebreve" unicode="&#x115;" 
d="M625 127q95 0 165.5 53t88.5 152h157q-10 -95 -49 -165.5t-98 -110t-125 -58t-139 -18.5q-62 0 -119 12.5t-111.5 43.5t-94.5 77t-64.5 118t-24.5 162v279q0 90 24.5 162t64.5 118t94.5 77t111.5 43.5t119 12.5t119 -12.5t111.5 -43.5t94 -77t64 -118t24.5 -162v-178
h-673v-103q0 -126 75 -195t185 -69zM885 635v39q0 126 -75 195t-185 69t-185 -69t-75 -195v-39h520zM686 1206h-123q-94 0 -160.5 67t-66.5 161h100q0 -54 36.5 -90.5t90.5 -36.5h123q54 0 90.5 36.5t36.5 90.5h100q0 -94 -66.5 -161t-160.5 -67z" />
    <glyph glyph-name="Edotaccent" unicode="&#x116;" 
d="M393 647v-491h658v-156h-815v1434h815v-156h-658v-475h514v-156h-514zM565 1559v155h156v-155h-156z" />
    <glyph glyph-name="edotaccent" unicode="&#x117;" 
d="M625 127q95 0 165.5 53t88.5 152h157q-10 -95 -49 -165.5t-98 -110t-125 -58t-139 -18.5q-62 0 -119 12.5t-111.5 43.5t-94.5 77t-64.5 118t-24.5 162v279q0 90 24.5 162t64.5 118t94.5 77t111.5 43.5t119 12.5t119 -12.5t111.5 -43.5t94 -77t64 -118t24.5 -162v-178
h-673v-103q0 -126 75 -195t185 -69zM885 635v39q0 126 -75 195t-185 69t-185 -69t-75 -195v-39h520zM547 1243v156h155v-156h-155z" />
    <glyph glyph-name="Eogonek" unicode="&#x118;" 
d="M1051 -281v-102q-20 -4 -62 -4q-95 0 -149 58.5t-54 133.5q0 135 105 195h-655v1434h815v-156h-658v-475h514v-156h-514v-491h658v-156q-72 -28 -118 -78t-46 -104q0 -47 28.5 -76t85.5 -29q26 0 50 6z" />
    <glyph glyph-name="eogonek" unicode="&#x119;" 
d="M801 -281v-102q-20 -4 -62 -4q-95 0 -148.5 58.5t-53.5 133.5q0 114 73 175q-61 2 -116 15.5t-107.5 45t-91 77t-61.5 116.5t-23 159v279q0 90 24.5 162t64.5 118t94.5 77t111.5 43.5t119 12.5t119 -12.5t111.5 -43.5t94 -77t64 -118t24.5 -162v-178h-673v-103
q0 -126 75 -195t185 -69q95 0 165.5 53t88.5 152h157q-22 -216 -196 -305q-41 -21 -70 -39t-63 -44.5t-52 -58.5t-18 -67q0 -47 29 -76t86 -29q25 0 49 6zM885 635v39q0 126 -75 195t-185 69t-185 -69t-75 -195v-39h520z" />
    <glyph glyph-name="Ecaron" unicode="&#x11a;" 
d="M393 647v-491h658v-156h-815v1434h815v-156h-658v-475h514v-156h-514zM643 1622l289 137l43 -90l-332 -158l-332 158l43 90z" />
    <glyph glyph-name="ecaron" unicode="&#x11b;" 
d="M625 127q95 0 165.5 53t88.5 152h157q-10 -95 -49 -165.5t-98 -110t-125 -58t-139 -18.5q-62 0 -119 12.5t-111.5 43.5t-94.5 77t-64.5 118t-24.5 162v279q0 90 24.5 162t64.5 118t94.5 77t111.5 43.5t119 12.5t119 -12.5t111.5 -43.5t94 -77t64 -118t24.5 -162v-178
h-673v-103q0 -126 75 -195t185 -69zM885 635v39q0 126 -75 195t-185 69t-185 -69t-75 -195v-39h520zM625 1307l288 137l43 -90l-331 -158l-332 158l43 90z" />
    <glyph glyph-name="Gcircumflex" unicode="&#x11c;" 
d="M627 1454q198 0 323 -119t137 -325h-157q-12 138 -95.5 213t-207.5 75q-133 0 -219 -86t-86 -243v-504q0 -157 86 -243.5t219 -86.5t219 86.5t86 243.5v141h-305v156h463v-297q0 -223 -127.5 -354t-335.5 -131t-335.5 131t-127.5 354v504q0 223 127.5 354t335.5 131z
M915 1511l-288 138l-289 -138l-43 91l332 157l331 -157z" />
    <glyph glyph-name="gcircumflex" unicode="&#x11d;" 
d="M614 -250q110 0 185 69t75 195v136q-38 -62 -111 -96t-149 -34q-62 0 -119 13t-111.5 43.5t-94 77t-64 118.5t-24.5 162v238q0 90 24.5 162t64 118t94 77t111.5 43.5t119 12.5q77 0 149.5 -33.5t110.5 -95.5v101h154v-1041q0 -91 -24.5 -163t-64.5 -118t-94.5 -76.5
t-111.5 -43t-119 -12.5q-74 0 -140.5 19t-125.5 59.5t-98 113t-47 170.5h155q14 -103 86.5 -159t169.5 -56zM354 674v-242q0 -126 75 -195t185 -69t185 69t75 195v242q0 126 -75 195t-185 69t-185 -69t-75 -195zM903 1196l-289 137l-288 -137l-43 90l331 158l332 -158z" />
    <glyph glyph-name="Gbreve" unicode="&#x11e;" 
d="M627 1454q198 0 323 -119t137 -325h-157q-12 138 -95.5 213t-207.5 75q-133 0 -219 -86t-86 -243v-504q0 -157 86 -243.5t219 -86.5t219 86.5t86 243.5v141h-305v156h463v-297q0 -223 -127.5 -354t-335.5 -131t-335.5 131t-127.5 354v504q0 223 127.5 354t335.5 131z
M688 1522h-123q-94 0 -160.5 66.5t-66.5 160.5h100q0 -54 36.5 -90.5t90.5 -36.5h123q54 0 90.5 36.5t36.5 90.5h100q0 -94 -66.5 -160.5t-160.5 -66.5z" />
    <glyph glyph-name="gbreve" unicode="&#x11f;" 
d="M614 -250q110 0 185 69t75 195v136q-38 -62 -111 -96t-149 -34q-62 0 -119 13t-111.5 43.5t-94 77t-64 118.5t-24.5 162v238q0 90 24.5 162t64 118t94 77t111.5 43.5t119 12.5q77 0 149.5 -33.5t110.5 -95.5v101h154v-1041q0 -91 -24.5 -163t-64.5 -118t-94.5 -76.5
t-111.5 -43t-119 -12.5q-74 0 -140.5 19t-125.5 59.5t-98 113t-47 170.5h155q14 -103 86.5 -159t169.5 -56zM354 674v-242q0 -126 75 -195t185 -69t185 69t75 195v242q0 126 -75 195t-185 69t-185 -69t-75 -195zM676 1206h-123q-94 0 -160.5 67t-66.5 161h100
q0 -54 36.5 -90.5t90.5 -36.5h123q54 0 90.5 36.5t36.5 90.5h100q0 -94 -66.5 -161t-160.5 -67z" />
    <glyph glyph-name="Gdotaccent" unicode="&#x120;" 
d="M627 1454q198 0 323 -119t137 -325h-157q-12 138 -95.5 213t-207.5 75q-133 0 -219 -86t-86 -243v-504q0 -157 86 -243.5t219 -86.5t219 86.5t86 243.5v141h-305v156h463v-297q0 -223 -127.5 -354t-335.5 -131t-335.5 131t-127.5 354v504q0 223 127.5 354t335.5 131z
M549 1559v155h156v-155h-156z" />
    <glyph glyph-name="gdotaccent" unicode="&#x121;" 
d="M614 -250q110 0 185 69t75 195v136q-38 -62 -111 -96t-149 -34q-62 0 -119 13t-111.5 43.5t-94 77t-64 118.5t-24.5 162v238q0 90 24.5 162t64 118t94 77t111.5 43.5t119 12.5q77 0 149.5 -33.5t110.5 -95.5v101h154v-1041q0 -91 -24.5 -163t-64.5 -118t-94.5 -76.5
t-111.5 -43t-119 -12.5q-74 0 -140.5 19t-125.5 59.5t-98 113t-47 170.5h155q14 -103 86.5 -159t169.5 -56zM354 674v-242q0 -126 75 -195t185 -69t185 69t75 195v242q0 126 -75 195t-185 69t-185 -69t-75 -195zM537 1243v156h155v-156h-155z" />
    <glyph glyph-name="Gcommaaccent" unicode="&#x122;" 
d="M627 1454q198 0 323 -119t137 -325h-157q-12 138 -95.5 213t-207.5 75q-133 0 -219 -86t-86 -243v-504q0 -157 86 -243.5t219 -86.5t219 86.5t86 243.5v141h-305v156h463v-297q0 -223 -127.5 -354t-335.5 -131t-335.5 131t-127.5 354v504q0 223 127.5 354t335.5 131z
M766 -182l-205 -205l-74 76l205 202z" />
    <glyph glyph-name="gcommaaccent" unicode="&#x123;" 
d="M614 -250q110 0 185 69t75 195v136q-38 -62 -111 -96t-149 -34q-62 0 -119 13t-111.5 43.5t-94 77t-64 118.5t-24.5 162v238q0 90 24.5 162t64 118t94 77t111.5 43.5t119 12.5q77 0 149.5 -33.5t110.5 -95.5v101h154v-1041q0 -91 -24.5 -163t-64.5 -118t-94.5 -76.5
t-111.5 -43t-119 -12.5q-74 0 -140.5 19t-125.5 59.5t-98 113t-47 170.5h155q14 -103 86.5 -159t169.5 -56zM354 674v-242q0 -126 75 -195t185 -69t185 69t75 195v242q0 126 -75 195t-185 69t-185 -69t-75 -195zM475 1270l205 205l74 -76l-205 -203z" />
    <glyph glyph-name="Hcircumflex" unicode="&#x124;" 
d="M928 803v631h157v-1434h-157v647h-611v-647h-157v1434h157v-631h611zM911 1511l-288 138l-289 -138l-43 91l332 157l331 -157z" />
    <glyph glyph-name="hcircumflex" unicode="&#x125;" 
d="M627 1085q62 0 119 -12.5t111.5 -43.5t94 -77t64 -118t24.5 -162v-672h-153v674q0 126 -75 195t-185 69t-185 -69t-75 -195v-674h-154v1434h154v-478q38 62 110.5 95.5t149.5 33.5zM915 1511l-288 138l-289 -138l-43 91l332 157l331 -157z" />
    <glyph glyph-name="Hbar" unicode="&#x126;" 
d="M1229 1071h-144v-1071h-157v647h-611v-647h-157v1071h-144v92h144v271h157v-271h611v271h157v-271h144v-92zM928 803v268h-611v-268h611z" />
    <glyph glyph-name="hbar" unicode="&#x127;" 
d="M627 1085q62 0 119 -12.5t111.5 -43.5t94 -77t64 -118t24.5 -162v-672h-153v674q0 126 -75 195t-185 69t-185 -69t-75 -195v-674h-154v1210h-143v88h143v136h154v-136h260v-88h-260v-254q38 62 110.5 95.5t149.5 33.5z" />
    <glyph glyph-name="Itilde" unicode="&#x128;" 
d="M1032 1278h-330v-1122h330v-156h-817v156h330v1122h-330v156h817v-156zM973 1665l-273 -145l-161 116l-220 -116l-47 88l273 145l162 -117l219 117z" />
    <glyph glyph-name="itilde" unicode="&#x129;" 
d="M283 909v148h424v-910h372v-147h-899v147h373v762h-270zM979 1350l-272 -146l-162 117l-219 -117l-47 88l272 146l162 -117l219 117z" />
    <glyph glyph-name="Imacron" unicode="&#x12a;" 
d="M1032 1278h-330v-1122h330v-156h-817v156h330v1122h-330v156h817v-156zM942 1585h-639v103h639v-103z" />
    <glyph glyph-name="imacron" unicode="&#x12b;" 
d="M283 909v148h424v-910h372v-147h-899v147h373v762h-270zM948 1270h-639v102h639v-102z" />
    <glyph glyph-name="Ibreve" unicode="&#x12c;" 
d="M1032 1278h-330v-1122h330v-156h-817v156h330v1122h-330v156h817v-156zM684 1522h-123q-94 0 -160.5 66.5t-66.5 160.5h100q0 -54 36.5 -90.5t90.5 -36.5h123q54 0 90.5 36.5t36.5 90.5h100q0 -94 -66.5 -160.5t-160.5 -66.5z" />
    <glyph glyph-name="ibreve" unicode="&#x12d;" 
d="M283 909v148h424v-910h372v-147h-899v147h373v762h-270zM690 1206h-123q-94 0 -160.5 67t-66.5 161h100q0 -54 36.5 -90.5t90.5 -36.5h123q54 0 90.5 36.5t36.5 90.5h101q0 -94 -67 -161t-161 -67z" />
    <glyph glyph-name="Iogonek" unicode="&#x12e;" 
d="M1032 -281v-102q-20 -4 -61 -4q-95 0 -149 58.5t-54 133.5q0 135 104 195h-657v156h330v1122h-330v156h817v-156h-330v-1122h330v-156q-72 -28 -118 -78t-46 -104q0 -47 29 -76t86 -29q25 0 49 6z" />
    <glyph glyph-name="iogonek" unicode="&#x12f;" 
d="M1079 -281v-102q-20 -4 -61 -4q-95 0 -149 58.5t-54 133.5q0 135 105 195h-740v147h373v762h-270v148h424v-910h372v-147q-72 -28 -118 -78t-46 -104q0 -47 29 -76t86 -29q25 0 49 6zM502 1208v226h225v-226h-225z" />
    <glyph glyph-name="Idotaccent" unicode="&#x130;" 
d="M1032 1278h-330v-1122h330v-156h-817v156h330v1122h-330v156h817v-156zM545 1559v155h155v-155h-155z" />
    <glyph glyph-name="dotlessi" unicode="&#x131;" 
d="M283 909v148h424v-910h372v-147h-899v147h373v762h-270z" />
    <glyph glyph-name="Jcircumflex" unicode="&#x134;" 
d="M139 410q17 -200 141.5 -315t319.5 -115q208 0 335.5 131t127.5 354v969h-817v-156h659v-813q0 -157 -86 -243.5t-219 -86.5q-121 0 -203.5 72t-97.5 203h-160zM942 1511l-289 138l-288 -138l-43 91l331 157l332 -157z" />
    <glyph glyph-name="jcircumflex" unicode="&#x135;" 
d="M686 -137v1046h-444v148h598v-1182q0 -138 -54 -195t-198 -57h-449v148h449q55 0 76.5 20.5t21.5 71.5zM1051 1196l-289 137l-289 -137l-43 90l332 158l332 -158z" />
    <glyph glyph-name="Kcommaaccent" unicode="&#x136;" 
d="M305 422v-422h-158v1434h158v-779l662 779h200l-503 -590l557 -844h-187l-475 721zM788 -182l-204 -205l-74 76l205 202z" />
    <glyph glyph-name="kcommaaccent" unicode="&#x137;" 
d="M403 1434v-877l461 500h191l-381 -414l436 -643h-180l-361 530l-166 -180v-350h-153v1434h153zM805 -182l-205 -205l-74 76l205 202z" />
    <glyph glyph-name="kgreenlandic" unicode="&#x138;" 
d="M403 1057v-520l465 520h187l-373 -418l428 -639h-180l-350 524l-177 -196v-328h-153v1057h153z" />
    <glyph glyph-name="Lacute" unicode="&#x139;" 
d="M250 0v1434h158v-1278h657v-156h-815zM614 1661l-546 -150l-27 99l547 149z" />
    <glyph glyph-name="lacute" unicode="&#x13a;" 
d="M276 1286v148h424v-1287h373v-147h-899v147h373v1139h-271zM909 1661l-547 -150l-26 99l547 149z" />
    <glyph glyph-name="Lcommaaccent" unicode="&#x13b;" 
d="M250 0v1434h158v-1278h657v-156h-815zM797 -182l-205 -205l-74 76l205 202z" />
    <glyph glyph-name="lcommaaccent" unicode="&#x13c;" 
d="M276 1286v148h424v-1287h373v-147h-899v147h373v1139h-271zM762 -182l-205 -205l-74 76l205 202z" />
    <glyph glyph-name="Lcaron" unicode="&#x13d;" 
d="M831 1434v-258l-129 -238l-90 47l117 215v234h102zM250 0v1434h158v-1278h657v-156h-815z" />
    <glyph glyph-name="lcaron" unicode="&#x13e;" 
d="M981 1434v-258l-129 -238l-90 47l117 215v234h102zM276 1286v148h424v-1287h373v-147h-899v147h373v1139h-271z" />
    <glyph glyph-name="Ldot" unicode="&#x13f;" 
d="M250 0v1434h158v-1278h657v-156h-815zM909 717v155h156v-155h-156z" />
    <glyph glyph-name="ldot" unicode="&#x140;" 
d="M276 1286v148h424v-1287h373v-147h-899v147h373v1139h-271zM918 713v155h155v-155h-155z" />
    <glyph glyph-name="Lslash" unicode="&#x141;" 
d="M313 0v555l-120 -66l-46 80l166 90v775h158v-686l320 176l43 -80l-363 -201v-487h657v-156h-815z" />
    <glyph glyph-name="lslash" unicode="&#x142;" 
d="M276 1286v148h424v-584l109 59l43 -78l-152 -81v-603h373v-147h-899v147h373v519l-109 -60l-43 78l152 82v520h-271z" />
    <glyph glyph-name="Nacute" unicode="&#x143;" 
d="M1085 1434v-1434h-157l-611 1128v-1128h-157v1434h157l611 -1129v1129h157zM909 1661l-547 -150l-26 99l547 149z" />
    <glyph glyph-name="nacute" unicode="&#x144;" 
d="M627 1085q62 0 119 -12.5t111.5 -43.5t94 -77t64 -118t24.5 -162v-672h-153v674q0 126 -75 195t-185 69t-185 -69t-75 -195v-674h-154v1057h154v-101q38 62 110.5 95.5t149.5 33.5zM913 1346l-546 -150l-27 98l547 150z" />
    <glyph glyph-name="Ncommaaccent" unicode="&#x145;" 
d="M1085 1434v-1434h-157l-611 1128v-1128h-157v1434h157l611 -1129v1129h157zM762 -182l-205 -205l-74 76l205 202z" />
    <glyph glyph-name="ncommaaccent" unicode="&#x146;" 
d="M627 1085q62 0 119 -12.5t111.5 -43.5t94 -77t64 -118t24.5 -162v-672h-153v674q0 126 -75 195t-185 69t-185 -69t-75 -195v-674h-154v1057h154v-101q38 62 110.5 95.5t149.5 33.5zM766 -182l-205 -205l-74 76l205 202z" />
    <glyph glyph-name="Ncaron" unicode="&#x147;" 
d="M1085 1434v-1434h-157l-611 1128v-1128h-157v1434h157l611 -1129v1129h157zM623 1622l288 137l43 -90l-331 -158l-332 158l43 90z" />
    <glyph glyph-name="ncaron" unicode="&#x148;" 
d="M627 1085q62 0 119 -12.5t111.5 -43.5t94 -77t64 -118t24.5 -162v-672h-153v674q0 126 -75 195t-185 69t-185 -69t-75 -195v-674h-154v1057h154v-101q38 62 110.5 95.5t149.5 33.5zM627 1307l288 137l43 -90l-331 -158l-332 158l43 90z" />
    <glyph glyph-name="napostrophe" unicode="&#x149;" 
d="M690 1085q62 0 119 -12.5t111.5 -43.5t94.5 -77t64.5 -118t24.5 -162v-672h-154v674q0 126 -75 195t-185 69t-185 -69t-75 -195v-674h-154v1057h154v-101q38 62 110.5 95.5t149.5 33.5zM352 1405l-178 -449l-94 39l178 449z" />
    <glyph glyph-name="Eng" unicode="&#x14a;" 
d="M688 -377h-63v156h63q95 0 161.5 61t76.5 162l-609 1126v-1128h-157v1434h157l611 -1129v1129h157v-1397q0 -110 -34 -193t-92.5 -129.5t-126.5 -69t-144 -22.5z" />
    <glyph glyph-name="eng" unicode="&#x14b;" 
d="M1040 672v-797q0 -138 -54 -195t-198 -57h-32v148h32q55 0 77 20.5t22 71.5v811q0 126 -75 195t-185 69t-185 -69t-75 -195v-674h-154v1057h154v-101q38 62 110.5 95.5t149.5 33.5q62 0 119 -12.5t111.5 -43.5t94 -77t64 -118t24.5 -162z" />
    <glyph glyph-name="Omacron" unicode="&#x14c;" 
d="M928 465v504q0 157 -86 243t-219 86t-219.5 -86t-86.5 -243v-504q0 -157 86.5 -243.5t219.5 -86.5t219 86.5t86 243.5zM1085 969v-504q0 -223 -127 -354t-335 -131t-335.5 131t-127.5 354v504q0 223 127.5 354t335.5 131t335 -131t127 -354zM942 1585h-639v103h639v-103z
" />
    <glyph glyph-name="omacron" unicode="&#x14d;" 
d="M883 391v283q0 126 -75 195t-185 69t-185.5 -69t-75.5 -195v-283q0 -126 75.5 -195t185.5 -69t185 69t75 195zM1036 672v-279q0 -90 -24.5 -162t-64 -118t-94 -77t-111.5 -43.5t-119 -12.5t-119 12.5t-111.5 43.5t-94.5 77t-64.5 118t-24.5 162v279q0 90 24.5 162
t64.5 118t94.5 77t111.5 43.5t119 12.5t119 -12.5t111.5 -43.5t94 -77t64 -118t24.5 -162zM942 1270h-639v102h639v-102z" />
    <glyph glyph-name="Obreve" unicode="&#x14e;" 
d="M1085 969v-504q0 -223 -127 -354t-335 -131t-335.5 131t-127.5 354v504q0 223 127.5 354t335.5 131t335 -131t127 -354zM928 465v504q0 157 -86 243t-219 86t-219.5 -86t-86.5 -243v-504q0 -157 86.5 -243.5t219.5 -86.5t219 86.5t86 243.5zM684 1522h-123
q-94 0 -160.5 66.5t-66.5 160.5h100q0 -54 36.5 -90.5t90.5 -36.5h123q54 0 90.5 36.5t36.5 90.5h100q0 -94 -66.5 -160.5t-160.5 -66.5z" />
    <glyph glyph-name="obreve" unicode="&#x14f;" 
d="M1036 672v-279q0 -90 -24.5 -162t-64 -118t-94 -77t-111.5 -43.5t-119 -12.5t-119 12.5t-111.5 43.5t-94.5 77t-64.5 118t-24.5 162v279q0 90 24.5 162t64.5 118t94.5 77t111.5 43.5t119 12.5t119 -12.5t111.5 -43.5t94 -77t64 -118t24.5 -162zM883 391v283
q0 126 -75 195t-185 69t-185.5 -69t-75.5 -195v-283q0 -126 75.5 -195t185.5 -69t185 69t75 195zM684 1206h-123q-94 0 -160.5 67t-66.5 161h100q0 -54 36.5 -90.5t90.5 -36.5h123q54 0 90.5 36.5t36.5 90.5h100q0 -94 -66.5 -161t-160.5 -67z" />
    <glyph glyph-name="Ohungarumlaut" unicode="&#x150;" 
d="M928 465v504q0 157 -86 243t-219 86t-219.5 -86t-86.5 -243v-504q0 -157 86.5 -243.5t219.5 -86.5t219 86.5t86 243.5zM1085 969v-504q0 -223 -127 -354t-335 -131t-335.5 131t-127.5 354v504q0 223 127.5 354t335.5 131t335 -131t127 -354zM315 1548l260 72l-26 98
l-260 -71zM956 1626l-260 -72l-26 99l260 71z" />
    <glyph glyph-name="ohungarumlaut" unicode="&#x151;" 
d="M1036 672v-279q0 -90 -24.5 -162t-64 -118t-94 -77t-111.5 -43.5t-119 -12.5t-119 12.5t-111.5 43.5t-94.5 77t-64.5 118t-24.5 162v279q0 90 24.5 162t64.5 118t94.5 77t111.5 43.5t119 12.5t119 -12.5t111.5 -43.5t94 -77t64 -118t24.5 -162zM883 391v283
q0 126 -75 195t-185 69t-185.5 -69t-75.5 -195v-283q0 -126 75.5 -195t185.5 -69t185 69t75 195zM315 1233l260 72l-26 98l-260 -72zM956 1311l-260 -72l-26 98l260 72z" />
    <glyph glyph-name="OE" unicode="&#x152;" 
d="M780 647v-491h338v-156h-495q-208 0 -335.5 131t-127.5 354v463q0 223 127.5 354.5t335.5 131.5h495v-156h-338v-475h195v-156h-195zM317 485q0 -157 86.5 -243t219.5 -86v1122q-133 0 -219.5 -86.5t-86.5 -243.5v-463z" />
    <glyph glyph-name="oe" unicode="&#x153;" 
d="M403 -20q-138 0 -217.5 79t-79.5 217v512q0 138 79.5 217.5t217.5 79.5q148 0 220 -102q75 102 221 102q138 0 217.5 -79.5t79.5 -217.5v-294h-441v-218q0 -70 38 -109.5t106 -39.5t105.5 39.5t37.5 109.5v56h154v-56q0 -138 -79.5 -217t-217.5 -79q-146 0 -221 102
q-72 -102 -220 -102zM403 938q-68 0 -105.5 -40t-37.5 -110v-512q0 -70 37.5 -109.5t105.5 -39.5t106 39.5t38 109.5v512q0 70 -38 110t-106 40zM987 635v153q0 70 -37.5 110t-105.5 40t-106 -40t-38 -110v-153h287z" />
    <glyph glyph-name="Racute" unicode="&#x154;" 
d="M358 649h228l381 -649h182l-383 653q89 12 156 49.5t105 92t56.5 116t18.5 129.5q0 59 -13.5 114t-45 106.5t-78 89.5t-118 61t-159.5 23h-487v-1434h157v649zM942 1040q0 -106 -67.5 -172.5t-186.5 -66.5h-330v477h330q119 0 186.5 -66.5t67.5 -171.5zM920 1661
l-547 -150l-27 99l547 149z" />
    <glyph glyph-name="racute" unicode="&#x155;" 
d="M227 909v148h385v-111q38 62 110.5 95.5t149.5 33.5h254v-147h-254q-110 0 -185 -69t-75 -195v-517h412v-147h-899v147h334v762h-232zM911 1346l-546 -150l-27 98l547 150z" />
    <glyph glyph-name="Rcommaaccent" unicode="&#x156;" 
d="M586 649h-228v-649h-157v1434h487q88 0 159.5 -23t118 -61t78 -89.5t45 -106.5t13.5 -114q0 -68 -18.5 -129.5t-56.5 -116t-105 -92t-156 -49.5l383 -653h-182zM942 1040q0 105 -67.5 171.5t-186.5 66.5h-330v-477h330q119 0 186.5 66.5t67.5 172.5zM780 -182l-205 -205
l-73 76l205 202z" />
    <glyph glyph-name="rcommaaccent" unicode="&#x157;" 
d="M227 909v148h385v-111q38 62 110.5 95.5t149.5 33.5h254v-147h-254q-110 0 -185 -69t-75 -195v-517h412v-147h-899v147h334v762h-232zM764 -182l-205 -205l-74 76l205 202z" />
    <glyph glyph-name="Rcaron" unicode="&#x158;" 
d="M586 649h-228v-649h-157v1434h487q88 0 159.5 -23t118 -61t78 -89.5t45 -106.5t13.5 -114q0 -68 -18.5 -129.5t-56.5 -116t-105 -92t-156 -49.5l383 -653h-182zM942 1040q0 105 -67.5 171.5t-186.5 66.5h-330v-477h330q119 0 186.5 66.5t67.5 172.5zM633 1622l289 137
l43 -90l-332 -158l-332 158l43 90z" />
    <glyph glyph-name="rcaron" unicode="&#x159;" 
d="M227 909v148h385v-111q38 62 110.5 95.5t149.5 33.5h254v-147h-254q-110 0 -185 -69t-75 -195v-517h412v-147h-899v147h334v762h-232zM625 1307l288 137l43 -90l-331 -158l-332 158l43 90z" />
    <glyph glyph-name="Sacute" unicode="&#x15a;" 
d="M625 -20q-196 0 -323 120t-142 324h162q18 -135 101.5 -212t201.5 -77q126 0 200 58t74 169q0 97 -55 157.5t-176 94.5l-183 52q-151 42 -226 154t-75 253q0 119 59 207t153.5 131t211.5 43q185 0 297 -99.5t135 -283.5h-161q-24 107 -91.5 167t-179.5 60
q-125 0 -194.5 -63.5t-69.5 -161.5q0 -99 51.5 -161t161.5 -93l168 -47q334 -94 334 -410q0 -176 -112 -279t-322 -103zM895 1661l-547 -150l-26 99l546 149z" />
    <glyph glyph-name="sacute" unicode="&#x15b;" 
d="M997 748h-157q-13 92 -73.5 141t-158.5 49q-88 0 -143 -41.5t-55 -112.5q0 -62 37.5 -96.5t107.5 -50.5l199 -49q131 -32 200.5 -104t69.5 -210q0 -150 -101 -222t-272 -72q-85 0 -157.5 20.5t-131 62t-94 112t-41.5 163.5h158q10 -107 82 -159t184 -52q107 0 161 40.5
t56 111.5q0 56 -32.5 95.5t-114.5 59.5l-207 51q-48 11 -90 31.5t-82.5 54t-64 87t-23.5 120.5q0 142 102 224.5t254 82.5q168 0 271.5 -83.5t115.5 -253.5zM911 1346l-546 -150l-27 98l547 150z" />
    <glyph glyph-name="Scircumflex" unicode="&#x15c;" 
d="M625 -20q-196 0 -323 120t-142 324h162q18 -135 101.5 -212t201.5 -77q126 0 200 58t74 169q0 97 -55 157.5t-176 94.5l-183 52q-151 42 -226 154t-75 253q0 119 59 207t153.5 131t211.5 43q185 0 297 -99.5t135 -283.5h-161q-24 107 -91.5 167t-179.5 60
q-125 0 -194.5 -63.5t-69.5 -161.5q0 -99 51.5 -161t161.5 -93l168 -47q334 -94 334 -410q0 -176 -112 -279t-322 -103zM897 1511l-289 138l-289 -138l-43 91l332 157l332 -157z" />
    <glyph glyph-name="scircumflex" unicode="&#x15d;" 
d="M997 748h-157q-13 92 -73.5 141t-158.5 49q-88 0 -143 -41.5t-55 -112.5q0 -62 37.5 -96.5t107.5 -50.5l199 -49q131 -32 200.5 -104t69.5 -210q0 -150 -101 -222t-272 -72q-85 0 -157.5 20.5t-131 62t-94 112t-41.5 163.5h158q10 -107 82 -159t184 -52q107 0 161 40.5
t56 111.5q0 56 -32.5 95.5t-114.5 59.5l-207 51q-48 11 -90 31.5t-82.5 54t-64 87t-23.5 120.5q0 142 102 224.5t254 82.5q168 0 271.5 -83.5t115.5 -253.5zM913 1196l-288 137l-289 -137l-43 90l332 158l331 -158z" />
    <glyph glyph-name="Scedilla" unicode="&#x15e;" 
d="M625 -20q-196 0 -323 120t-142 324h162q18 -135 101.5 -212t201.5 -77q126 0 200 58t74 169q0 97 -55 157.5t-176 94.5l-183 52q-151 42 -226 154t-75 253q0 119 59 207t153.5 131t211.5 43q185 0 297 -99.5t135 -283.5h-161q-24 107 -91.5 167t-179.5 60
q-125 0 -194.5 -63.5t-69.5 -161.5q0 -99 51.5 -161t161.5 -93l168 -47q334 -94 334 -410q0 -176 -112 -279t-322 -103zM401 -274h172v172h103v-275h-275v103z" />
    <glyph glyph-name="scedilla" unicode="&#x15f;" 
d="M997 748h-157q-13 92 -73.5 141t-158.5 49q-88 0 -143 -41.5t-55 -112.5q0 -62 37.5 -96.5t107.5 -50.5l199 -49q131 -32 200.5 -104t69.5 -210q0 -150 -101 -222t-272 -72q-85 0 -157.5 20.5t-131 62t-94 112t-41.5 163.5h158q10 -107 82 -159t184 -52q107 0 161 40.5
t56 111.5q0 56 -32.5 95.5t-114.5 59.5l-207 51q-48 11 -90 31.5t-82.5 54t-64 87t-23.5 120.5q0 142 102 224.5t254 82.5q168 0 271.5 -83.5t115.5 -253.5zM428 -274h172v172h102v-275h-274v103z" />
    <glyph glyph-name="Scaron" unicode="&#x160;" 
d="M625 -20q-196 0 -323 120t-142 324h162q18 -135 101.5 -212t201.5 -77q126 0 200 58t74 169q0 97 -55 157.5t-176 94.5l-183 52q-151 42 -226 154t-75 253q0 119 59 207t153.5 131t211.5 43q185 0 297 -99.5t135 -283.5h-161q-24 107 -91.5 167t-179.5 60
q-125 0 -194.5 -63.5t-69.5 -161.5q0 -99 51.5 -161t161.5 -93l168 -47q334 -94 334 -410q0 -176 -112 -279t-322 -103zM608 1622l289 137l43 -90l-332 -158l-332 158l43 90z" />
    <glyph glyph-name="scaron" unicode="&#x161;" 
d="M997 748h-157q-13 92 -73.5 141t-158.5 49q-88 0 -143 -41.5t-55 -112.5q0 -62 37.5 -96.5t107.5 -50.5l199 -49q131 -32 200.5 -104t69.5 -210q0 -150 -101 -222t-272 -72q-85 0 -157.5 20.5t-131 62t-94 112t-41.5 163.5h158q10 -107 82 -159t184 -52q107 0 161 40.5
t56 111.5q0 56 -32.5 95.5t-114.5 59.5l-207 51q-48 11 -90 31.5t-82.5 54t-64 87t-23.5 120.5q0 142 102 224.5t254 82.5q168 0 271.5 -83.5t115.5 -253.5zM625 1307l288 137l43 -90l-331 -158l-332 158l43 90z" />
    <glyph glyph-name="Tcommaaccent" unicode="&#x162;" 
d="M543 1278h-383v156h923v-156h-383v-1278h-157v1278zM760 -182l-205 -205l-74 76l205 202z" />
    <glyph glyph-name="tcommaaccent" unicode="&#x163;" 
d="M600 909v-669q0 -51 21.5 -72t76.5 -21h346v-147h-346q-144 0 -198 57t-54 195v657h-301v148h301v239h154v-239h444v-148h-444zM885 -182l-205 -205l-74 76l205 202z" />
    <glyph glyph-name="Tcaron" unicode="&#x164;" 
d="M543 1278h-383v156h923v-156h-383v-1278h-157v1278zM621 1622l288 137l43 -90l-331 -158l-332 158l43 90z" />
    <glyph glyph-name="tcaron" unicode="&#x165;" 
d="M872 1434v-199l-36 -66h-115l49 91v174h102zM600 240v669h444v148h-444v239h-154v-239h-301v-148h301v-657q0 -138 54 -195t198 -57h346v147h-346q-55 0 -76.5 21t-21.5 72z" />
    <glyph glyph-name="Tbar" unicode="&#x166;" 
d="M543 1278h-383v156h923v-156h-383v-514h240v-92h-240v-672h-157v672h-240v92h240v514z" />
    <glyph glyph-name="tbar" unicode="&#x167;" 
d="M600 561v-321q0 -51 21.5 -72t76.5 -21h346v-147h-346q-144 0 -198 57t-54 195v309h-301v88h301v260h-301v148h301v239h154v-239h444v-148h-444v-260h444v-88h-444z" />
    <glyph glyph-name="Utilde" unicode="&#x168;" 
d="M160 465v969h157v-969q0 -157 86.5 -243.5t219.5 -86.5t219 86.5t86 243.5v969h157v-969q0 -223 -127 -354t-335 -131t-335.5 131t-127.5 354zM973 1665l-273 -145l-161 116l-220 -116l-47 88l273 145l162 -117l219 117z" />
    <glyph glyph-name="utilde" unicode="&#x169;" 
d="M618 -20q-56 0 -109.5 12t-108.5 41.5t-96 74.5t-67 117t-26 162v670h154v-660q0 -68 21.5 -121t58 -85t81 -48t92.5 -16q104 0 179 70t75 194v666h154v-1057h-154v109q-38 -60 -110 -94.5t-144 -34.5zM969 1350l-273 -146l-161 117l-220 -117l-47 88l273 146l161 -117
l220 117z" />
    <glyph glyph-name="Umacron" unicode="&#x16a;" 
d="M160 465v969h157v-969q0 -157 86.5 -243.5t219.5 -86.5t219 86.5t86 243.5v969h157v-969q0 -223 -127 -354t-335 -131t-335.5 131t-127.5 354zM942 1585h-639v103h639v-103z" />
    <glyph glyph-name="umacron" unicode="&#x16b;" 
d="M618 -20q-56 0 -109.5 12t-108.5 41.5t-96 74.5t-67 117t-26 162v670h154v-660q0 -68 21.5 -121t58 -85t81 -48t92.5 -16q104 0 179 70t75 194v666h154v-1057h-154v109q-38 -60 -110 -94.5t-144 -34.5zM938 1270h-639v102h639v-102z" />
    <glyph glyph-name="Ubreve" unicode="&#x16c;" 
d="M160 465v969h157v-969q0 -157 86.5 -243.5t219.5 -86.5t219 86.5t86 243.5v969h157v-969q0 -223 -127 -354t-335 -131t-335.5 131t-127.5 354zM684 1522h-123q-94 0 -160.5 66.5t-66.5 160.5h100q0 -54 36.5 -90.5t90.5 -36.5h123q54 0 90.5 36.5t36.5 90.5h100
q0 -94 -66.5 -160.5t-160.5 -66.5z" />
    <glyph glyph-name="ubreve" unicode="&#x16d;" 
d="M618 -20q-56 0 -109.5 12t-108.5 41.5t-96 74.5t-67 117t-26 162v670h154v-660q0 -68 21.5 -121t58 -85t81 -48t92.5 -16q104 0 179 70t75 194v666h154v-1057h-154v109q-38 -60 -110 -94.5t-144 -34.5zM680 1206h-123q-94 0 -160.5 67t-66.5 161h100q0 -54 36.5 -90.5
t90.5 -36.5h123q54 0 90.5 36.5t36.5 90.5h100q0 -94 -66.5 -161t-160.5 -67z" />
    <glyph glyph-name="Uring" unicode="&#x16e;" 
d="M160 465v969h157v-969q0 -157 86.5 -243.5t219.5 -86.5t219 86.5t86 243.5v969h157v-969q0 -223 -127 -354t-335 -131t-335.5 131t-127.5 354zM389 1567q0 97 68.5 166t165.5 69t166 -69t69 -166t-69 -165.5t-166 -68.5t-165.5 68.5t-68.5 165.5zM489 1567q0 -55 39 -94
t95 -39t95.5 39t39.5 94t-40 95t-95 40t-94.5 -39.5t-39.5 -95.5z" />
    <glyph glyph-name="uring" unicode="&#x16f;" 
d="M618 -20q-56 0 -109.5 12t-108.5 41.5t-96 74.5t-67 117t-26 162v670h154v-660q0 -68 21.5 -121t58 -85t81 -48t92.5 -16q104 0 179 70t75 194v666h154v-1057h-154v109q-38 -60 -110 -94.5t-144 -34.5zM385 1219q0 97 68 166t165 69t166.5 -69t69.5 -166t-69.5 -165.5
t-166.5 -68.5t-165 68.5t-68 165.5zM485 1219q0 -56 39 -95t94 -39q56 0 96 39.5t40 94.5t-40 95t-96 40q-55 0 -94 -39.5t-39 -95.5z" />
    <glyph glyph-name="Uhungarumlaut" unicode="&#x170;" 
d="M160 465v969h157v-969q0 -157 86.5 -243.5t219.5 -86.5t219 86.5t86 243.5v969h157v-969q0 -223 -127 -354t-335 -131t-335.5 131t-127.5 354zM956 1626l-260 -72l-26 99l260 71zM315 1548l260 72l-26 98l-260 -71z" />
    <glyph glyph-name="uhungarumlaut" unicode="&#x171;" 
d="M618 -20q-56 0 -109.5 12t-108.5 41.5t-96 74.5t-67 117t-26 162v670h154v-660q0 -68 21.5 -121t58 -85t81 -48t92.5 -16q104 0 179 70t75 194v666h154v-1057h-154v109q-38 -60 -110 -94.5t-144 -34.5zM952 1311l-260 -72l-26 98l260 72zM311 1233l260 72l-26 98
l-260 -72z" />
    <glyph glyph-name="Uogonek" unicode="&#x172;" 
d="M803 -281v-102q-20 -4 -62 -4q-95 0 -148.5 58.5t-53.5 133.5q0 114 73 175q-204 3 -328 133t-124 352v969h157v-969q0 -157 86.5 -243.5t219.5 -86.5t219 86.5t86 243.5v969h157v-969q0 -155 -61.5 -265.5t-175.5 -168.5q-44 -22 -74.5 -41t-64.5 -46t-52 -59t-18 -67
q0 -47 29 -76t86 -29q25 0 49 6z" />
    <glyph glyph-name="uogonek" unicode="&#x173;" 
d="M1026 1057v-1057q-72 -28 -118 -78t-46 -104q0 -47 29 -76t86 -29q25 0 49 6v-102q-20 -4 -61 -4q-95 0 -149 58.5t-54 133.5q0 138 110 195v109q-38 -60 -110 -94.5t-144 -34.5q-56 0 -109.5 12t-108.5 41.5t-96 74.5t-67 117t-26 162v670h154v-660q0 -68 21.5 -121
t58 -85t81 -48t92.5 -16q104 0 179 70t75 194v666h154z" />
    <glyph glyph-name="Wcircumflex" unicode="&#x174;" 
d="M686 1229l201 -893l143 1098h154l-205 -1434h-141l-215 926l-215 -926h-142l-205 1434h154l143 -1098l201 893h127zM911 1511l-288 138l-289 -138l-43 91l332 157l331 -157z" />
    <glyph glyph-name="wcircumflex" unicode="&#x175;" 
d="M696 893l181 -602l114 766h152l-170 -1057h-137l-213 692l-213 -692h-138l-170 1057h152l115 -766l180 602h147zM911 1196l-288 137l-289 -137l-43 90l332 158l331 -158z" />
    <glyph glyph-name="Ycircumflex" unicode="&#x176;" 
d="M702 0v569l474 865h-172l-379 -695l-381 695h-172l473 -863v-571h157zM911 1511l-288 138l-289 -138l-43 91l332 157l331 -157z" />
    <glyph glyph-name="ycircumflex" unicode="&#x177;" 
d="M1090 1057l-480 -1325q-21 -60 -75.5 -83.5t-157.5 -25.5h-92v148h110q46 0 64 14.5t28 46.5l56 152l-387 1073h163l304 -858l303 858h164zM911 1196l-288 137l-289 -137l-43 90l332 158l331 -158z" />
    <glyph glyph-name="Ydieresis" unicode="&#x178;" 
d="M702 0v569l474 865h-172l-379 -695l-381 695h-172l473 -863v-571h157zM303 1559v155h156v-155h-156zM786 1559v155h156v-155h-156z" />
    <glyph glyph-name="Zacute" unicode="&#x179;" 
d="M1081 0h-936v156l742 1122h-731v156h915v-156l-741 -1122h751v-156zM899 1661l-547 -150l-26 99l546 149z" />
    <glyph glyph-name="zacute" unicode="&#x17a;" 
d="M1001 909l-595 -762h610v-147h-797v147l596 762h-582v148h768v-148zM903 1346l-547 -150l-26 98l547 150z" />
    <glyph glyph-name="Zdotaccent" unicode="&#x17b;" 
d="M1081 0h-936v156l742 1122h-731v156h915v-156l-741 -1122h751v-156zM535 1559v155h155v-155h-155z" />
    <glyph glyph-name="zdotaccent" unicode="&#x17c;" 
d="M1001 909l-595 -762h610v-147h-797v147l596 762h-582v148h768v-148zM539 1243v156h155v-156h-155z" />
    <glyph glyph-name="Zcaron" unicode="&#x17d;" 
d="M1081 0h-936v156l742 1122h-731v156h915v-156l-741 -1122h751v-156zM612 1622l289 137l43 -90l-332 -158l-331 158l43 90z" />
    <glyph glyph-name="zcaron" unicode="&#x17e;" 
d="M1001 909l-595 -762h610v-147h-797v147l596 762h-582v148h768v-148zM616 1307l289 137l43 -90l-332 -158l-331 158l43 90z" />
    <glyph glyph-name="longs" unicode="&#x17f;" 
d="M1057 1286h-346q-55 0 -77 -20.5t-22 -71.5v-1194h-153v1182q0 138 54 195t198 57h346v-148z" />
    <glyph glyph-name="uni0186" unicode="&#x186;" 
d="M614 1454q208 0 335.5 -131t127.5 -354v-504q0 -223 -127.5 -354t-335.5 -131q-198 0 -323 119t-137 325h157q12 -138 95.5 -213.5t207.5 -75.5q133 0 219.5 86.5t86.5 243.5v504q0 157 -86.5 243t-219.5 86q-124 0 -207.5 -75t-95.5 -213h-157q12 206 137 325t323 119z
" />
    <glyph glyph-name="uni018F" unicode="&#x18f;" 
d="M924 803v166q0 157 -86.5 243t-219.5 86q-124 0 -207.5 -75t-95.5 -213h-157q12 206 137 325t323 119q208 0 335.5 -131t127.5 -354v-504q0 -223 -127.5 -354t-335.5 -131t-335 131t-127 354v338h768zM618 135q133 0 219.5 86.5t86.5 243.5v180h-611v-180
q0 -157 86 -243.5t219 -86.5z" />
    <glyph glyph-name="uni0190" unicode="&#x190;" 
d="M1010 1278h-367q-119 0 -186.5 -66.5t-67.5 -171.5t67.5 -171t186.5 -66h367v-156h-402q-118 0 -186 -65.5t-68 -180.5t68 -180t186 -65h402v-156h-402q-111 0 -193.5 34t-129 92.5t-68.5 127t-22 147.5q0 104 49 194.5t143 137.5q-71 44 -114.5 125t-43.5 182
q0 59 13.5 114t45 106.5t78 89.5t118 61t159.5 23h367v-156z" />
    <glyph glyph-name="florin" unicode="&#x192;" 
d="M733 969l-223 -1094q-28 -138 -94 -195t-211 -57h-51l30 148h52q55 0 80 20.5t36 71.5l228 1106h-150l21 88h149l25 125q27 138 93.5 195t211.5 57h162l-31 -148h-162q-55 0 -80.5 -20.5t-36.5 -71.5l-28 -137h260l-21 -88h-260z" />
    <glyph glyph-name="uni019D" unicode="&#x19d;" 
d="M160 2v1432h157l611 -1129v1129h157v-1434h-157l-611 1128v-1091q0 -112 -29.5 -193.5t-84 -129t-124 -69.5t-157.5 -22h-63v156h63q109 0 173.5 60t64.5 163z" />
    <glyph glyph-name="uni019F" unicode="&#x19f;" 
d="M1085 969v-504q0 -223 -127 -354t-335 -131t-335.5 131t-127.5 354v504q0 223 127.5 354t335.5 131t335 -131t127 -354zM928 465v197h-611v-197q0 -157 86.5 -243.5t219.5 -86.5t219 86.5t86 243.5zM317 969v-195h611v195q0 157 -86 243t-219 86t-219.5 -86t-86.5 -243z
" />
    <glyph glyph-name="Ohorn" unicode="&#x1a0;" 
d="M1085 969v-504q0 -223 -127 -354t-335 -131t-335.5 131t-127.5 354v504q0 223 127.5 354t335.5 131q116 0 210 -44t156 -124q32 0 55 23t23 55q0 25 -12 43l90 47q24 -46 24 -90q0 -61 -35.5 -107.5t-91.5 -64.5q43 -98 43 -223zM928 465v504q0 157 -86 243t-219 86
t-219.5 -86t-86.5 -243v-504q0 -157 86.5 -243.5t219.5 -86.5t219 86.5t86 243.5z" />
    <glyph glyph-name="ohorn" unicode="&#x1a1;" 
d="M1036 672v-279q0 -90 -24.5 -162t-64 -118t-94 -77t-111.5 -43.5t-119 -12.5t-119 12.5t-111.5 43.5t-94.5 77t-64.5 118t-24.5 162v279q0 90 24.5 162t64.5 118t94.5 77t111.5 43.5t119 12.5q108 0 201 -40t149 -127q31 0 53.5 22.5t22.5 54.5q0 23 -13 43l90 47
q25 -48 25 -90q0 -64 -38 -112.5t-97 -63.5q20 -72 20 -147zM883 391v283q0 126 -75 195t-185 69t-185.5 -69t-75.5 -195v-283q0 -126 75.5 -195t185.5 -69t185 69t75 195z" />
    <glyph glyph-name="Uhorn" unicode="&#x1af;" 
d="M1085 1184v-719q0 -223 -127 -354t-335 -131t-335.5 131t-127.5 354v969h157v-969q0 -157 86.5 -243.5t219.5 -86.5t219 86.5t86 243.5v969h157v-148q32 0 55 23t23 55q0 25 -12 43l90 47q25 -48 25 -90q0 -75 -53 -127.5t-128 -52.5z" />
    <glyph glyph-name="uhorn" unicode="&#x1b0;" 
d="M1026 815v-815h-154v109q-38 -60 -110 -94.5t-144 -34.5q-56 0 -109.5 12t-108.5 41.5t-96 74.5t-67 117t-26 162v670h154v-660q0 -68 21.5 -121t58 -85t81 -48t92.5 -16q104 0 179 70t75 194v666h154v-139q32 0 55 22.5t23 54.5q0 25 -12 43l90 47q24 -46 24 -90
q0 -75 -52.5 -127.5t-127.5 -52.5z" />
    <glyph glyph-name="Aringacute" unicode="&#x1fa;" 
d="M389 1567q0 97 68.5 166t165.5 69t166 -69t69 -166q0 -65 -34 -120t-89 -85l439 -1362h-160l-131 403h-521l-131 -403h-159l438 1362q-55 30 -88 85t-33 120zM836 549l-213 665l-213 -665h426zM489 1567q0 -55 39 -94t95 -39t95.5 39t39.5 94t-40 95t-95 40t-94.5 -39.5
t-39.5 -95.5zM909 1952l-547 -150l-26 99l547 149z" />
    <glyph glyph-name="aringacute" unicode="&#x1fb;" 
d="M379 1219q0 97 68 166t165 69t166.5 -69t69.5 -166q0 -94 -68 -162q111 -40 178.5 -134.5t67.5 -250.5v-672h-154v109q-100 -129 -329 -129q-69 0 -130.5 19t-111.5 56t-79 98t-29 140q0 44 10.5 85.5t34.5 85t71 78.5t113 54q82 24 185 36t265 23v19q0 126 -75 195
t-185 69q-95 0 -165.5 -53t-88.5 -152h-157q13 129 78 209t163 115q-63 69 -63 162zM872 381v137q-190 -13 -286.5 -27.5t-147.5 -41.5q-54 -30 -73 -65.5t-19 -86.5q0 -76 58.5 -123t170.5 -47q130 0 213.5 67t83.5 187zM479 1219q0 -56 39 -95t94 -39q56 0 96 39.5
t40 94.5t-40 95t-96 40q-55 0 -94 -39.5t-39 -95.5zM899 1661l-547 -150l-26 99l546 149z" />
    <glyph glyph-name="AEacute" unicode="&#x1fc;" 
d="M748 647v-491h337v-156h-495v403h-228l-131 -403h-159l460 1434h553v-156h-337v-475h194v-156h-194zM1096 1661l-547 -150l-27 99l547 149zM410 549h180v563z" />
    <glyph glyph-name="aeacute" unicode="&#x1fd;" 
d="M545 788v-153h-144q-138 0 -217.5 -79.5t-79.5 -217.5v-62q0 -138 79.5 -217t217.5 -79q148 0 220 102q75 -102 221 -102q138 0 217.5 79t79.5 217v56h-154v-56q0 -70 -37.5 -109.5t-105.5 -39.5t-106 39.5t-38 109.5v218h441v294q0 138 -79.5 217.5t-217.5 79.5
q-146 0 -221 -102q-72 102 -220 102q-138 0 -217.5 -79.5t-79.5 -217.5v-55h154v55q0 70 37.5 110t105.5 40t106 -40t38 -110zM401 494h144v-218q0 -70 -38 -109.5t-106 -39.5t-105.5 39.5t-37.5 109.5v62q0 71 37.5 113.5t105.5 42.5zM985 788v-153h-287v153q0 70 38 110
t106 40t105.5 -40t37.5 -110zM907 1346l-547 -150l-26 98l547 150z" />
    <glyph glyph-name="Oslashacute" unicode="&#x1fe;" 
d="M1085 969v-504q0 -223 -127 -354t-335 -131q-197 0 -322 116l-96 -164l-76 48l113 188q-82 121 -82 297v504q0 223 127.5 354t335.5 131q195 0 319 -115l96 162l76 -47l-113 -186q84 -127 84 -299zM928 465v504q0 70 -23 137l-518 -868q83 -103 236 -103q133 0 219 86.5
t86 243.5zM317 465q0 -77 21 -135l518 866q-83 102 -233 102q-133 0 -219.5 -86t-86.5 -243v-504zM907 1661l-547 -150l-26 99l547 149z" />
    <glyph glyph-name="oslashacute" unicode="&#x1ff;" 
d="M1036 672v-279q0 -90 -24.5 -162t-64 -118t-94 -77t-111.5 -43.5t-119 -12.5q-140 0 -242 61l-66 -109l-75 48l71 118q-102 110 -102 295v279q0 90 24.5 162t64.5 118t94.5 77t111.5 43.5t119 12.5q137 0 239 -61l66 109l76 -48l-72 -118q104 -109 104 -295zM883 391v283
q0 84 -37 147l-385 -645q67 -49 162 -49q110 0 185 69t75 195zM362 391q0 -87 37 -145l383 643q-67 49 -159 49q-110 0 -185.5 -69t-75.5 -195v-283zM909 1346l-547 -150l-26 98l547 150z" />
    <glyph glyph-name="Scommaaccent" unicode="&#x218;" 
d="M625 -20q-196 0 -323 120t-142 324h162q18 -135 101.5 -212t201.5 -77q126 0 200 58t74 169q0 97 -55 157.5t-176 94.5l-183 52q-151 42 -226 154t-75 253q0 119 59 207t153.5 131t211.5 43q185 0 297 -99.5t135 -283.5h-161q-24 107 -91.5 167t-179.5 60
q-125 0 -194.5 -63.5t-69.5 -161.5q0 -99 51.5 -161t161.5 -93l168 -47q334 -94 334 -410q0 -176 -112 -279t-322 -103zM748 -182l-205 -205l-74 76l205 202z" />
    <glyph glyph-name="scommaaccent" unicode="&#x219;" 
d="M997 748h-157q-13 92 -73.5 141t-158.5 49q-88 0 -143 -41.5t-55 -112.5q0 -62 37.5 -96.5t107.5 -50.5l199 -49q131 -32 200.5 -104t69.5 -210q0 -150 -101 -222t-272 -72q-85 0 -157.5 20.5t-131 62t-94 112t-41.5 163.5h158q10 -107 82 -159t184 -52q107 0 161 40.5
t56 111.5q0 56 -32.5 95.5t-114.5 59.5l-207 51q-48 11 -90 31.5t-82.5 54t-64 87t-23.5 120.5q0 142 102 224.5t254 82.5q168 0 271.5 -83.5t115.5 -253.5zM764 -182l-205 -205l-74 76l205 202z" />
    <glyph glyph-name="uni021C" unicode="&#x21c;" 
d="M895 1018q0 129 -83.5 204.5t-205.5 75.5q-124 0 -217 -76t-104 -212h-158q12 203 147 323.5t332 120.5q195 0 321 -119.5t126 -316.5q0 -152 -73.5 -264t-170.5 -162q114 -50 177 -149t63 -218q0 -175 -113.5 -313.5t-305.5 -213.5t-425 -75v156q176 0 331 51.5
t254 151.5t99 227q0 133 -82 204.5t-217 71.5q-74 0 -135 -20v156q440 93 440 397z" />
    <glyph glyph-name="uni021D" unicode="&#x21d;" 
d="M979 725q0 -111 -57 -194.5t-140 -133.5q92 -39 144.5 -115t52.5 -178q0 -153 -100 -263.5t-267 -164t-381 -53.5v148q165 0 299.5 39t214.5 113.5t80 170.5q0 72 -42.5 120.5t-101.5 67.5t-130 19q-59 0 -100 -16v149q43 7 82 16.5t95.5 32.5t97 52.5t70 79t29.5 110.5
q0 91 -58.5 152t-174.5 61q-102 0 -186 -58t-97 -157h-155q13 168 134 265t304 97q101 0 178 -30.5t121.5 -82.5t66 -114.5t21.5 -132.5z" />
    <glyph glyph-name="uni0226" unicode="&#x226;" 
d="M1014 0l-131 403h-521l-131 -403h-159l460 1434h181l461 -1434h-160zM836 549l-213 665l-213 -665h426zM545 1559v155h155v-155h-155z" />
    <glyph glyph-name="uni0227" unicode="&#x227;" 
d="M612 938q-95 0 -165.5 -53t-88.5 -152h-157q10 95 49 165.5t98 110t125 58t139 18.5q62 0 119 -12.5t111.5 -43.5t94.5 -77t64.5 -118t24.5 -162v-672h-154v109q-100 -129 -329 -129q-69 0 -130.5 19t-111.5 56t-79 98t-29 140q0 44 10.5 85.5t34.5 85t71 78.5t113 54
q82 24 185 36t265 23v19q0 126 -75 195t-185 69zM872 381v137q-190 -13 -286.5 -27.5t-147.5 -41.5q-54 -30 -73 -65.5t-19 -86.5q0 -76 58.5 -123t170.5 -47q130 0 213.5 67t83.5 187zM541 1243v156h155v-156h-155z" />
    <glyph glyph-name="uni0232" unicode="&#x232;" 
d="M702 0v569l474 865h-172l-379 -695l-381 695h-172l473 -863v-571h157zM942 1585h-639v103h639v-103z" />
    <glyph glyph-name="uni0233" unicode="&#x233;" 
d="M1090 1057l-480 -1325q-21 -60 -75.5 -83.5t-157.5 -25.5h-92v148h110q46 0 64 14.5t28 46.5l56 152l-387 1073h163l304 -858l303 858h164zM942 1270h-639v102h639v-102z" />
    <glyph glyph-name="dotlessj" unicode="&#x237;" 
d="M686 -137v1046h-444v148h598v-1182q0 -138 -54 -195t-198 -57h-449v148h449q55 0 76.5 20.5t21.5 71.5z" />
    <glyph glyph-name="uni0254" unicode="&#x254;" 
d="M616 1085q62 0 119 -12.5t111.5 -43.5t94.5 -77t64.5 -118t24.5 -162v-279q0 -91 -24.5 -163t-64.5 -118t-94.5 -76.5t-111.5 -43t-119 -12.5q-74 0 -140.5 19t-125.5 59.5t-98 113t-47 170.5h155q14 -103 86.5 -159t169.5 -56q110 0 185.5 69t75.5 195v283
q0 126 -75.5 195t-185.5 69q-97 0 -169.5 -56t-86.5 -159h-155q8 98 47 170.5t98 113t125.5 59.5t140.5 19z" />
    <glyph glyph-name="uni0259" unicode="&#x259;" 
d="M621 938q-95 0 -165.5 -53t-88.5 -152h-158q10 95 49.5 165.5t98.5 110t125 58t139 18.5q62 0 119 -12.5t111.5 -43.5t94 -77t64 -118t24.5 -162v-279q0 -90 -24.5 -162t-64 -118t-94 -77t-111.5 -43.5t-119 -12.5t-119 12.5t-111.5 43.5t-94.5 77t-64.5 118t-24.5 162
v178h674v103q0 126 -75 195t-185 69zM360 430v-39q0 -126 75.5 -195t185.5 -69t185 69t75 195v39h-521z" />
    <glyph glyph-name="uni025B" unicode="&#x25b;" 
d="M956 909h-374q-75 0 -117.5 -42.5t-42.5 -108.5t42.5 -108t117.5 -42h374v-147h-401q-74 0 -117 -42t-43 -114q0 -73 43 -115.5t117 -42.5h401v-147h-401q-83 0 -145.5 26t-98 70t-52.5 96.5t-17 112.5q0 71 30.5 135t89.5 101q-94 78 -94 217q0 57 17 108.5t52.5 95
t98.5 69.5t146 26h374v-148z" />
    <glyph glyph-name="uni0272" unicode="&#x272;" 
d="M213 -137v1194h154v-101q38 62 110.5 95.5t149.5 33.5q62 0 119 -12.5t111.5 -43.5t94 -77t64 -118t24.5 -162v-672h-153v674q0 126 -75 195t-185 69t-185 -69t-75 -195v-799q0 -138 -54 -195t-198 -57h-33v148h33q55 0 76.5 20.5t21.5 71.5z" />
    <glyph glyph-name="uni0275" unicode="&#x275;" 
d="M1036 672v-279q0 -90 -24.5 -162t-64 -118t-94 -77t-111.5 -43.5t-119 -12.5t-119 12.5t-111.5 43.5t-94.5 77t-64.5 118t-24.5 162v279q0 90 24.5 162t64.5 118t94.5 77t111.5 43.5t119 12.5t119 -12.5t111.5 -43.5t94 -77t64 -118t24.5 -162zM883 391v88h-521v-88
q0 -126 75.5 -195t185.5 -69t185 69t75 195zM362 674v-86h521v86q0 126 -75 195t-185 69t-185.5 -69t-75.5 -195z" />
    <glyph glyph-name="circumflex" unicode="&#x2c6;" 
d="M911 1196l-288 137l-289 -137l-43 90l332 158l331 -158z" />
    <glyph glyph-name="caron" unicode="&#x2c7;" 
d="M623 1307l288 137l43 -90l-331 -158l-332 158l43 90z" />
    <glyph glyph-name="breve" unicode="&#x2d8;" 
d="M684 1206h-123q-94 0 -160.5 67t-66.5 161h100q0 -54 36.5 -90.5t90.5 -36.5h123q54 0 90.5 36.5t36.5 90.5h100q0 -94 -66.5 -161t-160.5 -67z" />
    <glyph glyph-name="dotaccent" unicode="&#x2d9;" 
d="M545 1243v156h155v-156h-155z" />
    <glyph glyph-name="ring" unicode="&#x2da;" 
d="M389 1219q0 97 68.5 166t165.5 69t166 -69t69 -166t-69 -165.5t-166 -68.5t-165.5 68.5t-68.5 165.5zM489 1219q0 -55 39.5 -94.5t94.5 -39.5q56 0 95.5 39.5t39.5 94.5t-40 95t-95 40t-94.5 -39.5t-39.5 -95.5z" />
    <glyph glyph-name="ogonek" unicode="&#x2db;" 
d="M674 -281v-102q-20 -4 -62 -4q-95 0 -148.5 58.5t-53.5 133.5q0 135 104 195h160q-72 -28 -118 -78t-46 -104q0 -47 29 -76t86 -29q25 0 49 6z" />
    <glyph glyph-name="tilde" unicode="&#x2dc;" 
d="M973 1350l-273 -146l-161 117l-220 -117l-47 88l273 146l162 -117l219 117z" />
    <glyph glyph-name="hungarumlaut" unicode="&#x2dd;" 
d="M315 1233l260 72l-26 98l-260 -72zM956 1311l-260 -72l-26 98l260 72z" />
    <glyph glyph-name="uni032C" unicode="&#x32c;" 
d="M623 -147l288 137l43 -90l-331 -158l-332 158l43 90z" />
    <glyph glyph-name="pi" unicode="&#x3c0;" 
d="M217 952h-149v105h1110v-105h-150v-952h-108v952h-594v-952h-109v952z" />
    <glyph glyph-name="Wgrave" unicode="&#x1e80;" 
d="M686 1229l201 -893l143 1098h154l-205 -1434h-141l-215 926l-215 -926h-142l-205 1434h154l143 -1098l201 893h127zM883 1511l-547 150l26 98l547 -149z" />
    <glyph glyph-name="wgrave" unicode="&#x1e81;" 
d="M696 893l181 -602l114 766h152l-170 -1057h-137l-213 692l-213 -692h-138l-170 1057h152l115 -766l180 602h147zM883 1196l-547 150l26 98l547 -150z" />
    <glyph glyph-name="Wacute" unicode="&#x1e82;" 
d="M686 1229l201 -893l143 1098h154l-205 -1434h-141l-215 926l-215 -926h-142l-205 1434h154l143 -1098l201 893h127zM909 1661l-547 -150l-26 99l547 149z" />
    <glyph glyph-name="wacute" unicode="&#x1e83;" 
d="M696 893l181 -602l114 766h152l-170 -1057h-137l-213 692l-213 -692h-138l-170 1057h152l115 -766l180 602h147zM909 1346l-547 -150l-26 98l547 150z" />
    <glyph glyph-name="Wdieresis" unicode="&#x1e84;" 
d="M686 1229l201 -893l143 1098h154l-205 -1434h-141l-215 926l-215 -926h-142l-205 1434h154l143 -1098l201 893h127zM303 1559v155h156v-155h-156zM786 1559v155h156v-155h-156z" />
    <glyph glyph-name="wdieresis" unicode="&#x1e85;" 
d="M696 893l181 -602l114 766h152l-170 -1057h-137l-213 692l-213 -692h-138l-170 1057h152l115 -766l180 602h147zM303 1243v156h156v-156h-156zM786 1243v156h156v-156h-156z" />
    <glyph glyph-name="uni1EA0" unicode="&#x1ea0;" 
d="M1014 0l-131 403h-521l-131 -403h-159l460 1434h181l461 -1434h-160zM836 549l-213 665l-213 -665h426zM545 -334v156h155v-156h-155z" />
    <glyph glyph-name="uni1EA1" unicode="&#x1ea1;" 
d="M612 938q-95 0 -165.5 -53t-88.5 -152h-157q10 95 49 165.5t98 110t125 58t139 18.5q62 0 119 -12.5t111.5 -43.5t94.5 -77t64.5 -118t24.5 -162v-672h-154v109q-100 -129 -329 -129q-69 0 -130.5 19t-111.5 56t-79 98t-29 140q0 44 10.5 85.5t34.5 85t71 78.5t113 54
q82 24 185 36t265 23v19q0 126 -75 195t-185 69zM872 381v137q-190 -13 -286.5 -27.5t-147.5 -41.5q-54 -30 -73 -65.5t-19 -86.5q0 -76 58.5 -123t170.5 -47q130 0 213.5 67t83.5 187zM530 -334v156h156v-156h-156z" />
    <glyph glyph-name="uni1EB8" unicode="&#x1eb8;" 
d="M393 647v-491h658v-156h-815v1434h815v-156h-658v-475h514v-156h-514zM565 -334v156h156v-156h-156z" />
    <glyph glyph-name="uni1EB9" unicode="&#x1eb9;" 
d="M625 127q95 0 165.5 53t88.5 152h157q-10 -95 -49 -165.5t-98 -110t-125 -58t-139 -18.5q-62 0 -119 12.5t-111.5 43.5t-94.5 77t-64.5 118t-24.5 162v279q0 90 24.5 162t64.5 118t94.5 77t111.5 43.5t119 12.5t119 -12.5t111.5 -43.5t94 -77t64 -118t24.5 -162v-178
h-673v-103q0 -126 75 -195t185 -69zM885 635v39q0 126 -75 195t-185 69t-185 -69t-75 -195v-39h520zM547 -334v156h155v-156h-155z" />
    <glyph glyph-name="uni1ECA" unicode="&#x1eca;" 
d="M1032 1278h-330v-1122h330v-156h-817v156h330v1122h-330v156h817v-156zM545 -334v156h155v-156h-155z" />
    <glyph glyph-name="uni1ECB" unicode="&#x1ecb;" 
d="M283 909v148h424v-910h372v-147h-899v147h373v762h-270zM502 1208v226h225v-226h-225zM551 -334v156h156v-156h-156z" />
    <glyph glyph-name="uni1ECC" unicode="&#x1ecc;" 
d="M928 465v504q0 157 -86 243t-219 86t-219.5 -86t-86.5 -243v-504q0 -157 86.5 -243.5t219.5 -86.5t219 86.5t86 243.5zM1085 969v-504q0 -223 -127 -354t-335 -131t-335.5 131t-127.5 354v504q0 223 127.5 354t335.5 131t335 -131t127 -354zM545 -334v156h155v-156h-155z
" />
    <glyph glyph-name="uni1ECD" unicode="&#x1ecd;" 
d="M883 391v283q0 126 -75 195t-185 69t-185.5 -69t-75.5 -195v-283q0 -126 75.5 -195t185.5 -69t185 69t75 195zM1036 672v-279q0 -90 -24.5 -162t-64 -118t-94 -77t-111.5 -43.5t-119 -12.5t-119 12.5t-111.5 43.5t-94.5 77t-64.5 118t-24.5 162v279q0 90 24.5 162
t64.5 118t94.5 77t111.5 43.5t119 12.5t119 -12.5t111.5 -43.5t94 -77t64 -118t24.5 -162zM545 -334v156h155v-156h-155z" />
    <glyph glyph-name="uni1EE4" unicode="&#x1ee4;" 
d="M160 465v969h157v-969q0 -157 86.5 -243.5t219.5 -86.5t219 86.5t86 243.5v969h157v-969q0 -223 -127 -354t-335 -131t-335.5 131t-127.5 354zM545 -334v156h155v-156h-155z" />
    <glyph glyph-name="uni1EE5" unicode="&#x1ee5;" 
d="M618 -20q-56 0 -109.5 12t-108.5 41.5t-96 74.5t-67 117t-26 162v670h154v-660q0 -68 21.5 -121t58 -85t81 -48t92.5 -16q104 0 179 70t75 194v666h154v-1057h-154v109q-38 -60 -110 -94.5t-144 -34.5zM541 -334v156h155v-156h-155z" />
    <glyph glyph-name="Ygrave" unicode="&#x1ef2;" 
d="M702 569v-569h-157v571l-473 863h172l381 -695l379 695h172zM883 1511l-547 150l26 98l547 -149z" />
    <glyph glyph-name="ygrave" unicode="&#x1ef3;" 
d="M1090 1057l-480 -1325q-21 -60 -75.5 -83.5t-157.5 -25.5h-92v148h110q46 0 64 14.5t28 46.5l56 152l-387 1073h163l304 -858l303 858h164zM883 1196l-547 150l26 98l547 -150z" />
    <glyph glyph-name="endash" unicode="&#x2013;" 
d="M1028 528h-811v93h811v-93z" />
    <glyph glyph-name="emdash" unicode="&#x2014;" 
d="M1092 528h-940v93h940v-93z" />
    <glyph glyph-name="quoteleft" unicode="&#x2018;" 
d="M758 1405l-178 -449l-95 39l179 449z" />
    <glyph glyph-name="quoteright" unicode="&#x2019;" 
d="M758 1405l-178 -449l-95 39l179 449z" />
    <glyph glyph-name="quotesinglbase" unicode="&#x201a;" 
d="M758 205l-178 -449l-95 39l179 449z" />
    <glyph glyph-name="quotedblleft" unicode="&#x201c;" 
d="M987 1405l-178 -449l-94 39l178 449zM530 1405l-178 -449l-94 39l178 449z" />
    <glyph glyph-name="quotedblright" unicode="&#x201d;" 
d="M987 1405l-178 -449l-94 39l178 449zM530 1405l-178 -449l-94 39l178 449z" />
    <glyph glyph-name="quotedblbase" unicode="&#x201e;" 
d="M987 205l-178 -449l-94 39l178 449zM530 205l-178 -449l-94 39l178 449z" />
    <glyph glyph-name="dagger" unicode="&#x2020;" 
d="M1026 965h-360v-1143h-88v1143h-361v92h361v377h88v-377h360v-92z" />
    <glyph glyph-name="daggerdbl" unicode="&#x2021;" 
d="M1026 199h-360v-377h-88v377h-361v92h361v674h-361v92h361v377h88v-377h360v-92h-360v-674h360v-92z" />
    <glyph glyph-name="bullet" unicode="&#x2022;" 
d="M279 713q0 143 100.5 243.5t243.5 100.5t243.5 -100.5t100.5 -243.5t-100.5 -243.5t-243.5 -100.5t-243.5 100.5t-100.5 243.5z" />
    <glyph glyph-name="ellipsis" unicode="&#x2026;" 
d="M98 0v215h215v-215h-215zM514 0v215h215v-215h-215zM930 0v215h215v-215h-215z" />
    <glyph glyph-name="perthousand" unicode="&#x2030;" 
d="M111 1161q0 117 81.5 200t198.5 83t200 -83t83 -200t-83 -198.5t-200 -81.5t-198.5 81.5t-81.5 198.5zM438 176q0 78 55 133.5t132 55.5q50 0 93 -25.5t68 -67.5q25 42 67.5 67.5t92.5 25.5q78 0 133.5 -55.5t55.5 -133.5q0 -77 -55.5 -131.5t-133.5 -54.5
q-50 0 -92.5 24t-67.5 66q-25 -42 -67.5 -66t-93.5 -24q-77 0 -132 55t-55 131zM145 307l889 891l66 -65l-889 -891zM238 1161q0 -65 44 -110t109 -45q66 0 111 45t45 110t-45.5 111.5t-110.5 46.5t-109 -46.5t-44 -111.5zM840 176q0 -44 31 -75t75 -31q45 0 77 30.5
t32 75.5t-32 77t-77 32q-44 0 -75 -32t-31 -77zM518 176q0 -44 31.5 -75t75.5 -31q45 0 76.5 30.5t31.5 75.5q0 46 -31.5 77.5t-76.5 31.5q-44 0 -75.5 -32.5t-31.5 -76.5z" />
    <glyph glyph-name="guilsinglleft" unicode="&#x2039;" 
d="M743 98l-430 430l430 430l66 -63l-367 -367l367 -366z" />
    <glyph glyph-name="guilsinglright" unicode="&#x203a;" 
d="M932 528l-430 -430l-66 64l367 366l-367 367l66 63z" />
    <glyph glyph-name="fraction" unicode="&#x2044;" 
d="M145 307l889 891l66 -65l-889 -891z" />
    <glyph glyph-name="zero.superior" unicode="&#x2070;" 
d="M623 809q-107 0 -182.5 76.5t-75.5 183.5v336q0 107 75.5 183.5t182.5 76.5t183.5 -76.5t76.5 -183.5v-336q0 -107 -76.5 -183.5t-183.5 -76.5zM623 938q56 0 91.5 38t35.5 93v252l-252 -250v-2q0 -55 34.5 -93t90.5 -38zM498 1405v-252l252 252q0 55 -35.5 93t-91.5 38
t-90.5 -38t-34.5 -93z" />
    <glyph glyph-name="four.superior" unicode="&#x2074;" 
d="M815 821h-133v201h-367v129l371 508l105 -76l-316 -432h207v168h133v-168h86v-129h-86v-201z" />
    <glyph glyph-name="five.superior" unicode="&#x2075;" 
d="M621 809q-109 0 -185 76.5t-76 183.5h134q0 -55 35.5 -93t91.5 -38q54 0 89 38t35 93v31q0 55 -35 93t-89 38q-66 0 -107 -62l-143 109l84 375h370v-129h-266l-43 -197q52 33 109 33q104 0 179 -76.5t75 -183.5v-31q0 -107 -75.5 -183.5t-182.5 -76.5z" />
    <glyph glyph-name="six.superior" unicode="&#x2076;" 
d="M608 809q-107 0 -183.5 76.5t-76.5 183.5v31q0 86 53 155l295 404l105 -76l-166 -225q101 -12 163 -82t68 -176v-31q0 -107 -75.5 -183.5t-182.5 -76.5zM608 938q56 0 90.5 38t34.5 93v31q0 55 -34.5 93t-90.5 38t-91.5 -38t-35.5 -93v-31q0 -55 35.5 -93t91.5 -38z" />
    <glyph glyph-name="seven.superior" unicode="&#x2077;" 
d="M369 1401v252h510v-129l-258 -709l-121 43l241 666h-239v-123h-133z" />
    <glyph glyph-name="eight.superior" unicode="&#x2078;" 
d="M623 809q-107 0 -182.5 76.5t-75.5 183.5q0 121 92 197q-68 68 -68 164q0 98 68.5 166.5t165.5 68.5q98 0 166.5 -68.5t68.5 -166.5q0 -97 -67 -164q92 -76 92 -197q0 -107 -76.5 -183.5t-183.5 -76.5zM623 938q55 0 91 38t36 93t-36 92t-91 37t-90 -37t-35 -92t35 -93
t90 -38zM623 1325q45 0 73.5 30.5t28.5 74.5q0 45 -28.5 75.5t-73.5 30.5q-44 0 -72.5 -30.5t-28.5 -75.5q0 -44 28.5 -74.5t72.5 -30.5z" />
    <glyph glyph-name="nine.superior" unicode="&#x2079;" 
d="M637 1665q107 0 183.5 -76.5t76.5 -183.5v-31q0 -86 -53 -155l-295 -404l-105 76l166 225q-101 12 -163 82t-68 176v31q0 107 75.5 183.5t182.5 76.5zM637 1536q-56 0 -90.5 -38t-34.5 -93v-31q0 -55 34.5 -93t90.5 -38t91.5 38t35.5 93v31q0 55 -35.5 93t-91.5 38z" />
    <glyph glyph-name="plus.superior" unicode="&#x207a;" 
d="M598 920v208h-211v54h211v207h53v-207h207v-54h-207v-208h-53z" />
    <glyph glyph-name="minus.superior" unicode="&#x207b;" 
d="M858 1128h-471v54h471v-54z" />
    <glyph glyph-name="equal.superior" unicode="&#x207c;" 
d="M858 1237h-471v53h471v-53zM858 1006h-471v53h471v-53z" />
    <glyph glyph-name="parenleft.superior" unicode="&#x207d;" 
d="M559 834v696q0 64 27 93.5t100 29.5h141v-49h-141q-45 0 -60.5 -17.5t-15.5 -56.5v-696q0 -38 15.5 -55t60.5 -17h141v-49h-141q-73 0 -100 29t-27 92z" />
    <glyph glyph-name="parenright.superior" unicode="&#x207e;" 
d="M688 1530v-696q0 -62 -27.5 -91.5t-99.5 -29.5h-141v49h141q44 0 60 17t16 55v696q0 39 -16 56.5t-60 17.5h-141v49h141q72 0 99.5 -30t27.5 -93z" />
    <glyph glyph-name="n.superior" unicode="&#x207f;" 
d="M367 821v613h133v-52q11 25 52 46.5t89 21.5q41 0 81.5 -14t78 -42.5t61 -80t23.5 -119.5v-373h-133v369q0 66 -33.5 98.5t-93.5 32.5q-59 0 -92 -32.5t-33 -98.5v-369h-133z" />
    <glyph glyph-name="zero.inferior" unicode="&#x2080;" 
d="M623 -211q-107 0 -182.5 76.5t-75.5 183.5v336q0 107 75.5 183.5t182.5 76.5t183.5 -76.5t76.5 -183.5v-336q0 -107 -76.5 -183.5t-183.5 -76.5zM623 -82q56 0 91.5 38t35.5 93v252l-252 -250v-2q0 -55 34.5 -93t90.5 -38zM498 385v-252l252 252q0 55 -35.5 93t-91.5 38
t-90.5 -38t-34.5 -93z" />
    <glyph glyph-name="one.inferior" unicode="&#x2081;" 
d="M463 336l-92 90l204 207h134v-703h217v-129h-566v129h215v519z" />
    <glyph glyph-name="two.inferior" unicode="&#x2082;" 
d="M539 291l-93 -92q-79 76 -79 186q0 107 75.5 183.5t182.5 76.5q108 0 184 -76t76 -184q0 -63 -25 -112t-88 -115l-223 -228h336v-129h-518v129l303 312q46 47 64 78t18 65q0 55 -35.5 93t-91.5 38q-55 0 -90 -38t-35 -93t39 -94z" />
    <glyph glyph-name="three.inferior" unicode="&#x2083;" 
d="M612 -211q-107 0 -182.5 76.5t-75.5 183.5h133q0 -55 34.5 -93t90.5 -38t91.5 38t35.5 93t-35.5 93t-91.5 38v123h9q42 3 68 34t26 73q0 45 -29 75.5t-74 30.5q-44 0 -72 -30.5t-28 -75.5h-133q0 98 68 166.5t165 68.5t166.5 -68.5t69.5 -166.5q0 -95 -72 -164
q96 -76 96 -197q0 -107 -76.5 -183.5t-183.5 -76.5z" />
    <glyph glyph-name="four.inferior" unicode="&#x2084;" 
d="M815 -199h-133v201h-367v129l371 508l105 -76l-316 -432h207v168h133v-168h86v-129h-86v-201z" />
    <glyph glyph-name="five.inferior" unicode="&#x2085;" 
d="M621 -211q-109 0 -185 76.5t-76 183.5h134q0 -55 35.5 -93t91.5 -38q54 0 89 38t35 93v31q0 55 -35 93t-89 38q-67 0 -107 -61l-143 108l84 375h370v-129h-266l-43 -197q52 33 109 33q104 0 179 -76.5t75 -183.5v-31q0 -107 -75.5 -183.5t-182.5 -76.5z" />
    <glyph glyph-name="six.inferior" unicode="&#x2086;" 
d="M608 -211q-107 0 -183.5 76.5t-76.5 183.5v31q0 87 53 156l295 403l105 -76l-166 -225q101 -12 163 -82t68 -176v-31q0 -107 -75.5 -183.5t-182.5 -76.5zM608 -82q56 0 90.5 38t34.5 93v31q0 55 -34.5 93t-90.5 38t-91.5 -38t-35.5 -93v-31q0 -55 35.5 -93t91.5 -38z" />
    <glyph glyph-name="seven.inferior" unicode="&#x2087;" 
d="M369 381v252h510v-129l-258 -709l-121 43l241 666h-239v-123h-133z" />
    <glyph glyph-name="eight.inferior" unicode="&#x2088;" 
d="M623 -211q-107 0 -182.5 76.5t-75.5 183.5q0 121 92 197q-68 68 -68 164q0 98 68.5 166.5t165.5 68.5q98 0 166.5 -68.5t68.5 -166.5q0 -97 -67 -164q92 -76 92 -197q0 -107 -76.5 -183.5t-183.5 -76.5zM623 -82q55 0 91 38t36 93t-36 92t-91 37t-90 -37t-35 -92t35 -93
t90 -38zM623 305q45 0 73.5 30.5t28.5 74.5q0 45 -28.5 75.5t-73.5 30.5q-44 0 -72.5 -30.5t-28.5 -75.5q0 -44 28.5 -74.5t72.5 -30.5z" />
    <glyph glyph-name="nine.inferior" unicode="&#x2089;" 
d="M637 645q107 0 183.5 -76.5t76.5 -183.5v-31q0 -86 -53 -155l-295 -404l-105 76l166 225q-101 12 -163 82t-68 176v31q0 107 75.5 183.5t182.5 76.5zM637 516q-56 0 -90.5 -38t-34.5 -93v-31q0 -55 34.5 -93t90.5 -38t91.5 38t35.5 93v31q0 55 -35.5 93t-91.5 38z" />
    <glyph glyph-name="parenleft.inferior" unicode="&#x208d;" 
d="M559 -186v696q0 64 27 93.5t100 29.5h141v-49h-141q-45 0 -60.5 -17.5t-15.5 -56.5v-696q0 -38 15.5 -55t60.5 -17h141v-49h-141q-73 0 -100 29t-27 92z" />
    <glyph glyph-name="parenright.inferior" unicode="&#x208e;" 
d="M688 510v-696q0 -62 -27.5 -91.5t-99.5 -29.5h-141v49h141q44 0 60 17t16 55v696q0 39 -16 56.5t-60 17.5h-141v49h141q72 0 99.5 -30t27.5 -93z" />
    <glyph glyph-name="Euro" unicode="&#x20ac;" 
d="M201 563h-144v88h144v133h-144v88h144v97q0 223 127.5 354t335.5 131q198 0 323 -119t137 -325h-153q-12 142 -97 219.5t-210 77.5q-134 0 -222 -89t-88 -249v-97h514v-88h-514v-133h514v-88h-514v-98q0 -160 88 -249t222 -89q125 0 210 77.5t97 219.5h153
q-12 -206 -137 -325t-323 -119q-208 0 -335.5 131t-127.5 354v98z" />
    <glyph glyph-name="afii61289" unicode="&#x2113;" 
d="M397 283v120l-98 -77l-45 57l143 115v622q0 174 58 254t170 80q113 0 165 -82.5t52 -224.5q0 -152 -81 -328.5t-210 -290.5v-258q0 -98 36 -139t107 -41q40 0 129 19l19 -64q-118 -65 -217 -65q-121 0 -174.5 73t-53.5 230zM551 1143v-514q94 100 157.5 243.5t63.5 268.5
q0 200 -115 200q-51 0 -78.5 -44.5t-27.5 -153.5z" />
    <glyph glyph-name="trademark" unicode="&#x2122;" 
d="M246 731v572h-207v131h547v-131h-207v-572h-133zM662 731v703h124l148 -351l147 351h125v-703h-131v408l-92 -219h-98l-92 219v-408h-131z" />
    <glyph glyph-name="Omega" unicode="&#x2126;" 
d="M211 0v111h197v122q-111 57 -174.5 169.5t-63.5 267.5v299q0 222 127 353.5t326 131.5t325.5 -131.5t126.5 -353.5v-299q0 -153 -63.5 -266.5t-173.5 -170.5v-122h196v-111h-309v307q108 29 173 122t65 241v299q0 182 -96 278t-244 96t-244 -96t-96 -278v-299
q0 -148 64.5 -241t172.5 -122v-307h-309z" />
    <glyph glyph-name="estimated" unicode="&#x212e;" 
d="M621 1247q-140 0 -261 -100q-24 -21 -24 -51v-391q0 -21 20 -21h533q20 0 20 21v391q0 30 -24 51q-121 100 -264 100zM641 -20q-123 0 -230.5 53t-182.5 143.5t-118.5 213.5t-43.5 259q0 128 43 250.5t116.5 214.5t177.5 148.5t218 56.5q115 0 219.5 -56t178.5 -148
t117.5 -214.5t43.5 -251.5v-35h-824q-20 0 -20 -20v-391q0 -30 24 -51q123 -101 281 -101q184 0 326 142h102q-177 -213 -428 -213z" />
    <glyph glyph-name="onethird" unicode="&#x2153;" 
d="M145 307l889 891l66 -65l-889 -891zM897 244v78q29 0 47.5 20.5t18.5 48.5t-18.5 48t-47.5 20t-47.5 -20t-18.5 -48h-86q0 63 44.5 107.5t107.5 44.5t107.5 -44.5t44.5 -107.5q0 -61 -45 -106q59 -49 59 -127q0 -69 -48.5 -117.5t-117.5 -48.5t-117.5 48.5t-48.5 117.5
h86q0 -34 22.5 -58t57.5 -24t57.5 24t22.5 58t-21 58.5t-53 27.5h-6zM231 1241l-59 59l133 134h86v-453h137v-82h-362v82h139v336z" />
    <glyph glyph-name="twothirds" unicode="&#x2154;" 
d="M145 307l889 891l66 -65l-889 -891zM291 1214l-60 -59q-51 48 -51 121q0 69 48.5 117.5t117.5 48.5t117.5 -48.5t48.5 -117.5q0 -43 -15.5 -74.5t-56.5 -73.5l-143 -147h215v-82h-332v82l197 203q49 49 49 92q0 35 -22 58.5t-58 23.5q-35 0 -57.5 -24t-22.5 -58
q0 -37 25 -62zM897 244v78q29 0 47.5 20.5t18.5 48.5t-18.5 48t-47.5 20t-47.5 -20t-18.5 -48h-86q0 63 44.5 107.5t107.5 44.5t107.5 -44.5t44.5 -107.5q0 -61 -45 -106q59 -49 59 -127q0 -69 -48.5 -117.5t-117.5 -48.5t-117.5 48.5t-48.5 117.5h86q0 -34 22.5 -58
t57.5 -24t57.5 24t22.5 58t-21 58.5t-53 27.5h-6z" />
    <glyph glyph-name="uni2155" unicode="&#x2155;" 
d="M145 307l889 891l66 -65l-889 -891zM897 -8q-69 0 -117.5 48.5t-48.5 117.5h86q0 -34 22.5 -58t57.5 -24q36 0 58 23.5t22 58.5v22q0 35 -22 59.5t-58 24.5q-43 0 -68 -41l-90 70l54 242h237v-82h-170l-26 -125q32 18 67 18q66 0 114 -48.5t48 -117.5v-22
q0 -69 -48.5 -117.5t-117.5 -48.5zM231 1241l-59 59l133 134h86v-453h137v-82h-362v82h139v336z" />
    <glyph glyph-name="uni2156" unicode="&#x2156;" 
d="M291 1214l-60 -59q-51 48 -51 121q0 69 48.5 117.5t117.5 48.5t117.5 -48.5t48.5 -117.5q0 -43 -15.5 -74.5t-56.5 -73.5l-143 -147h215v-82h-332v82l197 203q49 49 49 92q0 35 -22 58.5t-58 23.5q-35 0 -57.5 -24t-22.5 -58q0 -37 25 -62zM145 307l889 891l66 -65
l-889 -891zM897 -8q-69 0 -117.5 48.5t-48.5 117.5h86q0 -34 22.5 -58t57.5 -24q36 0 58 23.5t22 58.5v22q0 35 -22 59.5t-58 24.5q-43 0 -68 -41l-90 70l54 242h237v-82h-170l-26 -125q32 18 67 18q66 0 114 -48.5t48 -117.5v-22q0 -69 -48.5 -117.5t-117.5 -48.5z" />
    <glyph glyph-name="uni2157" unicode="&#x2157;" 
d="M145 307l889 891l66 -65l-889 -891zM897 -8q-69 0 -117.5 48.5t-48.5 117.5h86q0 -34 22.5 -58t57.5 -24q36 0 58 23.5t22 58.5v22q0 35 -22 59.5t-58 24.5q-43 0 -68 -41l-90 70l54 242h237v-82h-170l-26 -125q32 18 67 18q66 0 114 -48.5t48 -117.5v-22
q0 -69 -48.5 -117.5t-117.5 -48.5zM346 891q-69 0 -117.5 48.5t-48.5 117.5h86q0 -34 22.5 -58t57.5 -24t57.5 24t22.5 58q0 36 -22.5 61t-57.5 25v78q29 0 47.5 20.5t18.5 48.5t-18.5 48t-47.5 20t-47 -20t-18 -48h-86q0 63 44 107.5t107 44.5t107.5 -44.5t44.5 -107.5
q0 -61 -45 -106q59 -49 59 -127q0 -69 -48.5 -117.5t-117.5 -48.5z" />
    <glyph glyph-name="uni2158" unicode="&#x2158;" 
d="M479 899h-86v129h-235v82l237 328l68 -49l-203 -279h133v109h86v-109h56v-82h-56v-129zM145 307l889 891l66 -65l-889 -891zM897 -8q-69 0 -117.5 48.5t-48.5 117.5h86q0 -34 22.5 -58t57.5 -24q36 0 58 23.5t22 58.5v22q0 35 -22 59.5t-58 24.5q-43 0 -68 -41l-90 70
l54 242h237v-82h-170l-26 -125q32 18 67 18q66 0 114 -48.5t48 -117.5v-22q0 -69 -48.5 -117.5t-117.5 -48.5z" />
    <glyph glyph-name="uni2159" unicode="&#x2159;" 
d="M145 307l889 891l66 -65l-889 -891zM899 -8q-69 0 -118.5 48.5t-49.5 117.5v22q0 57 35 101l188 258l68 -50l-107 -143q61 -5 105.5 -53t44.5 -113v-22q0 -69 -49 -117.5t-117 -48.5zM231 1241l-59 59l133 134h86v-453h137v-82h-362v82h139v336zM899 76q35 0 57.5 24
t22.5 58v22q0 35 -22.5 59.5t-57.5 24.5q-36 0 -59 -24.5t-23 -59.5v-22q0 -34 23 -58t59 -24z" />
    <glyph glyph-name="uni215A" unicode="&#x215a;" 
d="M346 891q-69 0 -117.5 48.5t-48.5 117.5h86q0 -34 22.5 -58t57.5 -24q36 0 58 23.5t22 58.5v22q0 35 -22 59.5t-58 24.5q-42 0 -67 -41l-91 70l54 242h237v-82h-170l-26 -125q32 18 67 18q66 0 114 -48.5t48 -117.5v-22q0 -69 -48.5 -117.5t-117.5 -48.5zM145 307
l889 891l66 -65l-889 -891zM899 -8q-69 0 -118.5 48.5t-49.5 117.5v22q0 57 35 101l188 258l68 -50l-107 -143q61 -5 105.5 -53t44.5 -113v-22q0 -69 -49 -117.5t-117 -48.5zM899 76q35 0 57.5 24t22.5 58v22q0 35 -22.5 59.5t-57.5 24.5q-36 0 -59 -24.5t-23 -59.5v-22
q0 -34 23 -58t59 -24z" />
    <glyph glyph-name="oneeighth" unicode="&#x215b;" 
d="M897 -8q69 0 118.5 48.5t49.5 117.5q0 78 -59 127q43 43 43 106t-44.5 107.5t-107.5 44.5t-106 -44.5t-43 -107.5t43 -106q-60 -50 -60 -127q0 -69 48.5 -117.5t117.5 -48.5zM145 307l889 891l66 -65l-889 -891zM231 1241l-59 59l133 134h86v-453h137v-82h-362v82h139
v336zM897 76q-35 0 -57.5 24t-22.5 58q0 36 22.5 60t57.5 24t58.5 -24.5t23.5 -59.5q0 -34 -23.5 -58t-58.5 -24zM897 324q-29 0 -46 19t-17 48t17.5 48.5t45.5 19.5q29 0 47.5 -20t18.5 -48t-18.5 -47.5t-47.5 -19.5z" />
    <glyph glyph-name="threeeighths" unicode="&#x215c;" 
d="M897 -8q69 0 118.5 48.5t49.5 117.5q0 78 -59 127q43 43 43 106t-44.5 107.5t-107.5 44.5t-106 -44.5t-43 -107.5t43 -106q-60 -50 -60 -127q0 -69 48.5 -117.5t117.5 -48.5zM145 307l889 891l66 -65l-889 -891zM346 1143v78h6q26 1 43 21.5t17 47.5q0 28 -18.5 48
t-47.5 20t-47 -20t-18 -48h-86q0 63 44 107.5t107 44.5t107.5 -44.5t44.5 -107.5q0 -61 -45 -106q59 -49 59 -127q0 -69 -48.5 -117.5t-117.5 -48.5t-117.5 48.5t-48.5 117.5h86q0 -34 22.5 -58t57.5 -24t57.5 24t22.5 58t-21 58.5t-53 27.5h-6zM897 76q-35 0 -57.5 24
t-22.5 58q0 36 22.5 60t57.5 24t58.5 -24.5t23.5 -59.5q0 -34 -23.5 -58t-58.5 -24zM897 324q-29 0 -46 19t-17 48t17.5 48.5t45.5 19.5q29 0 47.5 -20t18.5 -48t-18.5 -47.5t-47.5 -19.5z" />
    <glyph glyph-name="fiveeighths" unicode="&#x215d;" 
d="M346 891q-69 0 -117.5 48.5t-48.5 117.5h86q0 -34 22.5 -58t57.5 -24q36 0 58 23.5t22 58.5v22q0 35 -22 59.5t-58 24.5q-42 0 -67 -41l-91 70l54 242h237v-82h-170l-26 -125q32 18 67 18q66 0 114 -48.5t48 -117.5v-22q0 -69 -48.5 -117.5t-117.5 -48.5zM145 307
l889 891l66 -65l-889 -891zM897 -8q69 0 118.5 48.5t49.5 117.5q0 78 -59 127q43 43 43 106t-44.5 107.5t-107.5 44.5t-106 -44.5t-43 -107.5t43 -106q-60 -50 -60 -127q0 -69 48.5 -117.5t117.5 -48.5zM897 76q-35 0 -57.5 24t-22.5 58q0 36 22.5 60t57.5 24t58.5 -24.5
t23.5 -59.5q0 -34 -23.5 -58t-58.5 -24zM897 324q-29 0 -46 19t-17 48t17.5 48.5t45.5 19.5q29 0 47.5 -20t18.5 -48t-18.5 -47.5t-47.5 -19.5z" />
    <glyph glyph-name="seveneighths" unicode="&#x215e;" 
d="M182 1272v162h328v-82l-164 -457l-78 29l154 428h-154v-80h-86zM145 307l889 891l66 -65l-889 -891zM897 -8q69 0 118.5 48.5t49.5 117.5q0 78 -59 127q43 43 43 106t-44.5 107.5t-107.5 44.5t-106 -44.5t-43 -107.5t43 -106q-60 -50 -60 -127q0 -69 48.5 -117.5
t117.5 -48.5zM897 76q-35 0 -57.5 24t-22.5 58q0 36 22.5 60t57.5 24t58.5 -24.5t23.5 -59.5q0 -34 -23.5 -58t-58.5 -24zM897 324q-29 0 -46 19t-17 48t17.5 48.5t45.5 19.5q29 0 47.5 -20t18.5 -48t-18.5 -47.5t-47.5 -19.5z" />
    <glyph glyph-name="uni215F" unicode="&#x215f;" 
d="M145 307l889 891l66 -65l-889 -891zM231 1241l-59 59l133 134h86v-453h137v-82h-362v82h139v336z" />
    <glyph glyph-name="uni2190" unicode="&#x2190;" 
d="M219 518l479 -477l-61 -61l-586 583l586 584l61 -62l-479 -477h975v-90h-975z" />
    <glyph glyph-name="uni2191" unicode="&#x2191;" 
d="M1145 807l-477 479v-1286h-90v1286l-478 -479l-61 61l584 586l583 -586z" />
    <glyph glyph-name="uni2192" unicode="&#x2192;" 
d="M547 41l479 477h-975v90h975l-479 477l61 62l586 -584l-586 -583z" />
    <glyph glyph-name="uni2193" unicode="&#x2193;" 
d="M668 168l477 479l61 -61l-583 -586l-584 586l61 61l478 -479v1286h90v-1286z" />
    <glyph glyph-name="uni2196" unicode="&#x2196;" 
d="M944 969h-676l926 -926l-64 -63l-927 925v-676h-88v828h829v-88z" />
    <glyph glyph-name="uni2197" unicode="&#x2197;" 
d="M977 969h-676v88h829v-828h-88v676l-927 -925l-64 63z" />
    <glyph glyph-name="uni2198" unicode="&#x2198;" 
d="M301 88h676l-926 926l64 63l927 -925v675h88v-827h-829v88z" />
    <glyph glyph-name="uni2199" unicode="&#x2199;" 
d="M268 88h676v-88h-829v827h88v-675l927 925l64 -63z" />
    <glyph glyph-name="partialdiff" unicode="&#x2202;" 
d="M987 1130q0 108 -64 170t-198 62q-137 0 -243 -88t-132 -234l-2 -16h-92l2 16q16 89 52.5 160.5t84 118t107 77.5t120 44.5t123.5 13.5q64 0 121 -17t106 -51.5t78 -95.5t29 -141q0 -60 -10 -109l-125 -647q-20 -110 -70 -193t-119 -129.5t-143.5 -68.5t-154.5 -22
q-64 0 -121 17t-106 51.5t-78 95.5t-29 141q0 20 2.5 45t5.5 43t8.5 48.5t7.5 45.5q20 110 70 193t118.5 129.5t143 69t154.5 22.5q99 0 177 -44t108 -110l59 313q10 58 10 90zM477 72q137 0 243 87.5t132 233.5q2 14 10 52t11.5 63t3.5 49q0 108 -65.5 169.5t-199.5 61.5
q-137 0 -241.5 -87.5t-130.5 -233.5q-2 -14 -10 -52t-11.5 -63t-3.5 -49q0 -108 64 -169.5t198 -61.5z" />
    <glyph glyph-name="Delta" unicode="&#x2206;" 
d="M1161 0h-1077l539 1454zM1006 111l-383 1034l-383 -1034h766z" />
    <glyph glyph-name="product" unicode="&#x220f;" 
d="M170 0v1434h905v-1434h-112v1325h-680v-1325h-113z" />
    <glyph glyph-name="summation" unicode="&#x2211;" 
d="M98 -291l658 819l-658 820v86h1049v-86h-930l657 -820l-657 -819h930v-86h-1049v86z" />
    <glyph glyph-name="minus" unicode="&#x2212;" 
d="M1028 528h-811v93h811v-93z" />
    <glyph glyph-name="radical" unicode="&#x221a;" 
d="M502 96l395 1338h209v-86h-141l-398 -1348h-131l-157 528h-140v86h209z" />
    <glyph glyph-name="infinity" unicode="&#x221e;" 
d="M152 688q0 107 74.5 182.5t181.5 75.5q65 0 122 -30t91 -82q36 52 91.5 82t121.5 30q107 0 182.5 -75.5t75.5 -182.5t-75.5 -181.5t-182.5 -74.5q-66 0 -121.5 29.5t-91.5 81.5q-34 -51 -90.5 -81t-122.5 -30q-107 0 -181.5 74.5t-74.5 181.5zM666 688q0 -71 48.5 -120.5
t119.5 -49.5q72 0 121 49.5t49 120.5t-49.5 121.5t-120.5 50.5q-70 0 -118 -48t-50 -118v-6zM240 688q0 -71 48.5 -120.5t119.5 -49.5q72 0 121 49.5t49 120.5v6q-3 70 -51.5 118t-118.5 48q-71 0 -119.5 -50.5t-48.5 -121.5z" />
    <glyph glyph-name="integral" unicode="&#x222b;" 
d="M668 1223v-1389q0 -108 -47 -159.5t-172 -51.5h-242v86h242q78 0 104.5 29t26.5 96v1389q0 108 47 159.5t172 51.5h241v-86h-241q-78 0 -104.5 -29t-26.5 -96z" />
    <glyph glyph-name="approxequal" unicode="&#x2248;" 
d="M1051 811l-326 -176l-209 149l-276 -149l-43 78l325 176l209 -150l277 150zM1051 412l-326 -176l-209 149l-276 -149l-43 77l325 176l209 -149l277 149z" />
    <glyph glyph-name="notequal" unicode="&#x2260;" 
d="M1028 317h-493l-134 -239l-75 45l108 194h-217v93h811v-93zM920 1004l-109 -195h217v-92h-811v92h492l135 240z" />
    <glyph glyph-name="lessequal" unicode="&#x2264;" 
d="M1028 0h-811v92h811v-92zM1028 244l-811 368v90l811 369v-98l-692 -316l692 -315v-98z" />
    <glyph glyph-name="greaterequal" unicode="&#x2265;" 
d="M217 0h811v92h-811v-92zM1028 612l-811 -368v98l692 315l-692 316v98l811 -369v-90z" />
    <glyph glyph-name="uni25A0" unicode="&#x25a0;" 
d="M94 0v1057h1057v-1057h-1057z" />
    <glyph glyph-name="uni25A1" unicode="&#x25a1;" 
d="M94 0v1057h1057v-1057h-1057zM184 967v-877h877v877h-877z" />
    <glyph glyph-name="lozenge" unicode="&#x25ca;" 
d="M1149 717l-526 -737l-527 737l527 737zM211 717l412 -576l411 576l-411 575z" />
    <glyph glyph-name="uni25CB" unicode="&#x25cb;" 
d="M70 532q0 112 44 214.5t118 176.5t176.5 118t214.5 44t214.5 -44t176.5 -118t118 -176.5t44 -214.5q0 -150 -74 -277t-201.5 -201t-277.5 -74t-277.5 74t-201.5 201t-74 277zM158 532q0 -192 136.5 -328t328.5 -136t328 136t136 328t-136 328.5t-328 136.5t-328.5 -136.5
t-136.5 -328.5z" />
    <glyph glyph-name="uni25CF" unicode="&#x25cf;" 
d="M70 532q0 112 44 214.5t118 176.5t176.5 118t214.5 44t214.5 -44t176.5 -118t118 -176.5t44 -214.5q0 -150 -74 -277t-201.5 -201t-277.5 -74t-277.5 74t-201.5 201t-74 277z" />
    <glyph glyph-name="apple" 
d="M317 53q-55 12 -77.5 49.5t-22.5 110.5v524q-57 0 -76 49q-49 19 -49 76q0 35 23 58q-74 38 -74 120q0 38 20 71t54 50q-23 23 -23 58q0 31 18.5 54t47.5 27q12 42 48 70.5t81 28.5q46 0 90 -35q14 39 48.5 64.5t76.5 25.5q69 0 112 -63q28 14 60 14q38 0 71 -21t50 -55
q25 25 57 25q26 0 46.5 -13.5t29.5 -35.5q44 -11 74 -48t30 -83q0 -78 -69 -117v-78h8q93 0 128.5 -37t35.5 -127v-440q0 -90 -35.5 -127t-128.5 -37h-8q0 -72 -22.5 -109t-78.5 -49v-53h-545v53zM862 213v831q-32 8 -59 35h-170q-39 -39 -94 -39q-69 0 -109 56
q-15 -6 -33 -6q-37 0 -59 22q-11 -19 -21 -31v-868q0 -38 14.5 -54t51.5 -16h414q36 0 50.5 15.5t14.5 54.5zM174 946v-39q-19 0 -31 -13.5t-12 -31.5q0 -19 12 -31t31 -12q0 -19 12 -31t31 -12v301q38 0 65.5 24.5t30.5 61.5v8h39q0 -20 13 -31.5t32 -11.5t31 12t12 31h39
q0 -28 -18 -53q25 -39 78 -39q40 0 68 27.5t28 67.5h168q0 -40 27 -67.5t67 -27.5t68 27.5t28 67.5t-28 68t-68 28q0 19 -13 32t-32 13q-18 0 -30.5 -12t-12.5 -33h-39q0 40 -28 68t-68 28q-30 0 -54.5 -17t-33.5 -44q25 -8 41 -29.5t16 -48.5h-39q0 19 -13 31t-32 12
t-31 -12t-12 -31h-39q0 31 19.5 53t48.5 27q12 37 39 61q-12 22 -34.5 34.5t-47.5 12.5q-38 0 -65 -27t-29 -65q14 -31 14 -59h-39q0 40 -28 68t-68 28q-31 0 -55 -17t-33 -45q27 -8 43 -29t16 -50h-39q0 19 -13 32t-32 13t-31 -13t-12 -32q0 -17 10 -29t25 -14h8v-39h-8
q-37 -3 -61.5 -31t-24.5 -66t24.5 -65.5t61.5 -28.5h8zM1034 375v440q0 38 -14 54t-49 16h-8v-580h8q35 0 49 16t14 54zM401 211v768h31v-768h-31zM745 211v768h31v-768h-31zM631 211v768h31v-768h-31zM516 211v768h31v-768h-31z" />
    <glyph glyph-name="horn" 
d="M502 815v103q32 0 55 22.5t23 54.5q0 23 -13 43l90 47q25 -48 25 -90q0 -75 -52.5 -127.5t-127.5 -52.5z" />
    <glyph glyph-name="commaaccent" 
d="M762 -182l-205 -205l-74 76l205 202z" />
    <glyph glyph-name="circumflex.case" 
d="M911 1511l-288 138l-289 -138l-43 91l332 157l331 -157z" />
    <glyph glyph-name="tilde.case" 
d="M973 1665l-273 -145l-161 116l-220 -116l-47 88l273 145l162 -117l219 117z" />
    <glyph glyph-name="macron.case" 
d="M942 1585h-639v103h639v-103z" />
    <glyph glyph-name="breve.case" 
d="M684 1522h-123q-94 0 -160.5 66.5t-66.5 160.5h100q0 -54 36.5 -90.5t90.5 -36.5h123q54 0 90.5 36.5t36.5 90.5h100q0 -94 -66.5 -160.5t-160.5 -66.5z" />
    <glyph glyph-name="dotaccent.case" 
d="M545 1559v155h155v-155h-155z" />
    <glyph glyph-name="ring.case" 
d="M389 1567q0 97 68.5 166t165.5 69t166 -69t69 -166t-69 -165.5t-166 -68.5t-165.5 68.5t-68.5 165.5zM489 1567q0 -55 39 -94t95 -39t95.5 39t39.5 94t-40 95t-95 40t-94.5 -39.5t-39.5 -95.5z" />
    <glyph glyph-name="cedilla.case" 
d="M440 -274h172v172h103v-275h-275v103z" />
    <glyph glyph-name="hungarumlaut.case" 
d="M315 1548l260 72l-26 98l-260 -71zM956 1626l-260 -72l-26 99l260 71z" />
    <glyph glyph-name="ogonek.case" 
d="M674 -281v-102q-20 -4 -62 -4q-95 0 -148.5 58.5t-53.5 133.5q0 135 104 195h160q-72 -28 -118 -78t-46 -104q0 -47 29 -76t86 -29q25 0 49 6z" />
    <glyph glyph-name="caron.case" 
d="M623 1622l288 137l43 -90l-331 -158l-332 158l43 90z" />
    <glyph glyph-name="grave.case" 
d="M883 1511l-547 150l26 98l547 -149z" />
    <glyph glyph-name="acute.case" 
d="M909 1661l-547 -150l-26 99l547 149z" />
    <glyph glyph-name="dieresis.case" 
d="M303 1559v155h156v-155h-156zM786 1559v155h156v-155h-156z" />
    <glyph glyph-name="a.alt" 
d="M621 -20q-62 0 -119 12.5t-111.5 43.5t-94.5 77t-64.5 118t-24.5 162v279q0 90 24.5 162t64.5 118t94.5 77t111.5 43.5t119 12.5q77 0 149.5 -33.5t110.5 -95.5v101h153v-1057h-153v109q-38 -62 -110.5 -95.5t-149.5 -33.5zM360 674v-283q0 -126 75.5 -195t185.5 -69
t185 69t75 195v283q0 126 -75 195t-185 69t-185.5 -69t-75.5 -195z" />
    <glyph glyph-name="aacute.alt" 
d="M621 -20q-62 0 -119 12.5t-111.5 43.5t-94.5 77t-64.5 118t-24.5 162v279q0 90 24.5 162t64.5 118t94.5 77t111.5 43.5t119 12.5q77 0 149.5 -33.5t110.5 -95.5v101h153v-1057h-153v109q-38 -62 -110.5 -95.5t-149.5 -33.5zM360 674v-283q0 -126 75.5 -195t185.5 -69
t185 69t75 195v283q0 126 -75 195t-185 69t-185.5 -69t-75.5 -195zM907 1346l-547 -150l-26 98l547 150z" />
    <glyph glyph-name="abreve.alt" 
d="M621 -20q-62 0 -119 12.5t-111.5 43.5t-94.5 77t-64.5 118t-24.5 162v279q0 90 24.5 162t64.5 118t94.5 77t111.5 43.5t119 12.5q77 0 149.5 -33.5t110.5 -95.5v101h153v-1057h-153v109q-38 -62 -110.5 -95.5t-149.5 -33.5zM360 674v-283q0 -126 75.5 -195t185.5 -69
t185 69t75 195v283q0 126 -75 195t-185 69t-185.5 -69t-75.5 -195zM682 1206h-123q-94 0 -160.5 67t-66.5 161h100q0 -54 36.5 -90.5t90.5 -36.5h123q54 0 90.5 36.5t36.5 90.5h100q0 -94 -66.5 -161t-160.5 -67z" />
    <glyph glyph-name="acircumflex.alt" 
d="M621 -20q-62 0 -119 12.5t-111.5 43.5t-94.5 77t-64.5 118t-24.5 162v279q0 90 24.5 162t64.5 118t94.5 77t111.5 43.5t119 12.5q77 0 149.5 -33.5t110.5 -95.5v101h153v-1057h-153v109q-38 -62 -110.5 -95.5t-149.5 -33.5zM360 674v-283q0 -126 75.5 -195t185.5 -69
t185 69t75 195v283q0 126 -75 195t-185 69t-185.5 -69t-75.5 -195zM909 1196l-288 137l-289 -137l-43 90l332 158l331 -158z" />
    <glyph glyph-name="adieresis.alt" 
d="M621 -20q-62 0 -119 12.5t-111.5 43.5t-94.5 77t-64.5 118t-24.5 162v279q0 90 24.5 162t64.5 118t94.5 77t111.5 43.5t119 12.5q77 0 149.5 -33.5t110.5 -95.5v101h153v-1057h-153v109q-38 -62 -110.5 -95.5t-149.5 -33.5zM360 674v-283q0 -126 75.5 -195t185.5 -69
t185 69t75 195v283q0 126 -75 195t-185 69t-185.5 -69t-75.5 -195zM301 1243v156h156v-156h-156zM784 1243v156h156v-156h-156z" />
    <glyph glyph-name="agrave.alt" 
d="M621 -20q-62 0 -119 12.5t-111.5 43.5t-94.5 77t-64.5 118t-24.5 162v279q0 90 24.5 162t64.5 118t94.5 77t111.5 43.5t119 12.5q77 0 149.5 -33.5t110.5 -95.5v101h153v-1057h-153v109q-38 -62 -110.5 -95.5t-149.5 -33.5zM360 674v-283q0 -126 75.5 -195t185.5 -69
t185 69t75 195v283q0 126 -75 195t-185 69t-185.5 -69t-75.5 -195zM881 1196l-547 150l26 98l547 -150z" />
    <glyph glyph-name="amacron.alt" 
d="M621 -20q-62 0 -119 12.5t-111.5 43.5t-94.5 77t-64.5 118t-24.5 162v279q0 90 24.5 162t64.5 118t94.5 77t111.5 43.5t119 12.5q77 0 149.5 -33.5t110.5 -95.5v101h153v-1057h-153v109q-38 -62 -110.5 -95.5t-149.5 -33.5zM360 674v-283q0 -126 75.5 -195t185.5 -69
t185 69t75 195v283q0 126 -75 195t-185 69t-185.5 -69t-75.5 -195zM940 1270h-639v102h639v-102z" />
    <glyph glyph-name="aogonek.alt" 
d="M360 674v-283q0 -126 75.5 -195t185.5 -69t185 69t75 195v283q0 126 -75 195t-185 69t-185.5 -69t-75.5 -195zM1034 1057v-1057q-72 -28 -118 -78t-46 -104q0 -47 29 -76t86 -29q25 0 49 6v-102q-20 -4 -61 -4q-95 0 -149 58.5t-54 133.5q0 137 111 195v109
q-38 -62 -110.5 -95.5t-149.5 -33.5q-62 0 -119 12.5t-111.5 43.5t-94.5 77t-64.5 118t-24.5 162v279q0 90 24.5 162t64.5 118t94.5 77t111.5 43.5t119 12.5q77 0 149.5 -33.5t110.5 -95.5v101h153z" />
    <glyph glyph-name="aring.alt" 
d="M387 1219q0 97 68.5 166t165.5 69t166 -69t69 -166q0 -101 -78 -172q70 -39 103 -91v101h153v-1057h-153v109q-38 -62 -110.5 -95.5t-149.5 -33.5q-62 0 -119 12.5t-111.5 43.5t-94.5 77t-64.5 118t-24.5 162v279q0 156 67.5 251t176.5 134q-64 71 -64 162zM360 674v-283
q0 -126 75.5 -195t185.5 -69t185 69t75 195v283q0 126 -75 195t-185 69t-185.5 -69t-75.5 -195zM487 1219q0 -55 39.5 -94.5t94.5 -39.5q56 0 95.5 39.5t39.5 94.5t-40 95t-95 40t-94.5 -39.5t-39.5 -95.5z" />
    <glyph glyph-name="aringacute.alt" 
d="M387 1219q0 97 68.5 166t165.5 69t166 -69t69 -166q0 -101 -78 -172q70 -39 103 -91v101h153v-1057h-153v109q-38 -62 -110.5 -95.5t-149.5 -33.5q-62 0 -119 12.5t-111.5 43.5t-94.5 77t-64.5 118t-24.5 162v279q0 156 67.5 251t176.5 134q-64 71 -64 162zM360 674v-283
q0 -126 75.5 -195t185.5 -69t185 69t75 195v283q0 126 -75 195t-185 69t-185.5 -69t-75.5 -195zM487 1219q0 -55 39.5 -94.5t94.5 -39.5q56 0 95.5 39.5t39.5 94.5t-40 95t-95 40t-94.5 -39.5t-39.5 -95.5zM907 1661l-547 -150l-26 99l547 149z" />
    <glyph glyph-name="atilde.alt" 
d="M621 -20q-62 0 -119 12.5t-111.5 43.5t-94.5 77t-64.5 118t-24.5 162v279q0 90 24.5 162t64.5 118t94.5 77t111.5 43.5t119 12.5q77 0 149.5 -33.5t110.5 -95.5v101h153v-1057h-153v109q-38 -62 -110.5 -95.5t-149.5 -33.5zM360 674v-283q0 -126 75.5 -195t185.5 -69
t185 69t75 195v283q0 126 -75 195t-185 69t-185.5 -69t-75.5 -195zM971 1350l-273 -146l-161 117l-220 -117l-47 88l273 146l162 -117l219 117z" />
    <glyph glyph-name="uni0227.alt" 
d="M621 -20q-62 0 -119 12.5t-111.5 43.5t-94.5 77t-64.5 118t-24.5 162v279q0 90 24.5 162t64.5 118t94.5 77t111.5 43.5t119 12.5q77 0 149.5 -33.5t110.5 -95.5v101h153v-1057h-153v109q-38 -62 -110.5 -95.5t-149.5 -33.5zM360 674v-283q0 -126 75.5 -195t185.5 -69
t185 69t75 195v283q0 126 -75 195t-185 69t-185.5 -69t-75.5 -195zM543 1243v156h155v-156h-155z" />
    <glyph glyph-name="uni1EA1.alt" 
d="M621 -20q-62 0 -119 12.5t-111.5 43.5t-94.5 77t-64.5 118t-24.5 162v279q0 90 24.5 162t64.5 118t94.5 77t111.5 43.5t119 12.5q77 0 149.5 -33.5t110.5 -95.5v101h153v-1057h-153v109q-38 -62 -110.5 -95.5t-149.5 -33.5zM360 674v-283q0 -126 75.5 -195t185.5 -69
t185 69t75 195v283q0 126 -75 195t-185 69t-185.5 -69t-75.5 -195zM543 -334v156h155v-156h-155z" />
    <glyph glyph-name="zero.denominator" 
d="M623 -12q-107 0 -182.5 76.5t-75.5 183.5v336q0 107 75.5 183.5t182.5 76.5t183.5 -76.5t76.5 -183.5v-336q0 -107 -76.5 -183.5t-183.5 -76.5zM623 117q56 0 91.5 38t35.5 93v252l-252 -250v-2q0 -55 34.5 -93t90.5 -38zM498 584v-252l252 252q0 55 -35.5 93t-91.5 38
t-90.5 -38t-34.5 -93z" />
    <glyph glyph-name="one.denominator" 
d="M463 535l-92 90l204 206h134v-702h217v-129h-566v129h215v518z" />
    <glyph glyph-name="two.denominator" 
d="M539 489l-93 -92q-79 76 -79 187q0 107 75.5 183.5t182.5 76.5q108 0 184 -76t76 -184q0 -63 -25 -112.5t-88 -115.5l-223 -227h336v-129h-518v129l303 311q46 47 64 78.5t18 65.5q0 55 -35.5 93t-91.5 38q-55 0 -90 -38t-35 -93q0 -56 39 -95z" />
    <glyph glyph-name="three.denominator" 
d="M612 -12q-107 0 -182.5 76.5t-75.5 183.5h133q0 -55 34.5 -93t90.5 -38t91.5 38t35.5 93t-35.5 93t-91.5 38v123h9q42 3 68 33.5t26 72.5q0 45 -29 76t-74 31q-44 0 -72 -31t-28 -76h-133q0 98 68 167t165 69t166.5 -69t69.5 -167q0 -95 -72 -164q96 -76 96 -196
q0 -107 -76.5 -183.5t-183.5 -76.5z" />
    <glyph glyph-name="four.denominator" 
d="M815 0h-133v201h-367v129l371 508l105 -76l-316 -432h207v168h133v-168h86v-129h-86v-201z" />
    <glyph glyph-name="five.denominator" 
d="M621 -12q-109 0 -185 76t-76 184h134q0 -55 35.5 -93t91.5 -38q54 0 89 38t35 93v31q0 55 -35 93t-89 38q-66 0 -107 -62l-143 109l84 374h370v-129h-266l-43 -196q52 33 109 33q104 0 179 -76.5t75 -183.5v-31q0 -107 -75.5 -183.5t-182.5 -76.5z" />
    <glyph glyph-name="six.denominator" 
d="M608 -12q-107 0 -183.5 76.5t-76.5 183.5v31q0 86 53 155l295 404l105 -76l-166 -225q101 -12 163 -82t68 -176v-31q0 -107 -75.5 -183.5t-182.5 -76.5zM608 117q56 0 90.5 38t34.5 93v31q0 55 -34.5 93t-90.5 38t-91.5 -38t-35.5 -93v-31q0 -55 35.5 -93t91.5 -38z" />
    <glyph glyph-name="seven.denominator" 
d="M369 580v251h510v-129l-258 -708l-121 43l241 665h-239v-122h-133z" />
    <glyph glyph-name="eight.denominator" 
d="M623 -12q-107 0 -182.5 76.5t-75.5 183.5q0 120 92 196q-68 68 -68 164q0 98 68.5 167t165.5 69q98 0 166.5 -69t68.5 -167q0 -97 -67 -164q92 -76 92 -196q0 -107 -76.5 -183.5t-183.5 -76.5zM623 117q55 0 91 38t36 93t-36 92t-91 37t-90 -37t-35 -92t35 -93t90 -38z
M623 504q45 0 73.5 30t28.5 74q0 45 -28.5 76t-73.5 31q-44 0 -72.5 -31t-28.5 -76q0 -43 28.5 -73.5t72.5 -30.5z" />
    <glyph glyph-name="nine.denominator" 
d="M637 844q107 0 183.5 -76.5t76.5 -183.5v-31q0 -87 -53 -156l-295 -403l-105 76l166 225q-101 12 -163 82t-68 176v31q0 107 75.5 183.5t182.5 76.5zM637 715q-56 0 -90.5 -38t-34.5 -93v-31q0 -55 34.5 -93t90.5 -38t91.5 38t35.5 93v31q0 55 -35.5 93t-91.5 38z" />
    <glyph glyph-name="zero.numerator" 
d="M623 590q-107 0 -182.5 76.5t-75.5 183.5v336q0 107 75.5 183.5t182.5 76.5t183.5 -76.5t76.5 -183.5v-336q0 -107 -76.5 -183.5t-183.5 -76.5zM623 719q56 0 91.5 38t35.5 93v252l-252 -250v-2q0 -55 34.5 -93t90.5 -38zM498 1186v-252l252 252q0 55 -35.5 93t-91.5 38
t-90.5 -38t-34.5 -93z" />
    <glyph glyph-name="one.numerator" 
d="M463 1137l-92 90l204 207h134v-703h217v-129h-566v129h215v518z" />
    <glyph glyph-name="two.numerator" 
d="M539 1092l-93 -93q-79 76 -79 187q0 107 75.5 183.5t182.5 76.5q108 0 184 -76t76 -184q0 -63 -25 -112.5t-88 -115.5l-223 -227h336v-129h-518v129l303 311q46 47 64 78.5t18 65.5q0 55 -35.5 93t-91.5 38q-55 0 -90 -38t-35 -93t39 -94z" />
    <glyph glyph-name="three.numerator" 
d="M612 590q-107 0 -182.5 76.5t-75.5 183.5h133q0 -55 34.5 -93t90.5 -38t91.5 38t35.5 93t-35.5 93t-91.5 38v123h9q42 3 68 33.5t26 72.5q0 45 -29 76t-74 31q-44 0 -72 -31t-28 -76h-133q0 98 68 167t165 69t166.5 -69t69.5 -167q0 -94 -72 -163q96 -76 96 -197
q0 -107 -76.5 -183.5t-183.5 -76.5z" />
    <glyph glyph-name="four.numerator" 
d="M815 602h-133v201h-367v129l371 508l105 -76l-316 -432h207v168h133v-168h86v-129h-86v-201z" />
    <glyph glyph-name="five.numerator" 
d="M621 590q-109 0 -185 76t-76 184h134q0 -55 35.5 -93t91.5 -38q54 0 89 38t35 93v31q0 55 -35 93t-89 38q-66 0 -107 -62l-143 109l84 375h370v-129h-266l-43 -197q52 33 109 33q104 0 179 -76.5t75 -183.5v-31q0 -107 -75.5 -183.5t-182.5 -76.5z" />
    <glyph glyph-name="six.numerator" 
d="M608 590q-107 0 -183.5 76.5t-76.5 183.5v31q0 86 53 155l295 404l105 -76l-166 -225q101 -12 163 -82t68 -176v-31q0 -107 -75.5 -183.5t-182.5 -76.5zM608 719q56 0 90.5 38t34.5 93v31q0 55 -34.5 93t-90.5 38t-91.5 -38t-35.5 -93v-31q0 -55 35.5 -93t91.5 -38z" />
    <glyph glyph-name="seven.numerator" 
d="M369 1182v252h510v-129l-258 -709l-121 43l241 666h-239v-123h-133z" />
    <glyph glyph-name="eight.numerator" 
d="M623 590q-107 0 -182.5 76.5t-75.5 183.5q0 121 92 197q-68 68 -68 163q0 98 68.5 167t165.5 69q98 0 166.5 -69t68.5 -167q0 -96 -67 -163q92 -76 92 -197q0 -107 -76.5 -183.5t-183.5 -76.5zM623 719q55 0 91 38t36 93t-36 92t-91 37t-90 -37t-35 -92t35 -93t90 -38z
M623 1106q45 0 73.5 30t28.5 74q0 45 -28.5 76t-73.5 31q-44 0 -72.5 -31t-28.5 -76q0 -43 28.5 -73.5t72.5 -30.5z" />
    <glyph glyph-name="nine.numerator" 
d="M637 1446q107 0 183.5 -76.5t76.5 -183.5v-31q0 -87 -53 -156l-295 -403l-105 76l166 225q-101 12 -163 82t-68 176v31q0 107 75.5 183.5t182.5 76.5zM637 1317q-56 0 -90.5 -38t-34.5 -93v-31q0 -55 34.5 -93t90.5 -38t91.5 38t35.5 93v31q0 55 -35.5 93t-91.5 38z" />
    <glyph glyph-name="a.superior" 
d="M563 809q-91 0 -151 46t-60 136q0 61 32 112.5t101 74.5q78 24 258 34q-3 30 -12 50q-30 61 -113 61q-94 0 -118 -80h-135q8 59 35 102t65 64.5t75.5 31t77.5 9.5q35 0 68 -6.5t69 -24.5t63 -45.5t44 -74t17 -105.5v-373h-134v58q-61 -70 -182 -70zM584 938
q161 0 161 133v25q-91 -5 -147 -14t-88 -29q-25 -13 -25 -49q0 -66 99 -66z" />
    <glyph glyph-name="b.superior" 
d="M643 809q-47 0 -88.5 22t-52.5 48v-58h-133v832h133v-271q11 25 52.5 46.5t88.5 21.5q41 0 81.5 -14t78 -42.5t61 -80t23.5 -119.5v-127q0 -68 -23.5 -120t-61 -81t-78 -43t-81.5 -14zM629 938q59 0 92 33t33 100v119q0 66 -33 98.5t-92 32.5q-60 0 -93.5 -32.5
t-33.5 -98.5v-119q0 -67 33.5 -100t93.5 -33z" />
    <glyph glyph-name="c.superior" 
d="M629 809q-44 0 -86 12t-83 39t-66 80.5t-25 126.5v127q0 59 17 105.5t43.5 74t62.5 45.5t69 24.5t68 6.5q41 0 80 -10.5t79 -34t66.5 -69.5t32.5 -109h-137q-15 96 -121 96q-60 0 -93.5 -33.5t-33.5 -99.5v-119q0 -67 33.5 -100t93.5 -33q105 0 123 94h135
q-6 -63 -32.5 -109t-66.5 -69.5t-79 -34t-80 -10.5z" />
    <glyph glyph-name="d.superior" 
d="M604 809q-42 0 -82.5 14t-78 43t-60.5 81t-23 120v127q0 68 23 119.5t60.5 80t78 42.5t82.5 14q47 0 87.5 -21.5t51.5 -46.5v271h134v-832h-134v58q-11 -26 -51.5 -48t-87.5 -22zM608 938q60 0 97.5 33.5t37.5 99.5v119q0 66 -33 98.5t-92 32.5t-91.5 -32.5t-32.5 -98.5
v-119q0 -66 31 -99.5t83 -33.5z" />
    <glyph glyph-name="e.superior" 
d="M625 809q-44 0 -85.5 12t-83 39t-66.5 80.5t-25 126.5v127q0 59 17.5 105.5t44 74t62.5 45.5t69 24.5t67 6.5q44 0 85 -11.5t82 -38t66 -80t25 -126.5v-113h-385v-10q0 -67 33.5 -100t93.5 -33q94 0 118 78h136q-8 -58 -35 -101t-65 -64.5t-76 -31.5t-78 -10zM498 1198
h252q0 60 -33.5 92.5t-91.5 32.5q-60 0 -93.5 -31.5t-33.5 -93.5z" />
    <glyph glyph-name="f.superior" 
d="M506 821v486h-174v127h174v73q0 146 147 146h244v-129h-201q-36 0 -46.5 -12t-10.5 -48v-30h258v-127h-258v-486h-133z" />
    <glyph glyph-name="g.superior" 
d="M618 590q-41 0 -80 10.5t-78 33.5t-65.5 68.5t-32.5 108.5h134q21 -92 122 -92q59 0 92 33.5t33 99.5v66q-11 -26 -51.5 -48t-87.5 -22q-42 0 -82.5 14t-78 43t-60.5 81t-23 120v88q0 68 23 119.5t60.5 80t78 42.5t82.5 14q47 0 87.5 -21.5t51.5 -46.5v52h134v-586
q0 -73 -25 -126.5t-66 -80.5t-82.5 -39t-85.5 -12zM618 977q59 0 92 32.5t33 98.5v82q0 66 -33 98.5t-92 32.5t-91.5 -32.5t-32.5 -98.5v-82q0 -66 32.5 -98.5t91.5 -32.5z" />
    <glyph glyph-name="h.superior" 
d="M367 821v832h133v-271q11 25 52 46.5t89 21.5q41 0 81.5 -14t78 -42.5t61 -80t23.5 -119.5v-373h-133v369q0 66 -33.5 98.5t-93.5 32.5q-59 0 -92 -32.5t-33 -98.5v-369h-133z" />
    <glyph glyph-name="i.superior" 
d="M344 821v129h217v357h-158v127h291v-484h215v-129h-565zM547 1493v160h160v-160h-160z" />
    <glyph glyph-name="j.superior" 
d="M322 602v129h260q36 0 46.5 12t10.5 48v516h-258v127h391v-684q0 -148 -147 -148h-303zM623 1493v160h159v-160h-159z" />
    <glyph glyph-name="k.superior" 
d="M516 1653v-459l221 240h160l-221 -240l256 -373h-156l-188 277l-72 -78v-199h-133v832h133z" />
    <glyph glyph-name="l.superior" 
d="M342 821v129h215v574h-156v129h289v-703h217v-129h-565z" />
    <glyph glyph-name="m.superior" 
d="M459 821h-133v613h133v-25q22 35 80 35q55 0 88 -41q39 47 114 47q87 0 135 -48.5t48 -127.5v-453h-133v453q0 22 -14.5 34.5t-35.5 12.5q-22 0 -35.5 -12t-13.5 -35v-453h-133v453q0 23 -14 35t-37 12q-21 0 -35 -12.5t-14 -34.5v-453z" />
    <glyph glyph-name="o.superior" 
d="M623 938q60 0 93.5 33t33.5 100v119q0 66 -33.5 99.5t-93.5 33.5q-59 0 -92 -33.5t-33 -99.5v-119q0 -67 33 -100t92 -33zM623 809q-44 0 -85 12t-82 39t-66 80.5t-25 126.5v127q0 73 25 126.5t66 80t82 38t85 11.5q35 0 68 -6.5t69 -24.5t62.5 -45.5t43.5 -74t17 -105.5
v-127q0 -73 -25 -126.5t-66 -80.5t-83 -39t-86 -12z" />
    <glyph glyph-name="p.superior" 
d="M369 602v832h133v-52q11 25 52.5 46.5t88.5 21.5q41 0 81.5 -14t78 -42.5t61 -80t23.5 -119.5v-127q0 -68 -23.5 -120t-61 -81t-78 -43t-81.5 -14q-47 0 -88.5 22t-52.5 48v-277h-133zM629 938q59 0 92 33t33 100v119q0 66 -33 98.5t-92 32.5q-60 0 -93.5 -32.5
t-33.5 -98.5v-119q0 -67 33.5 -100t93.5 -33z" />
    <glyph glyph-name="q.superior" 
d="M743 602v277q-11 -26 -51.5 -48t-87.5 -22q-42 0 -82.5 14t-78 43t-60.5 81t-23 120v127q0 68 23 119.5t60.5 80t78 42.5t82.5 14q47 0 87.5 -21.5t51.5 -46.5v52h134v-832h-134zM608 938q60 0 97.5 33.5t37.5 99.5v119q0 66 -33 98.5t-92 32.5t-91.5 -32.5t-32.5 -98.5
v-119q0 -66 31 -99.5t83 -33.5z" />
    <glyph glyph-name="r.superior" 
d="M313 821v129h193v357h-133v127h266v-58q11 26 52.5 48t88.5 22h158v-129h-172q-60 0 -93.5 -32.5t-33.5 -98.5v-236h240v-129h-566z" />
    <glyph glyph-name="s.superior" 
d="M641 809q-112 0 -186 54.5t-78 154.5h137q6 -39 42 -59.5t87 -20.5q94 0 94 57q0 19 -12.5 32t-25.5 18t-35 10l-117 28q-73 20 -114.5 62.5t-41.5 124.5q0 89 62.5 134.5t162.5 45.5q104 0 166.5 -48.5t71.5 -146.5h-139q-14 68 -109 68q-31 0 -56.5 -13t-25.5 -44
q0 -35 66 -49l112 -29q91 -24 130.5 -67t39.5 -130q-1 -88 -64 -135t-167 -47z" />
    <glyph glyph-name="t.superior" 
d="M891 821h-246q-145 0 -145 146v340h-176v127h176v139h133v-139h258v-127h-258v-297q0 -37 10 -48.5t47 -11.5h201v-129z" />
    <glyph glyph-name="u.superior" 
d="M602 809q-41 0 -82 15.5t-76 45.5t-57 81.5t-22 115.5v367h133v-365q0 -64 33 -97.5t90 -33.5t89.5 33t32.5 100v363h134v-613h-134v58q-11 -27 -52 -48.5t-89 -21.5z" />
    <glyph glyph-name="v.superior" 
d="M559 821l-221 613h139l146 -420l147 420h139l-221 -613h-129z" />
    <glyph glyph-name="w.superior" 
d="M420 821l-98 613h131l53 -414l61 319h113l59 -319l54 414h133l-99 -613h-125l-79 363l-78 -363h-125z" />
    <glyph glyph-name="x.superior" 
d="M338 821l207 316l-199 297h148l129 -199l131 199h145l-199 -297l209 -316h-147l-139 213l-140 -213h-145z" />
    <glyph glyph-name="y.superior" 
d="M412 602v129h41q43 0 56.5 11t33.5 57l12 35l-217 600h139l146 -420l147 420h139l-270 -750q-28 -82 -137 -82h-90z" />
    <glyph glyph-name="z.superior" 
d="M840 1307l-281 -357h289v-129h-457v129l281 357h-271v127h439v-127z" />
    <glyph glyph-name="a.inferior" 
d="M563 -211q-91 0 -151 46t-60 136q0 61 32 112.5t101 74.5q82 25 258 35q-3 28 -12 49q-30 61 -113 61q-94 0 -118 -80h-135q8 59 35 102t65 64.5t75.5 31t77.5 9.5q35 0 68 -6.5t69 -24.5t63 -45.5t44 -74t17 -105.5v-373h-134v58q-61 -70 -182 -70zM584 -82
q161 0 161 133v25q-91 -5 -147 -14t-88 -29q-25 -13 -25 -49q0 -66 99 -66z" />
    <glyph glyph-name="b.inferior" 
d="M643 -211q-47 0 -88.5 22t-52.5 48v-58h-133v832h133v-271q11 25 52.5 46.5t88.5 21.5q41 0 81.5 -14t78 -42.5t61 -80t23.5 -119.5v-127q0 -68 -23.5 -120t-61 -81t-78 -43t-81.5 -14zM629 -82q59 0 92 33t33 100v119q0 66 -33 98.5t-92 32.5q-60 0 -93.5 -32.5
t-33.5 -98.5v-119q0 -67 33.5 -100t93.5 -33z" />
    <glyph glyph-name="c.inferior" 
d="M629 -211q-44 0 -86 12t-83 39t-66 80.5t-25 126.5v127q0 59 17 105.5t43.5 74t62.5 45.5t69 24.5t68 6.5q41 0 80 -10.5t79 -34t66.5 -69.5t32.5 -109h-137q-15 96 -121 96q-60 0 -93.5 -33.5t-33.5 -99.5v-119q0 -67 33.5 -100t93.5 -33q105 0 123 94h135
q-6 -63 -32.5 -109t-66.5 -69.5t-79 -34t-80 -10.5z" />
    <glyph glyph-name="d.inferior" 
d="M604 -211q-42 0 -82.5 14t-78 43t-60.5 81t-23 120v127q0 68 23 119.5t60.5 80t78 42.5t82.5 14q47 0 87.5 -21.5t51.5 -46.5v271h134v-832h-134v58q-11 -26 -51.5 -48t-87.5 -22zM608 -82q60 0 97.5 33.5t37.5 99.5v119q0 66 -33 98.5t-92 32.5t-91.5 -32.5t-32.5 -98.5
v-119q0 -66 31 -99.5t83 -33.5z" />
    <glyph glyph-name="e.inferior" 
d="M625 -211q-44 0 -85.5 12t-83 39t-66.5 80.5t-25 126.5v127q0 59 17.5 105.5t44 74t62.5 45.5t69 24.5t67 6.5q44 0 85 -11.5t82 -38t66 -80t25 -126.5v-113h-385v-10q0 -67 33.5 -100t93.5 -33q94 0 118 78h136q-8 -58 -35 -101t-65 -64.5t-76 -31.5t-78 -10zM498 178
h252q0 60 -33.5 92.5t-91.5 32.5q-60 0 -93.5 -31.5t-33.5 -93.5z" />
    <glyph glyph-name="f.inferior" 
d="M506 -199v486h-174v127h174v73q0 146 147 146h244v-129h-201q-36 0 -46.5 -12t-10.5 -48v-30h258v-127h-258v-486h-133z" />
    <glyph glyph-name="g.inferior" 
d="M618 -430q-41 0 -80 10.5t-78 33.5t-65.5 68.5t-32.5 108.5h134q21 -92 122 -92q59 0 92 33.5t33 99.5v66q-11 -26 -51.5 -48t-87.5 -22q-42 0 -82.5 14t-78 43t-60.5 81t-23 120v88q0 68 23 119.5t60.5 80t78 42.5t82.5 14q47 0 87.5 -21.5t51.5 -46.5v52h134v-586
q0 -73 -25 -126.5t-66 -80.5t-82.5 -39t-85.5 -12zM618 -43q59 0 92 32.5t33 98.5v82q0 66 -33 98.5t-92 32.5t-91.5 -32.5t-32.5 -98.5v-82q0 -66 32.5 -98.5t91.5 -32.5z" />
    <glyph glyph-name="h.inferior" 
d="M367 -199v832h133v-271q11 25 52 46.5t89 21.5q41 0 81.5 -14t78 -42.5t61 -80t23.5 -119.5v-373h-133v369q0 66 -33.5 98.5t-93.5 32.5q-59 0 -92 -32.5t-33 -98.5v-369h-133z" />
    <glyph glyph-name="i.inferior" 
d="M344 -199v129h217v357h-158v127h291v-484h215v-129h-565zM547 473v160h160v-160h-160z" />
    <glyph glyph-name="j.inferior" 
d="M322 -418v129h260q36 0 46.5 12t10.5 48v516h-258v127h391v-684q0 -148 -147 -148h-303zM623 473v160h159v-160h-159z" />
    <glyph glyph-name="k.inferior" 
d="M516 633v-459l221 240h160l-221 -240l256 -373h-156l-188 277l-72 -78v-199h-133v832h133z" />
    <glyph glyph-name="l.inferior" 
d="M342 -199v129h215v574h-156v129h289v-703h217v-129h-565z" />
    <glyph glyph-name="m.inferior" 
d="M459 -199h-133v613h133v-25q22 35 80 35q55 0 88 -41q39 47 114 47q87 0 135 -48.5t48 -127.5v-453h-133v453q0 22 -14.5 34.5t-35.5 12.5q-22 0 -35.5 -12t-13.5 -35v-453h-133v453q0 23 -14 35t-37 12q-21 0 -35 -12.5t-14 -34.5v-453z" />
    <glyph glyph-name="n.inferior" 
d="M367 -199v613h133v-52q11 25 52 46.5t89 21.5q41 0 81.5 -14t78 -42.5t61 -80t23.5 -119.5v-373h-133v369q0 66 -33.5 98.5t-93.5 32.5q-59 0 -92 -32.5t-33 -98.5v-369h-133z" />
    <glyph glyph-name="o.inferior" 
d="M623 -82q60 0 93.5 33t33.5 100v119q0 66 -33.5 99.5t-93.5 33.5q-59 0 -92 -33.5t-33 -99.5v-119q0 -67 33 -100t92 -33zM623 -211q-44 0 -85 12t-82 39t-66 80.5t-25 126.5v127q0 73 25 126.5t66 80t82 38t85 11.5q35 0 68 -6.5t69 -24.5t62.5 -45.5t43.5 -74
t17 -105.5v-127q0 -73 -25 -126.5t-66 -80.5t-83 -39t-86 -12z" />
    <glyph glyph-name="p.inferior" 
d="M369 -418v832h133v-52q11 25 52.5 46.5t88.5 21.5q41 0 81.5 -14t78 -42.5t61 -80t23.5 -119.5v-127q0 -68 -23.5 -120t-61 -81t-78 -43t-81.5 -14q-47 0 -88.5 22t-52.5 48v-277h-133zM629 -82q59 0 92 33t33 100v119q0 66 -33 98.5t-92 32.5q-60 0 -93.5 -32.5
t-33.5 -98.5v-119q0 -67 33.5 -100t93.5 -33z" />
    <glyph glyph-name="q.inferior" 
d="M743 -418v277q-11 -26 -51.5 -48t-87.5 -22q-42 0 -82.5 14t-78 43t-60.5 81t-23 120v127q0 68 23 119.5t60.5 80t78 42.5t82.5 14q47 0 87.5 -21.5t51.5 -46.5v52h134v-832h-134zM608 -82q60 0 97.5 33.5t37.5 99.5v119q0 66 -33 98.5t-92 32.5t-91.5 -32.5t-32.5 -98.5
v-119q0 -66 31 -99.5t83 -33.5z" />
    <glyph glyph-name="r.inferior" 
d="M313 -199v129h193v357h-133v127h266v-58q11 26 52.5 48t88.5 22h158v-129h-172q-60 0 -93.5 -32.5t-33.5 -98.5v-236h240v-129h-566z" />
    <glyph glyph-name="s.inferior" 
d="M641 -211q-112 0 -186 54.5t-78 154.5h137q6 -39 42 -59.5t87 -20.5q94 0 94 57q0 19 -12.5 32t-25.5 18t-35 10l-117 28q-73 20 -114.5 62.5t-41.5 124.5q0 89 62.5 134.5t162.5 45.5q104 0 166.5 -48t71.5 -146h-139q-14 67 -109 67q-31 0 -56.5 -13t-25.5 -44
q0 -35 66 -49l112 -29q91 -24 130.5 -67t39.5 -130q-1 -88 -64 -135t-167 -47z" />
    <glyph glyph-name="t.inferior" 
d="M891 -199h-246q-145 0 -145 146v340h-176v127h176v139h133v-139h258v-127h-258v-297q0 -37 10 -48.5t47 -11.5h201v-129z" />
    <glyph glyph-name="u.inferior" 
d="M602 -211q-41 0 -82 15.5t-76 45.5t-57 81.5t-22 115.5v367h133v-365q0 -64 33 -97.5t90 -33.5t89.5 33t32.5 100v363h134v-613h-134v58q-11 -27 -52 -48.5t-89 -21.5z" />
    <glyph glyph-name="v.inferior" 
d="M559 -199l-221 613h139l146 -420l147 420h139l-221 -613h-129z" />
    <glyph glyph-name="w.inferior" 
d="M420 -199l-98 613h131l53 -414l61 319h113l59 -319l54 414h133l-99 -613h-125l-79 363l-78 -363h-125z" />
    <glyph glyph-name="x.inferior" 
d="M338 -199l207 316l-199 297h148l129 -199l131 199h145l-199 -297l209 -316h-147l-139 213l-140 -213h-145z" />
    <glyph glyph-name="y.inferior" 
d="M412 -418v129h41q43 0 56.5 11t33.5 57l12 35l-217 600h139l146 -420l147 420h139l-270 -750q-28 -82 -137 -82h-90z" />
    <glyph glyph-name="z.inferior" 
d="M840 287l-281 -357h289v-129h-457v129l281 357h-271v127h439v-127z" />
    <glyph glyph-name="a.denominator" 
d="M563 -12q-91 0 -151 46t-60 136q0 61 31.5 112t101.5 74q82 25 258 35q-3 28 -12 49q-30 62 -113 62q-94 0 -118 -80h-135q8 59 35 102t65 64.5t75.5 31t77.5 9.5q35 0 68 -6.5t69 -24.5t63 -45.5t44 -74t17 -105.5v-373h-134v57q-60 -69 -182 -69zM584 117
q161 0 161 133v24q-91 -5 -147 -14t-88 -29q-25 -13 -25 -49q0 -65 99 -65z" />
    <glyph glyph-name="b.denominator" 
d="M643 -12q-47 0 -88.5 21.5t-52.5 47.5v-57h-133v831h133v-270q11 25 52.5 46.5t88.5 21.5q41 0 81.5 -14t78 -42.5t61 -80t23.5 -119.5v-127q0 -68 -23.5 -120t-61 -81t-78 -43t-81.5 -14zM629 117q59 0 92 33t33 100v119q0 66 -33 98.5t-92 32.5q-60 0 -93.5 -32.5
t-33.5 -98.5v-119q0 -67 33.5 -100t93.5 -33z" />
    <glyph glyph-name="c.denominator" 
d="M629 -12q-44 0 -86 12t-83 39t-66 80.5t-25 126.5v127q0 59 17 105.5t43.5 74t62.5 45.5t69 24.5t68 6.5q41 0 80 -10.5t79 -34t66.5 -69.5t32.5 -109h-137q-15 96 -121 96q-60 0 -93.5 -33.5t-33.5 -99.5v-119q0 -67 33.5 -100t93.5 -33q105 0 123 94h135
q-6 -63 -32.5 -109t-66.5 -69.5t-79 -34t-80 -10.5z" />
    <glyph glyph-name="d.denominator" 
d="M604 -12q-42 0 -82.5 14t-78 43t-60.5 81t-23 120v127q0 68 23 119.5t60.5 80t78 42.5t82.5 14q47 0 87.5 -21.5t51.5 -46.5v270h134v-831h-134v57q-11 -26 -51.5 -47.5t-87.5 -21.5zM608 117q60 0 97.5 33.5t37.5 99.5v119q0 66 -33 98.5t-92 32.5t-91.5 -32.5
t-32.5 -98.5v-119q0 -66 31 -99.5t83 -33.5z" />
    <glyph glyph-name="e.denominator" 
d="M625 -12q-44 0 -85.5 12t-83 39t-66.5 80.5t-25 126.5v127q0 59 17.5 105.5t44 74t62.5 45.5t69 24.5t67 6.5q44 0 85 -11.5t82 -38t66 -80t25 -126.5v-113h-385v-10q0 -67 33.5 -100t93.5 -33q94 0 118 78h136q-8 -58 -35 -101t-65 -64.5t-76 -31.5t-78 -10zM498 377
h252q0 60 -33.5 92.5t-91.5 32.5q-60 0 -93.5 -31.5t-33.5 -93.5z" />
    <glyph glyph-name="f.denominator" 
d="M506 0v485h-174v127h174v74q0 145 147 145h244v-129h-201q-36 0 -46.5 -11.5t-10.5 -47.5v-31h258v-127h-258v-485h-133z" />
    <glyph glyph-name="g.denominator" 
d="M618 -231q-41 0 -80 10.5t-78 33.5t-65.5 68.5t-32.5 108.5h134q21 -92 122 -92q59 0 92 33.5t33 99.5v65q-11 -26 -51.5 -47.5t-87.5 -21.5q-42 0 -82.5 14t-78 43t-60.5 81t-23 120v88q0 68 23 119.5t60.5 80t78 42.5t82.5 14q47 0 87.5 -21.5t51.5 -46.5v51h134v-585
q0 -73 -25 -126.5t-66 -80.5t-82.5 -39t-85.5 -12zM618 156q59 0 92 32.5t33 98.5v82q0 66 -33 98.5t-92 32.5t-91.5 -32.5t-32.5 -98.5v-82q0 -66 32.5 -98.5t91.5 -32.5z" />
    <glyph glyph-name="h.denominator" 
d="M367 0v831h133v-270q11 25 52 46.5t89 21.5q41 0 81.5 -14t78 -42.5t61 -80t23.5 -119.5v-373h-133v369q0 66 -33.5 98.5t-93.5 32.5q-59 0 -92 -32.5t-33 -98.5v-369h-133z" />
    <glyph glyph-name="i.denominator" 
d="M344 0v129h217v356h-158v127h291v-483h215v-129h-565zM547 672v159h160v-159h-160z" />
    <glyph glyph-name="j.denominator" 
d="M322 -219v129h260q36 0 46.5 11.5t10.5 47.5v516h-258v127h391v-684q0 -147 -147 -147h-303zM623 672v159h159v-159h-159z" />
    <glyph glyph-name="k.denominator" 
d="M516 831v-458l221 239h160l-221 -239l256 -373h-156l-188 276l-72 -77v-199h-133v831h133z" />
    <glyph glyph-name="l.denominator" 
d="M342 0v129h215v573h-156v129h289v-702h217v-129h-565z" />
    <glyph glyph-name="m.denominator" 
d="M459 0h-133v612h133v-24q22 35 80 35q55 0 88 -41q39 47 114 47q87 0 135 -48.5t48 -127.5v-453h-133v453q0 22 -14.5 34.5t-35.5 12.5q-22 0 -35.5 -12t-13.5 -35v-453h-133v453q0 23 -14 35t-37 12q-21 0 -35 -12.5t-14 -34.5v-453z" />
    <glyph glyph-name="n.denominator" 
d="M367 0v612h133v-51q11 25 52 46.5t89 21.5q41 0 81.5 -14t78 -42.5t61 -80t23.5 -119.5v-373h-133v369q0 66 -33.5 98.5t-93.5 32.5q-59 0 -92 -32.5t-33 -98.5v-369h-133z" />
    <glyph glyph-name="o.denominator" 
d="M623 117q60 0 93.5 33t33.5 100v119q0 66 -33.5 99.5t-93.5 33.5q-59 0 -92 -33.5t-33 -99.5v-119q0 -67 33 -100t92 -33zM623 -12q-44 0 -85 12t-82 39t-66 80.5t-25 126.5v127q0 73 25 126.5t66 80t82 38t85 11.5q35 0 68 -6.5t69 -24.5t62.5 -45.5t43.5 -74t17 -105.5
v-127q0 -73 -25 -126.5t-66 -80.5t-83 -39t-86 -12z" />
    <glyph glyph-name="p.denominator" 
d="M369 -219v831h133v-51q11 25 52.5 46.5t88.5 21.5q41 0 81.5 -14t78 -42.5t61 -80t23.5 -119.5v-127q0 -68 -23.5 -120t-61 -81t-78 -43t-81.5 -14q-47 0 -88.5 21.5t-52.5 47.5v-276h-133zM629 117q59 0 92 33t33 100v119q0 66 -33 98.5t-92 32.5q-60 0 -93.5 -32.5
t-33.5 -98.5v-119q0 -67 33.5 -100t93.5 -33z" />
    <glyph glyph-name="q.denominator" 
d="M743 -219v276q-11 -26 -51.5 -47.5t-87.5 -21.5q-42 0 -82.5 14t-78 43t-60.5 81t-23 120v127q0 68 23 119.5t60.5 80t78 42.5t82.5 14q47 0 87.5 -21.5t51.5 -46.5v51h134v-831h-134zM608 117q60 0 97.5 33.5t37.5 99.5v119q0 66 -33 98.5t-92 32.5t-91.5 -32.5
t-32.5 -98.5v-119q0 -66 31 -99.5t83 -33.5z" />
    <glyph glyph-name="r.denominator" 
d="M313 0v129h193v356h-133v127h266v-57q11 26 52.5 48t88.5 22h158v-129h-172q-60 0 -93.5 -32.5t-33.5 -98.5v-236h240v-129h-566z" />
    <glyph glyph-name="s.denominator" 
d="M641 -12q-112 0 -186 54.5t-78 154.5h137q6 -39 42 -59.5t87 -20.5q94 0 94 57q0 19 -13 32t-25 17.5t-35 9.5l-117 29q-73 20 -114.5 62.5t-41.5 124.5q0 89 62.5 134.5t162.5 45.5q104 0 166.5 -48.5t71.5 -146.5h-139q-14 68 -109 68q-31 0 -56.5 -13.5t-25.5 -44.5
q0 -35 66 -49l112 -28q91 -24 130.5 -67t39.5 -130q-1 -88 -64 -135t-167 -47z" />
    <glyph glyph-name="t.denominator" 
d="M891 0h-246q-145 0 -145 145v340h-176v127h176v140h133v-140h258v-127h-258v-297q0 -37 10 -48t47 -11h201v-129z" />
    <glyph glyph-name="u.denominator" 
d="M602 -12q-41 0 -82 15.5t-76 45.5t-57 81.5t-22 115.5v366h133v-364q0 -64 33 -97.5t90 -33.5t89.5 33t32.5 100v362h134v-612h-134v57q-11 -26 -51.5 -47.5t-89.5 -21.5z" />
    <glyph glyph-name="v.denominator" 
d="M559 0l-221 612h139l146 -419l147 419h139l-221 -612h-129z" />
    <glyph glyph-name="w.denominator" 
d="M420 0l-98 612h131l53 -413l61 319h113l59 -319l54 413h133l-99 -612h-125l-79 362l-78 -362h-125z" />
    <glyph glyph-name="x.denominator" 
d="M338 0l207 315l-199 297h148l129 -198l131 198h145l-199 -297l209 -315h-147l-139 213l-140 -213h-145z" />
    <glyph glyph-name="y.denominator" 
d="M412 -219v129h41q44 0 57 11t33 56l12 35l-217 600h139l146 -419l147 419h139l-270 -749q-28 -82 -137 -82h-90z" />
    <glyph glyph-name="z.denominator" 
d="M840 485l-281 -356h289v-129h-457v129l281 356h-271v127h439v-127z" />
    <glyph glyph-name="a.numerator" 
d="M563 590q-91 0 -151 46t-60 136q0 61 31.5 112t101.5 74q82 25 258 35q-3 28 -12 49q-30 62 -113 62q-94 0 -118 -80h-135q8 59 35 102t65 64.5t75.5 31t77.5 9.5q35 0 68 -6.5t69 -24.5t63 -45.5t44 -74t17 -105.5v-373h-134v57q-60 -69 -182 -69zM584 719
q161 0 161 133v25q-91 -5 -147 -14t-88 -29q-25 -12 -25 -50q0 -65 99 -65z" />
    <glyph glyph-name="b.numerator" 
d="M643 590q-47 0 -88.5 21.5t-52.5 47.5v-57h-133v832h133v-271q11 25 52.5 46.5t88.5 21.5q41 0 81.5 -14t78 -42.5t61 -80t23.5 -119.5v-127q0 -68 -23.5 -120t-61 -81t-78 -43t-81.5 -14zM629 719q59 0 92 33t33 100v119q0 66 -33 98.5t-92 32.5q-60 0 -93.5 -32.5
t-33.5 -98.5v-119q0 -67 33.5 -100t93.5 -33z" />
    <glyph glyph-name="c.numerator" 
d="M629 590q-44 0 -86 12t-83 39t-66 80.5t-25 126.5v127q0 59 17 105.5t43.5 74t62.5 45.5t69 24.5t68 6.5q41 0 80 -10.5t79 -34t66.5 -69.5t32.5 -109h-137q-15 96 -121 96q-60 0 -93.5 -33.5t-33.5 -99.5v-119q0 -67 33.5 -100t93.5 -33q105 0 123 94h135
q-6 -63 -32.5 -109t-66.5 -69.5t-79 -34t-80 -10.5z" />
    <glyph glyph-name="d.numerator" 
d="M604 590q-42 0 -82.5 14t-78 43t-60.5 81t-23 120v127q0 68 23 119.5t60.5 80t78 42.5t82.5 14q47 0 87.5 -21.5t51.5 -46.5v271h134v-832h-134v57q-11 -26 -51.5 -47.5t-87.5 -21.5zM608 719q60 0 97.5 33.5t37.5 99.5v119q0 66 -33 98.5t-92 32.5t-91.5 -32.5
t-32.5 -98.5v-119q0 -66 31 -99.5t83 -33.5z" />
    <glyph glyph-name="e.numerator" 
d="M625 590q-44 0 -85.5 12t-83 39t-66.5 80.5t-25 126.5v127q0 59 17.5 105.5t44 74t62.5 45.5t69 24.5t67 6.5q44 0 85 -11.5t82 -38t66 -80t25 -126.5v-113h-385v-10q0 -67 33.5 -100t93.5 -33q94 0 118 78h136q-8 -58 -35 -101t-65 -64.5t-76 -31.5t-78 -10zM498 979
h252q0 60 -33.5 92.5t-91.5 32.5q-60 0 -93.5 -31.5t-33.5 -93.5z" />
    <glyph glyph-name="f.numerator" 
d="M506 602v485h-174v127h174v74q0 146 147 146h244v-129h-201q-36 0 -46.5 -12t-10.5 -48v-31h258v-127h-258v-485h-133z" />
    <glyph glyph-name="g.numerator" 
d="M618 371q-41 0 -80 10.5t-78 33.5t-65.5 68.5t-32.5 108.5h134q21 -92 122 -92q59 0 92 33.5t33 99.5v65q-11 -26 -51.5 -47.5t-87.5 -21.5q-42 0 -82.5 14t-78 43t-60.5 81t-23 120v88q0 68 23 119.5t60.5 80t78 42.5t82.5 14q47 0 87.5 -21.5t51.5 -46.5v51h134v-585
q0 -73 -25 -126.5t-66 -80.5t-82.5 -39t-85.5 -12zM618 758q59 0 92 32.5t33 98.5v82q0 66 -33 98.5t-92 32.5t-91.5 -32.5t-32.5 -98.5v-82q0 -66 32.5 -98.5t91.5 -32.5z" />
    <glyph glyph-name="h.numerator" 
d="M367 602v832h133v-271q11 25 52 46.5t89 21.5q41 0 81.5 -14t78 -42.5t61 -80t23.5 -119.5v-373h-133v369q0 66 -33.5 98.5t-93.5 32.5q-59 0 -92 -32.5t-33 -98.5v-369h-133z" />
    <glyph glyph-name="i.numerator" 
d="M344 602v129h217v356h-158v127h291v-483h215v-129h-565zM547 1274v160h160v-160h-160z" />
    <glyph glyph-name="j.numerator" 
d="M322 383v129h260q36 0 46.5 11.5t10.5 47.5v516h-258v127h391v-684q0 -147 -147 -147h-303zM623 1274v160h159v-160h-159z" />
    <glyph glyph-name="k.numerator" 
d="M516 1434v-459l221 239h160l-221 -239l256 -373h-156l-188 277l-72 -78v-199h-133v832h133z" />
    <glyph glyph-name="l.numerator" 
d="M342 602v129h215v574h-156v129h289v-703h217v-129h-565z" />
    <glyph glyph-name="m.numerator" 
d="M459 602h-133v612h133v-24q22 35 80 35q55 0 88 -41q39 47 114 47q87 0 135 -48.5t48 -127.5v-453h-133v453q0 22 -14.5 34.5t-35.5 12.5q-22 0 -35.5 -12t-13.5 -35v-453h-133v453q0 23 -14 35t-37 12q-21 0 -35 -12.5t-14 -34.5v-453z" />
    <glyph glyph-name="n.numerator" 
d="M367 602v612h133v-51q11 25 52 46.5t89 21.5q41 0 81.5 -14t78 -42.5t61 -80t23.5 -119.5v-373h-133v369q0 66 -33.5 98.5t-93.5 32.5q-59 0 -92 -32.5t-33 -98.5v-369h-133z" />
    <glyph glyph-name="o.numerator" 
d="M623 719q60 0 93.5 33t33.5 100v119q0 66 -33.5 99.5t-93.5 33.5q-59 0 -92 -33.5t-33 -99.5v-119q0 -67 33 -100t92 -33zM623 590q-44 0 -85 12t-82 39t-66 80.5t-25 126.5v127q0 73 25 126.5t66 80t82 38t85 11.5q35 0 68 -6.5t69 -24.5t62.5 -45.5t43.5 -74t17 -105.5
v-127q0 -73 -25 -126.5t-66 -80.5t-83 -39t-86 -12z" />
    <glyph glyph-name="p.numerator" 
d="M369 383v831h133v-51q11 25 52.5 46.5t88.5 21.5q41 0 81.5 -14t78 -42.5t61 -80t23.5 -119.5v-127q0 -68 -23.5 -120t-61 -81t-78 -43t-81.5 -14q-47 0 -88.5 21.5t-52.5 47.5v-276h-133zM629 719q59 0 92 33t33 100v119q0 66 -33 98.5t-92 32.5q-60 0 -93.5 -32.5
t-33.5 -98.5v-119q0 -67 33.5 -100t93.5 -33z" />
    <glyph glyph-name="q.numerator" 
d="M743 383v276q-11 -26 -51.5 -47.5t-87.5 -21.5q-42 0 -82.5 14t-78 43t-60.5 81t-23 120v127q0 68 23 119.5t60.5 80t78 42.5t82.5 14q47 0 87.5 -21.5t51.5 -46.5v51h134v-831h-134zM608 719q60 0 97.5 33.5t37.5 99.5v119q0 66 -33 98.5t-92 32.5t-91.5 -32.5
t-32.5 -98.5v-119q0 -66 31 -99.5t83 -33.5z" />
    <glyph glyph-name="r.numerator" 
d="M313 602v129h193v356h-133v127h266v-57q11 26 52.5 48t88.5 22h158v-129h-172q-60 0 -93.5 -32.5t-33.5 -98.5v-236h240v-129h-566z" />
    <glyph glyph-name="s.numerator" 
d="M641 590q-112 0 -186 54.5t-78 154.5h137q6 -39 42 -59.5t87 -20.5q94 0 94 57q0 19 -12.5 32t-25.5 18t-35 10l-117 28q-73 20 -114.5 62.5t-41.5 124.5q0 89 62.5 134.5t162.5 45.5q104 0 166.5 -48.5t71.5 -146.5h-139q-14 68 -109 68q-31 0 -56.5 -13t-25.5 -44
q0 -36 66 -50l112 -28q91 -24 130.5 -67t39.5 -130q-1 -88 -64 -135t-167 -47z" />
    <glyph glyph-name="t.numerator" 
d="M891 602h-246q-145 0 -145 146v339h-176v127h176v140h133v-140h258v-127h-258v-296q0 -37 10 -48.5t47 -11.5h201v-129z" />
    <glyph glyph-name="u.numerator" 
d="M602 590q-41 0 -82 15.5t-76 45.5t-57 81.5t-22 115.5v366h133v-364q0 -64 33 -97.5t90 -33.5t89.5 33t32.5 100v362h134v-612h-134v57q-11 -26 -51.5 -47.5t-89.5 -21.5z" />
    <glyph glyph-name="v.numerator" 
d="M559 602l-221 612h139l146 -419l147 419h139l-221 -612h-129z" />
    <glyph glyph-name="w.numerator" 
d="M420 602l-98 612h131l53 -413l61 319h113l59 -319l54 413h133l-99 -612h-125l-79 363l-78 -363h-125z" />
    <glyph glyph-name="x.numerator" 
d="M338 602l207 316l-199 296h148l129 -198l131 198h145l-199 -296l209 -316h-147l-139 213l-140 -213h-145z" />
    <glyph glyph-name="y.numerator" 
d="M412 383v129h41q43 0 56.5 11t33.5 57l12 34l-217 600h139l146 -419l147 419h139l-270 -749q-28 -82 -137 -82h-90z" />
    <glyph glyph-name="z.numerator" 
d="M840 1087l-281 -356h289v-129h-457v129l281 356h-271v127h439v-127z" />
    <glyph glyph-name="zero.fractioninf" 
d="M621 -8q-69 0 -117.5 48.5t-48.5 117.5v219q0 69 48.5 117.5t117.5 48.5t118 -48.5t49 -117.5v-219q0 -69 -49 -117.5t-118 -48.5zM621 76q36 0 58.5 23.5t22.5 58.5v164l-161 -162v-2q0 -34 22.5 -58t57.5 -24zM541 377v-164l161 164q0 35 -22.5 58.5t-58.5 23.5
q-35 0 -57.5 -24t-22.5 -58z" />
    <glyph glyph-name="one.fractioninf" 
d="M506 342l-60 59l134 134h86v-453h137v-82h-363v82h140v336z" />
    <glyph glyph-name="two.fractioninf" 
d="M567 315l-59 -59q-51 48 -51 121q0 69 48.5 117.5t117.5 48.5t117 -48.5t48 -117.5q0 -44 -15.5 -75t-55.5 -73l-144 -147h215v-82h-331v82l196 203q49 49 49 92q0 35 -21.5 58.5t-57.5 23.5q-35 0 -57.5 -24t-22.5 -58q0 -38 24 -62z" />
    <glyph glyph-name="three.fractioninf" 
d="M623 244v78h6q26 1 42.5 21.5t16.5 47.5q0 28 -18 48t-47 20t-47.5 -20t-18.5 -48h-86q0 63 44.5 107.5t107.5 44.5t107 -44.5t44 -107.5q0 -61 -45 -106q59 -49 59 -127q0 -69 -48 -117.5t-117 -48.5t-117.5 48.5t-48.5 117.5h86q0 -34 22.5 -58t57.5 -24t57 24t22 58
t-20.5 58.5t-52.5 27.5h-6z" />
    <glyph glyph-name="four.fractioninf" 
d="M756 0h-86v129h-236v82l238 328l67 -50l-202 -278h133v108h86v-108h55v-82h-55v-129z" />
    <glyph glyph-name="five.fractioninf" 
d="M623 -8q-69 0 -117.5 48.5t-48.5 117.5h86q0 -34 22.5 -58t57.5 -24q36 0 57.5 23.5t21.5 58.5v22q0 35 -21.5 59.5t-57.5 24.5q-43 0 -68 -41l-90 70l53 242h238v-82h-170l-27 -125q31 18 68 18q66 0 113.5 -48.5t47.5 -117.5v-22q0 -69 -48 -117.5t-117 -48.5z" />
    <glyph glyph-name="six.fractioninf" 
d="M623 -8q-69 0 -118.5 48.5t-49.5 117.5v22q0 58 34 101l189 258l67 -50l-106 -143q61 -5 105 -53t44 -113v-22q0 -69 -48.5 -117.5t-116.5 -48.5zM623 76q35 0 57 24t22 58v22q0 35 -22.5 59.5t-56.5 24.5q-36 0 -59 -24.5t-23 -59.5v-22q0 -34 23 -58t59 -24z" />
    <glyph glyph-name="seven.fractioninf" 
d="M459 373v162h327v-82l-163 -457l-78 29l153 428h-153v-80h-86z" />
    <glyph glyph-name="eight.fractioninf" 
d="M621 -8q-69 0 -117.5 48.5t-48.5 117.5q0 78 59 127q-43 43 -43 106t43.5 107.5t106.5 44.5t107 -44.5t44 -107.5t-43 -106q59 -49 59 -127q0 -69 -49 -117.5t-118 -48.5zM621 76q35 0 58 24t23 58q0 36 -23 60t-58 24t-57.5 -24t-22.5 -60q0 -34 22.5 -58t57.5 -24z
M621 324q29 0 47 19.5t18 47.5t-18 48t-47 20t-46.5 -19.5t-17.5 -48.5q0 -28 17.5 -47.5t46.5 -19.5z" />
    <glyph glyph-name="nine.fractioninf" 
d="M621 543q69 0 118 -48.5t49 -117.5v-23q0 -57 -34 -100l-189 -258l-67 49l106 143q-61 5 -105 53t-44 113v23q0 69 49 117.5t117 48.5zM621 459q-35 0 -57.5 -24t-22.5 -58v-23q0 -35 22.5 -59.5t57.5 -24.5q36 0 58.5 24.5t22.5 59.5v23q0 35 -22.5 58.5t-58.5 23.5z
" />
    <glyph glyph-name="zero.fractionsup" 
d="M621 891q-69 0 -117.5 48.5t-48.5 117.5v219q0 69 48.5 117.5t117.5 48.5t118 -48.5t49 -117.5v-219q0 -69 -49 -117.5t-118 -48.5zM621 975q36 0 58.5 23.5t22.5 58.5v164l-161 -162v-2q0 -34 22.5 -58t57.5 -24zM541 1276v-164l161 164q0 35 -22.5 58.5t-58.5 23.5
q-35 0 -57.5 -24t-22.5 -58z" />
    <glyph glyph-name="one.fractionsup" 
d="M506 1241l-60 59l134 134h86v-453h137v-82h-363v82h140v336z" />
    <glyph glyph-name="two.fractionsup" 
d="M567 1214l-59 -59q-51 48 -51 121q0 69 48.5 117.5t117.5 48.5t117 -48.5t48 -117.5q0 -44 -15.5 -75t-55.5 -73l-144 -147h215v-82h-331v82l196 203q49 49 49 92q0 35 -21.5 58.5t-57.5 23.5q-35 0 -57.5 -24t-22.5 -58q0 -38 24 -62z" />
    <glyph glyph-name="three.fractionsup" 
d="M623 1143v78h6q26 1 42.5 21.5t16.5 47.5q0 28 -18 48t-47 20t-47.5 -20t-18.5 -48h-86q0 63 44.5 107.5t107.5 44.5t107 -44.5t44 -107.5q0 -61 -45 -106q59 -49 59 -127q0 -69 -48 -117.5t-117 -48.5t-117.5 48.5t-48.5 117.5h86q0 -34 22.5 -58t57.5 -24t57 24t22 58
t-20.5 58.5t-52.5 27.5h-6z" />
    <glyph glyph-name="four.fractionsup" 
d="M756 899h-86v129h-236v82l238 328l67 -49l-202 -279h133v109h86v-109h55v-82h-55v-129z" />
    <glyph glyph-name="five.fractionsup" 
d="M623 891q-69 0 -117.5 48.5t-48.5 117.5h86q0 -34 22.5 -58t57.5 -24q36 0 57.5 23.5t21.5 58.5v22q0 35 -21.5 59.5t-57.5 24.5q-43 0 -68 -41l-90 70l53 242h238v-82h-170l-27 -125q31 18 68 18q66 0 113.5 -48.5t47.5 -117.5v-22q0 -69 -48 -117.5t-117 -48.5z" />
    <glyph glyph-name="six.fractionsup" 
d="M623 891q-69 0 -118.5 48.5t-49.5 117.5v22q0 58 34 101l189 258l67 -49l-106 -144q61 -5 105 -53t44 -113v-22q0 -69 -48.5 -117.5t-116.5 -48.5zM623 975q35 0 57 24t22 58v22q0 35 -22.5 59.5t-56.5 24.5q-36 0 -59 -24.5t-23 -59.5v-22q0 -34 23 -58t59 -24z" />
    <glyph glyph-name="seven.fractionsup" 
d="M459 1272v162h327v-82l-163 -457l-78 29l153 428h-153v-80h-86z" />
    <glyph glyph-name="eight.fractionsup" 
d="M621 891q-69 0 -117.5 48.5t-48.5 117.5q0 78 59 127q-43 43 -43 106t43.5 107.5t106.5 44.5t107 -44.5t44 -107.5t-43 -106q59 -49 59 -127q0 -69 -49 -117.5t-118 -48.5zM621 975q35 0 58 24t23 58q0 36 -23 60t-58 24t-57.5 -24t-22.5 -60q0 -34 22.5 -58t57.5 -24z
M621 1223q29 0 47 19.5t18 47.5t-18 48t-47 20t-46.5 -19.5t-17.5 -48.5q0 -28 17.5 -47.5t46.5 -19.5z" />
    <glyph glyph-name="nine.fractionsup" 
d="M621 1442q69 0 118 -48.5t49 -117.5v-23q0 -57 -34 -100l-189 -258l-67 49l106 143q-61 5 -105 53t-44 113v23q0 69 49 117.5t117 48.5zM621 1358q-35 0 -57.5 -24t-22.5 -58v-23q0 -35 22.5 -59.5t57.5 -24.5q36 0 58.5 24.5t22.5 59.5v23q0 35 -22.5 58.5t-58.5 23.5z
" />
    <glyph glyph-name="comma.superior" 
d="M553 625l-102 100l243 242l101 -103z" />
    <glyph glyph-name="period.superior" 
d="M528 821v191h191v-191h-191z" />
    <glyph glyph-name="hyphen.superior" 
d="M795 1128h-344v54h344v-54z" />
    <glyph glyph-name="plus.inferior" 
d="M598 -100v209h-211v53h211v207h53v-207h207v-53h-207v-209h-53z" />
    <glyph glyph-name="minus.inferior" 
d="M858 109h-471v53h471v-53z" />
    <glyph glyph-name="equal.inferior" 
d="M858 217h-471v53h471v-53zM858 -14h-471v53h471v-53z" />
    <glyph glyph-name="comma.inferior" 
d="M553 -395l-102 100l243 242l101 -103z" />
    <glyph glyph-name="period.inferior" 
d="M528 -199v191h191v-191h-191z" />
    <glyph glyph-name="hyphen.inferior" 
d="M795 109h-344v53h344v-53z" />
    <glyph glyph-name="parenleft.denominator" 
d="M559 12v697q0 64 27 93t100 29h141v-49h-141q-45 0 -60.5 -17t-15.5 -56v-697q0 -38 15.5 -54.5t60.5 -16.5h141v-50h-141q-73 0 -100 29t-27 92z" />
    <glyph glyph-name="parenright.denominator" 
d="M688 709v-697q0 -62 -27.5 -91.5t-99.5 -29.5h-141v50h141q44 0 60 17t16 54v697q0 39 -16 56t-60 17h-141v49h141q72 0 99.5 -29.5t27.5 -92.5z" />
    <glyph glyph-name="plus.denominator" 
d="M598 98v209h-211v53h211v207h53v-207h207v-53h-207v-209h-53z" />
    <glyph glyph-name="minus.denominator" 
d="M858 307h-471v53h471v-53z" />
    <glyph glyph-name="equal.denominator" 
d="M858 416h-471v53h471v-53zM858 184h-471v54h471v-54z" />
    <glyph glyph-name="comma.denominator" 
d="M553 -197l-102 101l243 241l101 -102z" />
    <glyph glyph-name="period.denominator" 
d="M528 0v190h191v-190h-191z" />
    <glyph glyph-name="hyphen.denominator" 
d="M795 307h-344v53h344v-53z" />
    <glyph glyph-name="parenleft.numerator" 
d="M559 614v697q0 64 27 93.5t100 29.5h141v-50h-141q-45 0 -60.5 -17t-15.5 -56v-697q0 -38 15.5 -54.5t60.5 -16.5h141v-49h-141q-73 0 -100 29t-27 91z" />
    <glyph glyph-name="parenright.numerator" 
d="M688 1311v-697q0 -62 -27.5 -91t-99.5 -29h-141v49h141q44 0 60 17t16 54v697q0 39 -16 56t-60 17h-141v50h141q72 0 99.5 -30t27.5 -93z" />
    <glyph glyph-name="plus.numerator" 
d="M598 700v209h-211v54h211v206h53v-206h207v-54h-207v-209h-53z" />
    <glyph glyph-name="minus.numerator" 
d="M858 909h-471v54h471v-54z" />
    <glyph glyph-name="equal.numerator" 
d="M858 1018h-471v53h471v-53zM858 786h-471v54h471v-54z" />
    <glyph glyph-name="comma.numerator" 
d="M553 406l-102 100l243 242l101 -103z" />
    <glyph glyph-name="period.numerator" 
d="M528 602v191h191v-191h-191z" />
    <glyph glyph-name="hyphen.numerator" 
d="M795 909h-344v54h344v-54z" />
    <glyph glyph-name="Gtilde" 
d="M627 1454q198 0 323 -119t137 -325h-157q-12 138 -95.5 213t-207.5 75q-133 0 -219 -86t-86 -243v-504q0 -157 86 -243.5t219 -86.5t219 86.5t86 243.5v141h-305v156h463v-297q0 -223 -127.5 -354t-335.5 -131t-335.5 131t-127.5 354v504q0 223 127.5 354t335.5 131z
M977 1665l-272 -145l-162 116l-219 -116l-48 88l273 145l162 -117l219 117z" />
    <glyph glyph-name="gtilde" 
d="M614 -250q110 0 185 69t75 195v136q-38 -62 -111 -96t-149 -34q-62 0 -119 13t-111.5 43.5t-94 77t-64 118.5t-24.5 162v238q0 90 24.5 162t64 118t94 77t111.5 43.5t119 12.5q77 0 149.5 -33.5t110.5 -95.5v101h154v-1041q0 -91 -24.5 -163t-64.5 -118t-94.5 -76.5
t-111.5 -43t-119 -12.5q-74 0 -140.5 19t-125.5 59.5t-98 113t-47 170.5h155q14 -103 86.5 -159t169.5 -56zM354 674v-242q0 -126 75 -195t185 -69t185 69t75 195v242q0 126 -75 195t-185 69t-185 -69t-75 -195zM965 1350l-273 -146l-162 117l-219 -117l-47 88l273 146
l161 -117l220 117z" />
    <glyph glyph-name="Mcircumflex" 
d="M623 561l301 873h161v-1434h-151v1067l-232 -682h-159l-232 682v-1067h-151v1434h162zM911 1511l-288 138l-289 -138l-43 91l332 157l331 -157z" />
    <glyph glyph-name="mcircumflex" 
d="M549 0v793q0 66 -32.5 105.5t-96.5 39.5t-97.5 -39.5t-33.5 -105.5v-793h-154v1057h154v-58q22 40 62 63t91 23q121 0 183 -96q80 96 206 96q136 0 210.5 -81t74.5 -211v-793h-153v793q0 66 -32.5 105.5t-96.5 39.5t-98 -40t-34 -105v-793h-153zM913 1196l-288 137
l-289 -137l-43 90l332 158l331 -158z" />
    <glyph glyph-name="Mmacron" 
d="M623 561l301 873h161v-1434h-151v1067l-232 -682h-159l-232 682v-1067h-151v1434h162zM942 1585h-639v103h639v-103z" />
    <glyph glyph-name="mmacron" 
d="M549 0v793q0 66 -32.5 105.5t-96.5 39.5t-97.5 -39.5t-33.5 -105.5v-793h-154v1057h154v-58q22 40 62 63t91 23q121 0 183 -96q80 96 206 96q136 0 210.5 -81t74.5 -211v-793h-153v793q0 66 -32.5 105.5t-96.5 39.5t-98 -40t-34 -105v-793h-153zM944 1270h-639v102h639
v-102z" />
    <glyph glyph-name="Ncircumflex" 
d="M1085 1434v-1434h-157l-611 1128v-1128h-157v1434h157l611 -1129v1129h157zM911 1511l-288 138l-289 -138l-43 91l332 157l331 -157z" />
    <glyph glyph-name="ncircumflex" 
d="M627 1085q62 0 119 -12.5t111.5 -43.5t94 -77t64 -118t24.5 -162v-672h-153v674q0 126 -75 195t-185 69t-185 -69t-75 -195v-674h-154v1057h154v-101q38 62 110.5 95.5t149.5 33.5zM915 1196l-288 137l-289 -137l-43 90l332 158l331 -158z" />
    <glyph glyph-name="Ndieresis" 
d="M1085 1434v-1434h-157l-611 1128v-1128h-157v1434h157l611 -1129v1129h157zM303 1559v155h156v-155h-156zM786 1559v155h156v-155h-156z" />
    <glyph glyph-name="ndieresis" 
d="M627 1085q62 0 119 -12.5t111.5 -43.5t94 -77t64 -118t24.5 -162v-672h-153v674q0 126 -75 195t-185 69t-185 -69t-75 -195v-674h-154v1057h154v-101q38 62 110.5 95.5t149.5 33.5zM307 1243v156h156v-156h-156zM791 1243v156h155v-156h-155z" />
    <glyph glyph-name="Nmacron" 
d="M1085 1434v-1434h-157l-611 1128v-1128h-157v1434h157l611 -1129v1129h157zM942 1585h-639v103h639v-103z" />
    <glyph glyph-name="nmacron" 
d="M627 1085q62 0 119 -12.5t111.5 -43.5t94 -77t64 -118t24.5 -162v-672h-153v674q0 126 -75 195t-185 69t-185 -69t-75 -195v-674h-154v1057h154v-101q38 62 110.5 95.5t149.5 33.5zM946 1270h-639v102h639v-102z" />
    <glyph glyph-name="Pmacron" 
d="M1135 995q0 -98 -26 -176t-80.5 -137.5t-145 -92t-211.5 -32.5h-305v-557h-158v1434h463q121 0 211.5 -32.5t145 -92t80.5 -138t26 -176.5zM973 995q0 127 -72.5 205t-228.5 78h-305v-565h305q156 0 228.5 77.5t72.5 204.5zM950 1585h-639v103h639v-103z" />
    <glyph glyph-name="pmacron" 
d="M631 -20q-77 0 -149.5 33.5t-110.5 95.5v-486h-154v1434h154v-101q38 62 110.5 95.5t149.5 33.5q62 0 119 -12.5t111.5 -43.5t94 -77t64 -118t24.5 -162v-279q0 -90 -24.5 -162t-64 -118t-94 -77t-111.5 -43.5t-119 -12.5zM891 391v283q0 126 -75 195t-185 69t-185 -69
t-75 -195v-283q0 -126 75 -195t185 -69t185 69t75 195zM950 1270h-639v102h639v-102z" />
    <glyph glyph-name="zero.case" 
d="M623 -20q-172 0 -294 122.5t-122 294.5v639q0 172 122 295t294 123q171 0 293 -123t122 -295v-639q0 -172 -121.5 -294.5t-293.5 -122.5zM623 135q108 0 183 77.5t75 184.5v514l-516 -518q2 -106 76.5 -182t181.5 -76zM365 1036v-512l516 518q-3 104 -77.5 180t-180.5 76
q-108 0 -183 -77.5t-75 -184.5z" />
    <glyph glyph-name="one.case" 
d="M358 985l-112 117l332 332h157v-1278h373v-156h-903v156h373v1044z" />
    <glyph glyph-name="two.case" 
d="M469 834l-102 -121q-72 58 -114 142.5t-42 180.5q0 172 122 295t294 123q171 0 293 -123t122 -295q0 -111 -39.5 -190t-132.5 -182l-454 -508h626v-156h-831v156l547 614q62 71 94.5 132.5t32.5 133.5q0 107 -75 184.5t-183 77.5t-183 -77.5t-75 -184.5q0 -60 27 -113
t73 -89z" />
    <glyph glyph-name="three.case" 
d="M604 -20q-172 0 -294 122.5t-122 294.5h158q0 -107 75 -184.5t183 -77.5t183 77.5t75 184.5t-75 183.5t-183 76.5v154q100 0 171 72.5t71 171.5t-71 171t-171 72t-169.5 -72t-69.5 -171h-158q0 166 115.5 282.5t281.5 116.5t283 -116.5t117 -282.5q0 -96 -43 -180.5
t-117 -139.5q81 -58 128.5 -147t47.5 -191q0 -172 -122 -294.5t-294 -122.5z" />
    <glyph glyph-name="four.case" 
d="M930 0h-158v383h-657v156l665 905l121 -92l-598 -813h469v319h158v-319h149v-156h-149v-383z" />
    <glyph glyph-name="five.case" 
d="M616 -20q-172 0 -293.5 122.5t-121.5 294.5h157q0 -107 75 -184.5t183 -77.5t183 77.5t75 184.5v97q0 107 -75 184.5t-183 77.5q-75 0 -138 -41.5t-95 -106.5l-164 105l160 721h573v-156h-444l-96 -434q78 67 215 67q165 0 285 -123t120 -294v-97q0 -172 -122 -294.5
t-294 -122.5z" />
    <glyph glyph-name="six.case" 
d="M596 -20q-172 0 -294 122.5t-122 294.5v97q0 136 82 249l514 701l123 -92l-326 -443q14 2 33 2q109 0 203 -58t148.5 -154t54.5 -205v-97q0 -172 -122 -294.5t-294 -122.5zM596 135q108 0 183 77.5t75 184.5v97q0 107 -75 184.5t-183 77.5t-183 -77.5t-75 -184.5v-97
q0 -107 75 -184.5t183 -77.5z" />
    <glyph glyph-name="seven.case" 
d="M213 1042v392h819v-156l-457 -1288l-143 51l438 1237h-499v-236h-158z" />
    <glyph glyph-name="eight.case" 
d="M623 -20q-172 0 -294 122.5t-122 294.5q0 104 48.5 193t131.5 147q-76 55 -119 137.5t-43 180.5q0 166 116 282.5t282 116.5t282.5 -116.5t116.5 -282.5q0 -98 -44 -181.5t-122 -138.5q84 -57 133 -145.5t49 -192.5q0 -172 -121.5 -294.5t-293.5 -122.5zM623 135
q108 0 183 77.5t75 184.5t-75 183.5t-183 76.5t-183 -76.5t-75 -183.5t75 -184.5t183 -77.5zM623 811q100 0 170.5 72.5t70.5 171.5t-70.5 171t-170.5 72t-170 -72t-70 -171t70 -171.5t170 -72.5z" />
    <glyph glyph-name="nine.case" 
d="M649 1454q172 0 294 -123t122 -295v-96q0 -137 -82 -250l-514 -700l-123 92l326 442q-14 -2 -33 -2q-109 0 -203 58t-148.5 154.5t-54.5 205.5v96q0 172 122 295t294 123zM649 1298q-108 0 -183 -77.5t-75 -184.5v-96q0 -107 75 -184.5t183 -77.5t183 77.5t75 184.5v96
q0 107 -75 184.5t-183 77.5z" />
    <glyph glyph-name="emdash.case" 
d="M1092 645h-940v92h940v-92z" />
    <glyph glyph-name="endash.case" 
d="M1028 645h-811v92h811v-92z" />
    <glyph glyph-name="guillemotleft.case" 
d="M541 211l-430 430l430 430l65 -63l-366 -367l366 -367zM1001 211l-430 430l430 430l66 -63l-367 -367l367 -367z" />
    <glyph glyph-name="guillemotright.case" 
d="M674 641l-430 -430l-66 63l367 367l-367 367l66 63zM1135 641l-430 -430l-66 63l367 367l-367 367l66 63z" />
    <glyph glyph-name="guilsinglleft.case" 
d="M743 215l-430 430l430 430l66 -63l-367 -367l367 -366z" />
    <glyph glyph-name="guilsinglright.case" 
d="M932 645l-430 -430l-66 64l367 366l-367 367l66 63z" />
    <glyph glyph-name="hyphen.case" 
d="M920 645h-594v92h594v-92z" />
    <glyph glyph-name="braceleft.case" 
d="M381 674h-21v86h21q78 0 104.5 29t26.5 96v338q0 108 47 159.5t172 51.5h242v-86h-242q-78 0 -104.5 -29t-26.5 -96v-338q0 -125 -70 -168q70 -45 70 -168v-338q0 -67 26.5 -96t104.5 -29h242v-86h-242q-125 0 -172 51.5t-47 159.5v338q0 67 -26.5 96t-104.5 29z" />
    <glyph glyph-name="braceright.case" 
d="M885 674h-21q-78 0 -104.5 -29t-26.5 -96v-338q0 -108 -47 -159.5t-172 -51.5h-242v86h242q78 0 104.5 29t26.5 96v338q0 123 70 168q-70 43 -70 168v338q0 67 -26.5 96t-104.5 29h-242v86h242q125 0 172 -51.5t47 -159.5v-338q0 -67 26.5 -96t104.5 -29h21v-86z" />
    <glyph glyph-name="bracketleft.case" 
d="M512 0v1434h461v-86h-373v-1262h373v-86h-461z" />
    <glyph glyph-name="bracketright.case" 
d="M733 1434v-1434h-461v86h373v1262h-373v86h461z" />
    <glyph glyph-name="parenleft.case" 
d="M512 211v1012q0 108 47 159.5t172 51.5h242v-86h-242q-78 0 -104.5 -29t-26.5 -96v-1012q0 -67 26.5 -96t104.5 -29h242v-86h-242q-125 0 -172 51.5t-47 159.5z" />
    <glyph glyph-name="parenright.case" 
d="M733 1223v-1012q0 -108 -47 -159.5t-172 -51.5h-242v86h242q78 0 104.5 29t26.5 96v1012q0 67 -26.5 96t-104.5 29h-242v86h242q125 0 172 -51.5t47 -159.5z" />
    <glyph glyph-name="periodcentered.case" 
d="M516 604v215h215v-215h-215z" />
    <glyph glyph-name="less.case" 
d="M920 1139l-490 -490l490 -489l-66 -64l-553 553l553 553z" />
    <glyph glyph-name="greater.case" 
d="M815 649l-489 490l65 63l553 -553l-553 -553l-65 64z" />
    <glyph glyph-name="plus.case" 
d="M578 285v360h-361v92h361v359h92v-359h358v-92h-358v-360h-92z" />
    <glyph glyph-name="equal.case" 
d="M1028 434h-811v92h811v-92zM1028 834h-811v92h811v-92z" />
    <glyph glyph-name="notequal.case" 
d="M1028 434h-493l-134 -239l-75 45l108 194h-217v92h811v-92zM920 1120l-109 -194h217v-92h-811v92h492l135 239z" />
    <glyph glyph-name="lessequal.case" 
d="M1028 117h-811v92h811v-92zM1028 360l-811 369v90l811 369v-98l-692 -316l692 -315v-99z" />
    <glyph glyph-name="greaterequal.case" 
d="M217 117h811v92h-811v-92zM1028 729l-811 -369v99l692 315l-692 316v98l811 -369v-90z" />
    <glyph glyph-name="divide.case" 
d="M537 1098q0 35 25.5 60.5t60.5 25.5t60.5 -25.5t25.5 -60.5t-25.5 -60.5t-60.5 -25.5t-60.5 25.5t-25.5 60.5zM537 285q0 35 25.5 60.5t60.5 25.5t60.5 -25.5t25.5 -60.5t-25.5 -60.5t-60.5 -25.5t-60.5 25.5t-25.5 60.5zM1028 645h-811v92h811v-92z" />
    <glyph glyph-name="plusminus.case" 
d="M578 586v248h-361v92h361v248h92v-248h358v-92h-358v-248h-92zM1028 434h-811v92h811v-92z" />
    <glyph glyph-name="question.case" 
d="M524 471v307h80q107 0 182.5 76.5t75.5 183.5q0 106 -75.5 182t-182.5 76t-182.5 -76t-75.5 -182h-158q0 172 122 294t294 122t294 -122t122 -294q0 -151 -96 -266t-242 -143v-158h-158zM496 0v215h215v-215h-215z" />
    <glyph glyph-name="exclam.case" 
d="M702 1434v-963h-157v963h157zM516 0v215h215v-215h-215z" />
    <glyph glyph-name="questiondown.case" 
d="M721 963v-308h-80q-107 0 -182.5 -76.5t-75.5 -183.5q0 -106 75.5 -182t182.5 -76t182.5 76t75.5 182h158q0 -172 -122 -293.5t-294 -121.5t-294 121.5t-122 293.5q0 151 96 266.5t242 143.5v158h158zM535 1219v215h215v-215h-215z" />
    <glyph glyph-name="exclamdown.case" 
d="M702 963v-963h-157v963h157zM516 1219v215h215v-215h-215z" />
    <glyph glyph-name="arrow90topleft" 
d="M219 518l479 -477l-61 -61l-586 583l586 584l61 -62l-479 -477h856v-985h-90v895h-766z" />
    <glyph glyph-name="arrow90topright" 
d="M260 518v-895h-90v985h856l-479 477l61 62l586 -584l-586 -583l-61 61l479 477h-766z" />
    <glyph glyph-name="arrow90downright" 
d="M260 1434v-826h766l-479 477l61 62l586 -584l-586 -583l-61 61l479 477h-856v916h90z" />
    <glyph glyph-name="arrow90downleft" 
d="M219 518l479 -477l-61 -61l-586 583l586 584l61 -62l-479 -477h766v826h90v-916h-856z" />
    <glyph glyph-name="published" 
d="M1075 510v414q0 202 -119.5 323t-332.5 121t-333 -121t-120 -323v-414q0 -202 120 -323t333 -121t332.5 121t119.5 323zM1163 924v-414q0 -242 -143 -386t-397 -144t-397.5 144.5t-143.5 385.5v414q0 241 143.5 385.5t397.5 144.5t397 -144t143 -386zM342 289v856h338
q141 0 216 -81.5t75 -203.5t-75 -203.5t-216 -81.5h-199v-286h-139zM481 715h199q74 0 111.5 41.5t37.5 105.5q0 63 -37.5 105.5t-111.5 42.5h-199v-295z" />
    <glyph glyph-name="brokenbar.case" 
d="M580 0v592h88v-592h-88zM580 842v592h88v-592h-88z" />
    <glyph glyph-name="ampersand.case" 
d="M514 -20q-175 0 -299.5 124.5t-124.5 301.5q0 131 70.5 237t185.5 154q73 31 154 34l-256 451v152h696v-152h-524l456 -801l156 273l133 -78l-200 -354l143 -254l-131 -78l-103 180q-58 -88 -151.5 -139t-204.5 -51zM514 135q95 0 163 52.5t107 136.5l-192 342
q-42 10 -78 10q-112 0 -189 -78.5t-77 -191.5t77 -192t189 -79z" />
    <glyph glyph-name="bar.case" 
d="M578 0v1434h88v-1434h-88z" />
    <glyph glyph-name="at.case" 
d="M838 266q-72 -102 -220 -102q-138 0 -217 79.5t-79 217.5v61q0 138 79 217.5t217 79.5h144v154q0 70 -38 109.5t-106 39.5t-105.5 -39.5t-37.5 -109.5v-55h-153v55q0 138 79 217.5t217 79.5t217.5 -79.5t79.5 -217.5v-639q0 -37 22 -60.5t58 -23.5t58 23.5t22 60.5v631
q0 202 -119.5 323t-332.5 121t-333 -121t-120 -323v-496q0 -202 120 -323t333 -121v-86q-254 0 -397.5 144.5t-143.5 385.5v496q0 241 143.5 385.5t397.5 144.5t397 -144t143 -386v-631q0 -81 -46.5 -125.5t-121.5 -44.5q-65 0 -104.5 29t-52.5 73zM475 522v-61
q0 -70 37.5 -110t105.5 -40t106 40t38 110v211h-144q-68 0 -105.5 -40t-37.5 -110z" />
    <glyph glyph-name="at.alt" 
d="M762 1008v49h153v-907q0 -37 22 -60.5t58 -23.5t58 23.5t22 60.5v774q0 202 -119.5 323t-332.5 121t-333 -121t-120 -323v-781q0 -202 120 -323t333 -121v-86q-254 0 -397.5 144.5t-143.5 385.5v781q0 241 143.5 385.5t397.5 144.5t397 -144t143 -386v-774
q0 -81 -46.5 -125.5t-121.5 -44.5q-65 0 -104.5 29t-52.5 73q-72 -102 -220 -102q-138 0 -217 79t-79 217v512q0 137 76 217t200 80q106 0 164 -77zM618 938q-68 0 -105.5 -40t-37.5 -110v-512q0 -70 37.5 -109.5t105.5 -39.5t106 39.5t38 109.5v512q0 70 -38 110t-106 40z
" />
    <glyph glyph-name="at_alt.case" 
d="M762 1192v49h153v-907q0 -37 22 -60.5t58 -23.5t58 23.5t22 60.5v631q0 202 -119.5 323t-332.5 121t-333 -121t-120 -323v-496q0 -202 120 -323t333 -121v-86q-254 0 -397.5 144.5t-143.5 385.5v496q0 241 143.5 385.5t397.5 144.5t397 -144t143 -386v-631
q0 -81 -46.5 -125.5t-121.5 -44.5q-65 0 -104.5 29t-52.5 73q-72 -102 -220 -102q-138 0 -217 79.5t-79 217.5v512q0 137 76 217t200 80q105 0 164 -78zM618 1122q-68 0 -105.5 -39.5t-37.5 -109.5v-512q0 -70 37.5 -110t105.5 -40t106 40t38 110v512q0 70 -38 109.5
t-106 39.5z" />
    <glyph glyph-name="multiply.case" 
d="M975 975l-287 -285l287 -284l-66 -66l-286 285l-285 -285l-66 66l285 284l-285 285l66 65l285 -284l286 284z" />
    <glyph glyph-name="minus.case" 
d="M1028 645h-811v92h811v-92z" />
    <glyph glyph-name="zero.alt" 
d="M1036 1040v-647q0 -90 -24.5 -162t-64 -118t-94 -77t-111.5 -43.5t-119 -12.5t-119 12.5t-111.5 43.5t-94.5 77t-64.5 118t-24.5 162v647q0 90 24.5 162t64.5 118.5t94.5 77t111.5 43.5t119 13t119 -13t111.5 -43.5t94 -77t64 -118.5t24.5 -162zM883 391v522l-521 -522
q0 -126 75.5 -195t185.5 -69t185 69t75 195zM362 1042v-520l521 522q-1 124 -76.5 193.5t-183.5 69.5q-110 0 -185.5 -69.5t-75.5 -195.5z" />
    <glyph glyph-name="one.alt" 
d="M745 147h336v-147h-827v147h338v1092l-275 -235v194l275 236h153v-1287z" />
    <glyph glyph-name="two.alt" 
d="M205 1040q0 90 24.5 162t64 118.5t94 77t111.5 43.5t119 13t119 -13t111.5 -43.5t94.5 -76t64.5 -116t24.5 -158.5q0 -121 -52.5 -222t-156.5 -215l-420 -463h629v-147h-827v147l510 562q164 179 164 340q0 120 -76 189t-185 69t-184.5 -69.5t-75.5 -195.5v-38h-153v36z
" />
    <glyph glyph-name="three.alt" 
d="M197 393v17h153v-19q0 -126 78.5 -195t192.5 -69q112 0 180.5 67.5t68.5 186.5q0 108 -68.5 187t-180.5 79h-103v148h103q109 0 179 68.5t70 189.5q0 116 -75 185t-185 69q-109 0 -184.5 -69.5t-75.5 -195.5v-18h-153v16q0 90 24.5 162t64 118.5t94 77t111.5 43.5t119 13
q81 0 152.5 -23.5t131.5 -69.5t95 -125.5t35 -182.5q0 -116 -49.5 -204.5t-124.5 -127.5q76 -42 125 -132t49 -208q0 -83 -23 -151.5t-62 -114t-91.5 -76.5t-109 -45t-117.5 -14q-64 0 -122.5 12.5t-114.5 43.5t-96.5 77t-65.5 118t-25 162z" />
    <glyph glyph-name="four.alt" 
d="M1079 387h-149v-387h-154v387h-657v143l657 904h154v-904h149v-143zM295 530h481v660z" />
    <glyph glyph-name="five.alt" 
d="M410 606h-154v828h754v-148h-600v-459q45 39 110 60.5t131 21.5q62 0 119 -12.5t111.5 -43.5t94.5 -77t64.5 -118t24.5 -162v-103q0 -90 -24.5 -162t-64.5 -118t-94.5 -77t-111.5 -43.5t-119 -12.5t-119 12.5t-111.5 43.5t-94 77t-64 118t-24.5 162v17h153v-19
q0 -126 75 -195t185 -69t185 69t75 195v107q0 126 -75 195t-185 69q-81 0 -147 -40.5t-94 -115.5z" />
    <glyph glyph-name="six.alt" 
d="M215 1040q0 90 24.5 162t64.5 118.5t94.5 77t111.5 43.5t119 13t119 -13t111.5 -43.5t94 -77t64 -118.5t24.5 -162v-16h-153v18q0 126 -75.5 195.5t-184.5 69.5t-184.5 -69.5t-75.5 -195.5v-247q39 45 112.5 72.5t147.5 27.5q62 0 119 -13t111.5 -43.5t94 -77t64 -118.5
t24.5 -162v-88q0 -90 -24.5 -162t-64 -118t-94 -77t-111.5 -43.5t-119 -12.5t-119 12.5t-111.5 43.5t-94.5 77t-64.5 118t-24.5 162v647zM369 483v-92q0 -126 75 -195t185 -69t185 69t75 195v92q0 126 -75.5 195.5t-184.5 69.5t-184.5 -69.5t-75.5 -195.5z" />
    <glyph glyph-name="seven.alt" 
d="M1014 1286l-453 -1286h-162l453 1286h-653v148h815v-148z" />
    <glyph glyph-name="eight.alt" 
d="M623 649q-107 0 -184 -73t-77 -189t77 -188t184 -72t183.5 72t76.5 188t-76.5 189t-183.5 73zM623 -20q-81 0 -154 24.5t-132 73t-93.5 128t-34.5 181.5q0 227 168 334q-154 124 -154 330q0 102 34 181.5t91 126.5t127 71t148 24t147.5 -24t127 -71t91 -126.5
t33.5 -181.5q0 -206 -154 -330q168 -107 168 -334q0 -102 -34.5 -181.5t-93 -128t-131.5 -73t-154 -24.5zM623 1307q-115 0 -180.5 -70.5t-65.5 -185.5q0 -122 69.5 -189t176.5 -67q106 0 175.5 66.5t69.5 189.5q0 115 -65 185.5t-180 70.5z" />
    <glyph glyph-name="nine.alt" 
d="M1030 1040v-647q0 -90 -24.5 -162t-64.5 -118t-94.5 -77t-111.5 -43.5t-119 -12.5t-119 12.5t-111.5 43.5t-94 77t-64 118t-24.5 162v17h153v-19q0 -126 75 -195t185 -69t185.5 69t75.5 195v248q-39 -45 -113 -72.5t-148 -27.5q-62 0 -119 12.5t-111.5 43.5t-94 77
t-64 118t-24.5 162v88q0 90 24.5 162t64 118.5t94 77t111.5 43.5t119 13t119 -13t111.5 -43.5t94.5 -77t64.5 -118.5t24.5 -162zM877 950v92q0 126 -75.5 195.5t-185.5 69.5q-109 0 -184.5 -69.5t-75.5 -195.5v-92q0 -126 75 -195t185 -69t185.5 69t75.5 195z" />
  </font>
</defs>
</svg>
