<svg width="245" height="69" viewBox="0 0 245 69" fill="none" xmlns="http://www.w3.org/2000/svg">
<g id="Vector">
<path d="M25.1035 43.0746H31.4748C31.7673 43.0746 31.9708 42.7819 31.8817 42.5146L25.9302 25.1801C25.8666 25.0146 25.9302 24.8364 26.0573 24.7219C27.2273 23.7546 28.2701 22.571 29.0586 21.1328C32.5303 14.8455 31.1187 6.57282 27.0747 3.37828C25.307 1.97828 22.0133 0.501916 16.7993 0.540098H0.317927V42.7055C0.317927 42.9473 0.508684 43.1382 0.750308 43.1382H6.74006C6.98168 43.1382 7.17244 42.9473 7.17244 42.7055V29.6473C7.17244 29.4182 7.3632 29.2273 7.5921 29.2146C11.5344 29.2146 15.4004 29.2146 19.2282 28.1328C19.4444 28.0692 19.6733 28.1837 19.7496 28.4001L24.7093 42.8073C24.7729 42.9855 24.9255 43.1 25.1163 43.1L25.1035 43.0746ZM7.15972 21.9219V7.90918C7.15972 7.66736 7.35048 7.47645 7.5921 7.47645C14.79 7.66736 21.2884 6.08918 23.5902 10.9255C24.5949 13.051 24.0607 15.5328 22.9289 17.4928C19.8132 22.9019 12.9333 22.3419 7.5921 22.3419C7.35048 22.3419 7.15972 22.151 7.15972 21.9092V21.9219Z" fill="#F3E9E2"/>
<path d="M143.5 1.17646V42.6164C143.5 42.8582 143.69 43.0491 143.932 43.0491H149.922C150.163 43.0491 150.354 42.8582 150.354 42.6164V1.17646C150.354 0.934643 150.163 0.743734 149.922 0.743734H143.932C143.69 0.743734 143.5 0.934643 143.5 1.17646Z" fill="#F3E9E2"/>
<path d="M78.0321 7.75645C77.9558 7.60372 77.8159 7.51463 77.6506 7.51463C75.0181 7.50191 73.225 7.731 70.9995 8.25281C68.774 8.77463 64.1069 11.0146 64.234 11.371C64.3612 11.7274 68.0364 9.99645 70.4145 9.99645C72.5383 9.99645 72.5637 11.8164 72.6273 13.0128C72.7418 15.1637 72.7672 16.5764 72.2204 18.1419C71.5845 19.9492 70.033 21.1201 68.3289 21.8582C66.5867 22.6092 64.6537 23.0928 62.797 23.4873C60.8513 23.9073 57.2778 24.1492 55.2812 24.2255C54.798 24.2382 54.0731 24.2382 53.5898 24.2255C53.3609 24.2255 53.1702 24.0219 53.1702 23.7928V22.7237C53.1702 20.2419 53.221 17.7601 53.3355 15.2783C53.4118 13.5092 53.895 11.6892 55.0014 10.2637C56.0061 8.96554 57.4685 8.24009 58.9692 7.68009C61.6906 6.67463 64.3485 6.82736 67.159 7.69281C67.248 7.71827 67.5532 7.88372 67.6295 7.84554C67.6676 7.83282 67.7058 7.82009 67.7567 7.80736C69.1937 7.32373 72.5383 5.98736 76.0609 5.82191C76.417 5.80918 76.6078 5.38918 76.3661 5.10918C74.0262 2.30919 70.1475 0.514643 63.8652 0.514643C51.0718 0.514643 46.3411 7.83282 46.3411 13.7892L46.3792 42.68C46.3792 42.9219 46.57 43.1128 46.8116 43.1128H52.8141C53.0557 43.1128 53.2465 42.9219 53.2465 42.68L53.1956 31.0473C53.4881 31.0473 53.806 31.0601 54.1621 31.0601C57.5576 31.0601 65.6583 30.5637 72.1186 27.5855C72.3984 27.4582 72.729 27.6492 72.729 27.9673L72.7545 42.68C72.7545 42.9219 72.9452 43.1128 73.1869 43.1128H79.1893C79.431 43.1128 79.6217 42.9219 79.6217 42.6928V16.7546C79.6217 12.5928 79.2148 10.0474 78.0957 7.75645H78.0321Z" fill="#F3E9E2"/>
<path d="M238.382 20.4583C234.936 19.0073 231.222 18.4728 227.56 18.1673C225.385 17.9892 222.625 17.5692 221.405 15.5073C220.324 13.6874 220.603 11.1546 221.837 9.48736C223.388 7.40009 226.123 6.471 228.704 6.52191C232.761 6.611 236.067 9.16918 238.102 12.7201C238.229 12.9492 238.522 13.0128 238.738 12.8474L243.685 9.1819C243.863 9.04191 243.901 8.77463 243.774 8.59645C240.391 3.63282 234.77 0.171008 228.831 0.00555335C219.79 -0.248992 209.692 8.27827 215.059 19.1473C215.071 19.1728 215.084 19.1983 215.11 19.2237C220.4 26.771 227 24.391 233.206 25.7146C236.589 26.4273 238.306 29.8637 236.487 33.0073C234.084 37.1691 228.03 37.5637 224.062 35.8455C222.091 34.9928 220.413 33.6182 218.925 32.0273C218.772 31.8619 218.531 31.8364 218.352 31.9891C217.208 32.9182 214.652 34.9673 213.609 35.9219C213.444 36.0746 213.418 36.3419 213.571 36.5201C215.873 39.3837 218.988 41.5855 222.435 42.7564C226.937 44.2837 231.998 44.0673 236.36 42.1328C239.081 40.9237 241.561 39.3837 243.164 36.851C245.02 33.911 245.516 30.131 244.435 26.8092C243.354 23.4873 241.129 21.591 238.42 20.4455L238.382 20.4583Z" fill="#F3E9E2"/>
<path d="M128.29 15.1128C127.603 7.65463 120.316 1.40555 113.157 0.972825C110.372 0.80737 107.663 0.641916 104.865 0.641916C102.067 0.641916 99.613 0.641916 97.0187 0.641916C96.7644 0.641916 96.5482 0.858279 96.5482 1.11282V42.591C96.5482 42.8455 96.7516 43.0619 97.0187 43.0619H103.11C105.793 43.0619 108.413 43.0619 111.033 43.0619C119.973 43.0364 127.578 36.3037 128.341 27.051C128.672 23.1055 128.646 19.071 128.29 15.1255V15.1128ZM121.397 27.0891C120.851 31.8873 117.404 35.591 112.813 36.151C110.003 36.4946 106.887 36.1891 103.962 36.151C103.708 36.151 103.492 35.9473 103.492 35.68V7.97282C103.492 7.71827 103.695 7.50191 103.95 7.50191C108.782 7.52736 110.372 7.28554 113.347 7.89645C117.57 8.74918 120.609 11.4855 121.283 15.991C121.83 19.6183 121.817 23.4364 121.397 27.0891Z" fill="#F3E9E2"/>
<path d="M198.183 8.40554C198.183 6.07645 198.107 3.54373 198.145 1.22737C198.145 0.985552 197.954 0.794643 197.713 0.794643H191.723C191.481 0.794643 191.291 0.985552 191.291 1.22737V28.3873C191.189 30.1055 190.311 36.6728 181.931 36.7237C173.55 36.6855 172.698 30.2201 172.596 28.5146L172.507 1.2401C172.507 0.998279 172.317 0.80737 172.075 0.80737H166.085C165.844 0.80737 165.653 0.998279 165.653 1.2401C165.691 3.56918 165.615 6.10191 165.615 8.41827C165.615 12.9746 165.615 16.7419 165.615 21.311C165.615 25.4982 165.259 29.8764 166.785 33.8601C168.069 37.2073 170.434 40.0837 173.626 41.7382C176.081 43.0109 179.069 43.52 181.829 43.5455C181.829 43.5455 181.88 43.5455 181.905 43.5455C181.931 43.5455 181.956 43.5455 181.982 43.5455C184.728 43.52 187.501 43.0109 189.942 41.7382C193.134 40.0709 195.5 37.1946 196.784 33.8601C198.31 29.8637 198.145 25.4473 198.145 21.2601V8.40554H198.183Z" fill="#F3E9E2"/>
<path d="M0 56.6418H4.48913C6.60017 56.6418 8.88925 57.0873 8.88925 59.6964C8.88925 61.0455 8.04992 61.9618 6.81636 62.3436V62.3818C8.39328 62.5855 9.4488 63.7564 9.4488 65.3218C9.4488 67.8418 7.0707 68.6691 4.93423 68.6691H0V56.6291V56.6418ZM2.64516 61.4527H4.56544C5.37933 61.4527 6.23138 61.1091 6.23138 60.1418C6.23138 59.1746 5.27759 58.8818 4.45098 58.8818H2.64516V61.4527ZM2.64516 66.4418H5.02325C5.84986 66.4418 6.79093 66.0855 6.79093 65.0291C6.79093 63.8836 5.51922 63.7055 4.65446 63.7055H2.64516V66.4418Z" fill="#F3E9E2"/>
<path d="M24.8873 64.0364C24.8873 66.8745 23.1578 68.9873 19.8259 68.9873C16.4941 68.9873 14.7518 66.8745 14.7518 64.0364V56.6418H17.397V63.9346C17.397 65.4109 18.4143 66.5309 19.8259 66.5309C21.2375 66.5309 22.2422 65.4109 22.2422 63.9346V56.6418H24.8873V64.0364Z" fill="#F3E9E2"/>
<path d="M33.3951 58.9964H29.9615V56.6546H39.4739V58.9964H36.0402V68.6818H33.3951V58.9964Z" fill="#F3E9E2"/>
<path d="M52.4199 59.7727C51.8985 59.1491 51.1227 58.7927 50.1435 58.7927C48.1342 58.7927 46.659 60.4218 46.659 62.6746C46.659 64.9273 48.1342 66.5564 50.0545 66.5564C51.1227 66.5564 51.9875 66.0855 52.5343 65.2582L54.7471 66.9127C53.7424 68.3382 52.0511 69 50.3978 69C46.6463 69 43.9121 66.5309 43.9121 62.6746C43.9121 58.8182 46.6463 56.3491 50.3978 56.3491C51.7331 56.3491 53.4372 56.8073 54.4546 58.1182L52.4199 59.7855V59.7727Z" fill="#F3E9E2"/>
<path d="M59.9357 56.6418H62.5808V61.1346H67.7312V56.6418H70.3764V68.6818H67.7312V63.4764H62.5808V68.6818H59.9357V56.6418Z" fill="#F3E9E2"/>
<path d="M76.6586 56.6418H84.8357V59.0855H79.3165V61.3255H84.5305V63.7691H79.3165V66.2127H85.1409V68.6564H76.6586V56.6164V56.6418Z" fill="#F3E9E2"/>
<path d="M91.0035 56.6418H95.658C98.1251 56.6418 100.198 57.4946 100.198 60.2946C100.198 61.9746 99.2951 63.2855 97.6037 63.5909L100.656 68.6691H97.4765L94.9585 63.8582H93.6487V68.6691H91.0035V56.6291V56.6418ZM93.6487 61.6309H95.2129C96.1794 61.6309 97.4384 61.5927 97.4384 60.2818C97.4384 59.0727 96.3447 58.8818 95.3782 58.8818H93.6487V61.6309Z" fill="#F3E9E2"/>
<path d="M123.394 65.8436L126.077 68.6818H122.796L121.792 67.5364C120.8 68.5545 119.681 68.9873 118.256 68.9873C116.082 68.9873 113.996 67.7909 113.996 65.3855C113.996 63.8327 115.115 62.5855 116.539 62.1018C115.764 61.2491 115.217 60.5873 115.217 59.4037C115.217 57.2273 117.048 56.3491 118.968 56.3491C120.889 56.3491 122.466 57.2782 122.466 59.3018C122.466 60.7273 121.448 61.7964 120.24 62.4327L121.792 64.0873L122.962 62.4837H125.925L123.394 65.8564V65.8436ZM118.129 63.5527C117.468 63.96 116.756 64.3673 116.756 65.2709C116.756 66.1746 117.531 66.7473 118.371 66.7473C119.146 66.7473 119.693 66.3527 120.253 65.8691L118.129 63.5527ZM117.773 59.5055C117.773 60.1037 118.371 60.6509 118.778 61.02C119.299 60.7146 120.138 60.1546 120.138 59.4673C120.138 58.78 119.592 58.3727 118.943 58.3727C118.294 58.3727 117.773 58.8182 117.773 59.4927V59.5055Z" fill="#F3E9E2"/>
<path d="M150.799 67.8291C149.235 68.6436 147.518 68.9873 145.751 68.9873C141.999 68.9873 139.265 66.5182 139.265 62.6618C139.265 58.8055 141.999 56.3364 145.751 56.3364C147.658 56.3364 149.337 56.7564 150.545 57.8891L148.676 59.9255C147.963 59.1746 147.099 58.7927 145.751 58.7927C143.487 58.7927 142.012 60.4218 142.012 62.6746C142.012 64.9273 143.487 66.5564 145.751 66.5564C146.908 66.5564 147.76 66.2382 148.243 65.9582V63.9982H146.081V61.5546H150.787V67.8418L150.799 67.8291Z" fill="#F3E9E2"/>
<path d="M156.853 56.6418H161.507C163.974 56.6418 166.047 57.4946 166.047 60.2946C166.047 61.9746 165.144 63.2855 163.453 63.5909L166.505 68.6691H163.326L160.808 63.8582H159.498V68.6691H156.853V56.6291V56.6418ZM159.51 61.6309H161.075C162.041 61.6309 163.3 61.5927 163.3 60.2818C163.3 59.0727 162.207 58.8818 161.24 58.8818H159.51V61.6309Z" fill="#F3E9E2"/>
<path d="M177.442 56.3364C181.193 56.3364 183.927 58.8055 183.927 62.6618C183.927 66.5182 181.193 68.9873 177.442 68.9873C173.69 68.9873 170.956 66.5182 170.956 62.6618C170.956 58.8055 173.69 56.3364 177.442 56.3364ZM177.442 66.5436C179.705 66.5436 181.18 64.9146 181.18 62.6618C181.18 60.4091 179.705 58.78 177.442 58.78C175.178 58.78 173.703 60.4091 173.703 62.6618C173.703 64.9146 175.178 66.5436 177.442 66.5436Z" fill="#F3E9E2"/>
<path d="M197.344 59.7727C196.822 59.1491 196.047 58.7927 195.067 58.7927C193.058 58.7927 191.583 60.4218 191.583 62.6746C191.583 64.9273 193.058 66.5564 194.978 66.5564C196.047 66.5564 196.911 66.0855 197.458 65.2582L199.671 66.9127C198.666 68.3382 196.975 69 195.322 69C191.57 69 188.836 66.5309 188.836 62.6746C188.836 58.8182 191.57 56.3491 195.322 56.3491C196.67 56.3491 198.361 56.8073 199.379 58.1182L197.344 59.7855V59.7727Z" fill="#F3E9E2"/>
<path d="M204.949 56.6418H213.126V59.0855H207.607V61.3255H212.821V63.7691H207.607V66.2127H213.431V68.6564H204.949V56.6164V56.6418Z" fill="#F3E9E2"/>
<path d="M219.281 56.6418H223.935C226.402 56.6418 228.475 57.4946 228.475 60.2946C228.475 61.9746 227.572 63.2855 225.881 63.5909L228.933 68.6691H225.754L223.236 63.8582H221.926V68.6691H219.281V56.6291V56.6418ZM221.939 61.6309H223.503C224.469 61.6309 225.728 61.5927 225.728 60.2818C225.728 59.0727 224.635 58.8818 223.668 58.8818H221.939V61.6309Z" fill="#F3E9E2"/>
<path d="M236.678 63.5527L232.163 56.6546H235.457L238 61.16L240.696 56.6546H243.838L239.323 63.5527V68.6818H236.678V63.5527Z" fill="#F3E9E2"/>
</g>
</svg>
